<svg width="24" height="24" viewBox="0 0 24 24" xmlns="http://www.w3.org/2000/svg">
    <path d="M6.41408 5.00002C6.0236 4.60953 5.3905 4.60953 5.00002 5.00002C4.60953 5.3905 4.60953 6.0236 5.00002 6.41408L10.586 12L5.00002 17.586C4.60953 17.9764 4.60953 18.6095 5.00002 19C5.3905 19.3905 6.0236 19.3905 6.41408 19L12 13.4141L17.586 19C17.9764 19.3905 18.6095 19.3905 19 19C19.3905 18.6095 19.3905 17.9764 19 17.586L13.4141 12L19 6.41408C19.3905 6.0236 19.3905 5.3905 19 5.00002C18.6095 4.60953 17.9764 4.60953 17.586 5.00002L12 10.586L6.41408 5.00002Z" fill="black" fill-opacity="0.3"/>
</svg>
