<svg width="30" height="30" viewBox="0 0 30 30" fill="none" xmlns="http://www.w3.org/2000/svg">
<path fill-rule="evenodd" clip-rule="evenodd" d="M15 20.5C18.0376 20.5 20.5 18.0376 20.5 15C20.5 11.9624 18.0376 9.5 15 9.5C11.9624 9.5 9.5 11.9624 9.5 15C9.5 18.0376 11.9624 20.5 15 20.5ZM22 15C22 18.866 18.866 22 15 22C11.134 22 8 18.866 8 15C8 11.134 11.134 8 15 8C18.866 8 22 11.134 22 15Z" fill="white"/>
<path fill-rule="evenodd" clip-rule="evenodd" d="M11.9194 9.47475C11.9194 9.47475 11.9195 9.47493 12.5 9C13.0805 8.52507 13.0807 8.52538 13.0807 8.52538L13.0821 8.52705L13.0853 8.53103L13.0966 8.54498L13.1378 8.59639C13.1732 8.64095 13.2244 8.70592 13.2892 8.79007C13.419 8.95835 13.6038 9.2035 13.828 9.51572C14.276 10.1398 14.8828 11.034 15.5215 12.1197C16.7927 14.2809 18.2182 17.2472 18.7398 20.3767L17.2602 20.6233C16.7818 17.7528 15.4573 14.9691 14.2285 12.8803C13.6172 11.841 13.0365 10.9852 12.6095 10.3905C12.3962 10.0934 12.2216 9.86197 12.1014 9.70602C12.0413 9.62806 11.9948 9.56901 11.9638 9.53008L11.9293 9.48694L11.9212 9.47699L11.9194 9.47475Z" fill="white"/>
<path fill-rule="evenodd" clip-rule="evenodd" d="M19.0317 10.4142C19.0317 10.4142 19.0315 10.4143 19.5 11C19.9685 11.5857 19.9682 11.5859 19.9682 11.5859L19.9665 11.5872L19.9627 11.5903L19.9497 11.6006L19.902 11.6378C19.8609 11.6697 19.801 11.7156 19.7234 11.7738C19.5683 11.8902 19.3421 12.0557 19.0528 12.2567C18.4745 12.6583 17.6418 13.2026 16.6177 13.7787C14.5765 14.9269 11.7411 16.2202 8.6233 16.7398L8.3767 15.2602C11.2589 14.7798 13.9235 13.5731 15.8823 12.4713C16.8582 11.9224 17.6505 11.4042 18.1972 11.0246C18.4704 10.8349 18.6817 10.6801 18.8234 10.5738C18.8943 10.5207 18.9477 10.4797 18.9827 10.4525L19.0213 10.4224L19.03 10.4155L19.0317 10.4142Z" fill="white"/>
<path fill-rule="evenodd" clip-rule="evenodd" d="M12.6141 20.9307C12.6141 20.9307 12.6144 20.9303 12 20.5002C11.3856 20.0701 11.386 20.0695 11.386 20.0695L11.3877 20.067L11.3912 20.0621L11.4021 20.0469C11.411 20.0345 11.4235 20.0175 11.4393 19.9962C11.4711 19.9536 11.5166 19.8939 11.5756 19.8198C11.6937 19.6717 11.8663 19.4655 12.0917 19.2235C12.5415 18.7403 13.2068 18.1083 14.0731 17.5085C15.8086 16.307 18.3783 15.2195 21.6233 15.7604L21.3767 17.24C18.6217 16.7808 16.4414 17.6933 14.9269 18.7418C14.1682 19.267 13.5835 19.8225 13.1895 20.2456C12.993 20.4567 12.8454 20.6333 12.7486 20.7548C12.7002 20.8154 12.6647 20.8622 12.6422 20.8923C12.631 20.9074 12.623 20.9183 12.6184 20.9248L12.6141 20.9307Z" fill="white"/>
</svg>
