<svg width="30" height="30" viewBox="0 0 30 30" fill="none" xmlns="http://www.w3.org/2000/svg">
<path fill-rule="evenodd" clip-rule="evenodd" d="M8 10.5C8 9.12502 9.12502 8 10.5 8H19.5C20.875 8 22 9.12502 22 10.5V19.5C22 20.875 20.875 22 19.5 22H10.5C9.12502 22 8 20.875 8 19.5V10.5ZM17 17.0001L17.0477 21.9953H15V17.0001L13.4946 16.9953V14.9953L15 15.0001V13.6467C15 11.9633 15.9872 11.0518 17.5017 11.0518C18.2272 11.0518 18.8511 11.1038 19.0334 11.1282V12.8892H17.982C17.1587 12.8892 17 13.2773 17 13.8474V15.0001L19.0118 14.9953L18.7561 17.0049L17 17.0001Z" fill="white"/>
</svg>
