<svg width="84" height="25" viewBox="0 0 84 25" fill="none" xmlns="http://www.w3.org/2000/svg">
<path d="M32.9736 16.6479H38.6563V15.135H34.8505V7.96876H32.9736V16.6479Z" fill="#333333"/>
<path d="M45.4973 7.96876V13.6433C45.4973 14.5714 44.7301 15.135 43.6811 15.135C42.6451 15.135 41.8779 14.5714 41.8779 13.6433V7.96876H40.001V13.7068C40.001 15.6732 41.5268 16.7708 43.6811 16.7708C45.8267 16.7708 47.3612 15.6732 47.3612 13.7068V7.96876H45.4973Z" fill="#333333"/>
<path d="M56.4323 7.96876H54.5641V13.4271H54.4861L50.6543 7.96876H49.0071V16.6479H50.884V11.1853H50.949L54.8112 16.6479H56.4323V7.96876Z" fill="#333333"/>
<path d="M59.6149 16.6479L60.2737 14.6688H63.477L64.1359 16.6479H66.1471L63.0869 7.96876H60.6682L57.6036 16.6479H59.6149ZM60.7505 13.2364L61.8429 9.95208H61.9122L63.0045 13.2364H60.7505Z" fill="#333333"/>
<path d="M74.7328 11.0073C74.4857 9.0028 72.9339 7.8501 70.8793 7.8501C68.5343 7.8501 66.7441 9.46896 66.7441 12.3083C66.7441 15.1392 68.5039 16.7666 70.8793 16.7666C73.155 16.7666 74.5291 15.2875 74.7328 13.6899L72.8342 13.6814C72.6565 14.6095 71.911 15.1435 70.9097 15.1435C69.5616 15.1435 68.647 14.1645 68.647 12.3083C68.647 10.503 69.5486 9.4732 70.9227 9.4732C71.95 9.4732 72.6912 10.0538 72.8342 11.0073H74.7328Z" fill="#333333"/>
<path d="M75.6603 7.96876L78.8982 13.5797V16.6479H80.7621V13.5797L84.0001 7.96876H81.8978L79.8735 11.7066H79.7868L77.7625 7.96876H75.6603Z" fill="#333333"/>
<path d="M0 9.70573C0 6.3084 0 4.60974 0.661163 3.31214C1.24274 2.17073 2.17073 1.24274 3.31214 0.661163C4.60974 0 6.3084 0 9.70573 0L14.5586 0C17.9559 0 19.6546 0 20.9522 0.661163C22.0936 1.24274 23.0216 2.17073 23.6032 3.31214C24.2643 4.60974 24.2643 6.3084 24.2643 9.70573V14.5586C24.2643 17.9559 24.2643 19.6546 23.6032 20.9522C23.0216 22.0936 22.0936 23.0216 20.9522 23.6032C19.6546 24.2643 17.9559 24.2643 14.5586 24.2643H9.70573C6.3084 24.2643 4.60974 24.2643 3.31214 23.6032C2.17073 23.0216 1.24274 22.0936 0.661163 20.9522C0 19.6546 0 17.9559 0 14.5586L0 9.70573Z" fill="#179DE3"/>
<path d="M11.1618 7.06592V17.1981H7.0957V7.06592H11.1618ZM17.2253 17.1983H14.5734L17.2253 14.5465V17.1983Z" fill="white" stroke="white" stroke-width="2"/>
</svg>
