<?xml version="1.0" encoding="utf-8"?>
<svg width="87px" height="26px" viewBox="0 0 87 26" version="1.1" xmlns:xlink="http://www.w3.org/1999/xlink" xmlns="http://www.w3.org/2000/svg">
  <desc>Created with Lunacy</desc>
  <g id="logo" transform="translate(1 1)">
    <path d="M0 8.5846L5.6827 8.5846L5.6827 7.08818L1.8769 7.08818L1.8769 0L0 0L0 8.5846L0 8.5846Z" transform="translate(32.9736 7.8819604)" id="Shape" fill="#333333" fill-rule="evenodd" stroke="none" />
    <path d="M5.4963 0L5.4963 5.61273C5.4963 6.53072 4.7291 7.08818 3.6801 7.08818C2.6441 7.08818 1.8769 6.53072 1.8769 5.61273L1.8769 0L0 0L0 5.67554C0 7.62052 1.5258 8.70616 3.6801 8.70616C5.8257 8.70616 7.3602 7.62052 7.3602 5.67554L7.3602 0L5.4963 0L5.4963 0Z" transform="translate(40.001 7.8819604)" id="Shape" fill="#333333" fill-rule="evenodd" stroke="none" />
    <path d="M7.4252 0L5.557 0L5.557 5.39889L5.479 5.39889L1.6472 0L0 0L0 8.5846L1.8769 8.5846L1.8769 3.1815L1.9419 3.1815L5.8041 8.5846L7.4252 8.5846L7.4252 0L7.4252 0Z" transform="translate(49.0071 7.8819604)" id="Shape" fill="#333333" fill-rule="evenodd" stroke="none" />
    <path d="M2.0113 8.5846L2.6701 6.62706L5.8734 6.62706L6.5323 8.5846L8.5435 8.5846L5.4833 0L3.0646 0L0 8.5846L2.0113 8.5846L2.0113 8.5846ZM3.1469 5.21026L4.2393 1.96172L4.3086 1.96172L5.4009 5.21026L3.1469 5.21026L3.1469 5.21026Z" transform="translate(57.6036 7.8819604)" id="Shape" fill="#333333" fill-rule="evenodd" stroke="none" />
    <path d="M7.9887 3.12281C7.7416 1.14014 6.1898 0 4.1352 0C1.7902 0 0 1.60123 0 4.40964C0 7.2097 1.7598 8.81938 4.1352 8.81938C6.4109 8.81938 7.785 7.35639 7.9887 5.77619L6.0901 5.76778C5.9124 6.68577 5.1669 7.21396 4.1656 7.21396C2.8175 7.21396 1.9029 6.24562 1.9029 4.40964C1.9029 2.624 2.8045 1.60542 4.1786 1.60542C5.20589 1.60542 5.9471 2.1797 6.0901 3.12281L7.9887 3.12281L7.9887 3.12281Z" transform="translate(66.7441 7.7645926)" id="Shape" fill="#333333" fill-rule="evenodd" stroke="none" />
    <path d="M0 0L3.2379 5.54982L3.2379 8.5846L5.1018 8.5846L5.1018 5.54982L8.3398 0L6.2375 0L4.2132 3.69713L4.1265 3.69713L2.1022 0L0 0L0 0Z" transform="translate(75.6603 7.8819604)" id="Shape" fill="#333333" fill-rule="evenodd" stroke="none" />
    <path d="M0 9.60001C0 6.23969 0 4.55953 0.661163 3.27606C1.24274 2.14709 2.17073 1.2292 3.31214 0.653961C4.60974 0 6.3084 0 9.70573 0L14.5586 0C17.9559 0 19.6546 0 20.9522 0.653961C22.0936 1.2292 23.0216 2.14709 23.6032 3.27606C24.2643 4.55953 24.2643 6.23969 24.2643 9.60001L24.2643 14.4C24.2643 17.7603 24.2643 19.4405 23.6032 20.724C23.0216 21.8529 22.0936 22.7708 20.9522 23.3461C19.6546 24 17.9559 24 14.5586 24L9.70573 24C6.3084 24 4.60974 24 3.31214 23.3461C2.17073 22.7708 1.24274 21.8529 0.661163 20.724C0 19.4405 0 17.7603 0 14.4L0 9.60001L0 9.60001Z" id="Shape" fill="#179DE3" fill-rule="evenodd" stroke="none" />
    <path d="M4.0661 0L4.0661 10.0218L0 10.0218L0 0L4.0661 0L4.0661 0ZM10.1296 10.022L7.4777 10.022L10.1296 7.3991L10.1296 10.022L10.1296 10.022Z" transform="translate(7.0956993 6.988954)" id="Shape" fill="#FFFFFF" fill-rule="evenodd">System.Threading.Tasks.Task`1[System.Collections.Generic.List`1[System.Xml.Linq.XAttribute]]</path>
  </g>
</svg>