<svg width="100" height="100" viewBox="0 0 100 100" fill="none" xmlns="http://www.w3.org/2000/svg">
<path d="M40 100H60C74.0013 100 81.002 100 86.3498 97.2754C91.0538 94.8786 94.8783 91.0541 97.2752 86.3501C100 81.0024 100 74.0018 100 60.0006V58.3L41.7 0L40 0.0012207C25.9987 0.0012207 18.998 0.0012207 13.6502 2.72603C8.94619 5.12284 5.12167 8.94732 2.72484 13.6513C0 18.9991 0 25.9996 0 40.0008V60.0006C0 74.0018 0 81.0024 2.72484 86.3501C5.12167 91.0541 8.94619 94.8786 13.6502 97.2754C18.998 100 25.9987 100 40 100Z" fill="#179DE3"/>
<path d="M29.165 70.8326L41.665 0H74.9984C88.8055 0 99.9984 11.1928 99.9984 24.9997V58.3327L29.165 70.8326Z" fill="#BFE4F7"/>
<path d="M64.5817 64.5836L35.415 35.4172L29.165 70.8325L64.5817 64.5836Z" fill="#6BC0ED"/>
</svg>
