<svg width="48" height="48" viewBox="0 0 48 48" fill="none" xmlns="http://www.w3.org/2000/svg">
<path d="M19.2 48.0001H28.8C35.5206 48.0001 38.8809 48.0001 41.4479 46.6922C43.7058 45.5417 45.5416 43.706 46.6921 41.448C48 38.8811 48 35.5209 48 28.8003V27.984L20.016 0L19.2 0.000585937C12.4794 0.000585937 9.11905 0.000585937 6.55211 1.30849C4.29417 2.45896 2.4584 4.29471 1.30792 6.55263C0 9.11955 0 12.4798 0 19.2004V28.8003C0 35.5209 0 38.8811 1.30792 41.448C2.4584 43.706 4.29417 45.5417 6.55211 46.6922C9.11905 48.0001 12.4794 48.0001 19.2 48.0001Z" fill="#179DE3"/>
<path d="M13.999 33.9997L19.999 0H35.999C42.6264 0 47.999 5.37253 47.999 11.9999V27.9997L13.999 33.9997Z" fill="#BFE4F7"/>
<path d="M30.999 31.0003L16.999 17.0005L13.999 33.9998L30.999 31.0003Z" fill="#6BC0ED"/>
</svg>
