<svg width="84" height="24" viewBox="0 0 84 24" fill="none" xmlns="http://www.w3.org/2000/svg">
<path d="M9.6 24H14.4C17.7603 24 19.4405 24 20.7239 23.3461C21.8529 22.7709 22.7708 21.853 23.346 20.724C24 19.4406 24 17.7604 24 14.4001V13.992L10.008 0L9.6 0.000292969C6.23969 0.000292969 4.55953 0.000292969 3.27606 0.654247C2.14708 1.22948 1.2292 2.14736 0.653961 3.27632C0 4.55977 0 6.23991 0 9.6002V14.4001C0 17.7604 0 19.4406 0.653961 20.724C1.2292 21.853 2.14708 22.7709 3.27606 23.3461C4.55953 24 6.23968 24 9.6 24Z" fill="#179DE3"/>
<path d="M6.99902 17.0003L9.99902 0.000488281H17.999C21.3127 0.000488281 23.999 2.68675 23.999 6.00043V14.0003L6.99902 17.0003Z" fill="#BFE4F7"/>
<path d="M15.499 15.5004L8.49902 8.50049L6.99902 17.0002L15.499 15.5004Z" fill="#6BC0ED"/>
<path d="M38.4619 16H33.041V6.89746H35.0913V14.3369H38.4619V16ZM46.8472 12.0581C46.8472 14.7918 45.5734 16.1587 43.0259 16.1587C40.5545 16.1587 39.3188 14.8236 39.3188 12.1533V6.89746H41.3755V12.1787C41.3755 13.6514 41.951 14.3877 43.1021 14.3877C44.2319 14.3877 44.7969 13.6768 44.7969 12.2549V6.89746H46.8472V12.0581ZM57.0225 16H54.9531L51.2017 10.2808C50.9816 9.94645 50.8293 9.69466 50.7446 9.52539H50.7192C50.7531 9.84701 50.77 10.3379 50.77 10.998V16H48.834V6.89746H51.043L54.6548 12.439C54.8198 12.6886 54.9722 12.9362 55.1118 13.1816H55.1372C55.1034 12.9701 55.0864 12.5532 55.0864 11.9312V6.89746H57.0225V16ZM67.1089 16H64.8745L64.2271 13.9751H60.9897L60.3486 16H58.127L61.4404 6.89746H63.8716L67.1089 16ZM63.7573 12.4009L62.7798 9.34131C62.7078 9.11279 62.6571 8.83984 62.6274 8.52246H62.5767C62.5555 8.78906 62.5026 9.05355 62.418 9.31592L61.4277 12.4009H63.7573ZM74.5674 15.6763C73.903 15.9979 73.0355 16.1587 71.9648 16.1587C70.5684 16.1587 69.4702 15.7482 68.6704 14.9272C67.8706 14.1063 67.4707 13.0124 67.4707 11.6455C67.4707 10.1898 67.9193 9.00911 68.8164 8.10352C69.7178 7.19792 70.8857 6.74512 72.3203 6.74512C73.209 6.74512 73.958 6.85726 74.5674 7.08154V9.05566C73.958 8.69173 73.264 8.50977 72.4854 8.50977C71.6305 8.50977 70.9408 8.77848 70.416 9.31592C69.8913 9.85335 69.6289 10.5812 69.6289 11.4995C69.6289 12.3797 69.8765 13.0822 70.3716 13.6069C70.8667 14.1274 71.5332 14.3877 72.3711 14.3877C73.1709 14.3877 73.903 14.193 74.5674 13.8037V15.6763ZM83.0161 6.89746L80.0518 12.7627V16H78.0015V12.8008L75.1133 6.89746H77.4556L78.9219 10.2935C78.9473 10.3569 79.0171 10.6045 79.1313 11.0361H79.1567C79.2118 10.7314 79.2773 10.4924 79.3535 10.3188L80.8452 6.89746H83.0161Z" fill="#333333"/>
</svg>
