<svg width="30" height="30" viewBox="0 0 30 30" fill="none" xmlns="http://www.w3.org/2000/svg">
<path d="M8.99747 11.448C9.01625 11.2624 8.94549 11.079 8.80694 10.9541L7.39561 9.25397V9H11.7778L15.165 16.4286L18.1429 9H22.3205V9.25397L21.1138 10.4109C21.0097 10.4902 20.9581 10.6206 20.9797 10.7496V19.2504C20.9581 19.3794 21.0097 19.5098 21.1138 19.5891L22.2922 20.746V21H16.3646V20.746L17.5854 19.5608C17.7054 19.4409 17.7054 19.4056 17.7054 19.2222V12.351L14.3111 20.9718H13.8525L9.90073 12.351V18.1287C9.86778 18.3717 9.94845 18.6162 10.1195 18.7919L11.7072 20.7178V20.9718H7.20508V20.7178L8.79283 18.7919C8.96261 18.6159 9.03858 18.3697 8.99747 18.1287V11.448Z" fill="white"/>
</svg>
