<svg width="17" height="17" viewBox="0 0 17 17" fill="none" xmlns="http://www.w3.org/2000/svg">
<path d="M6.66667 0C2.99266 0 0 2.99266 0 6.66667C0 10.3407 2.99266 13.3333 6.66667 13.3333C8.26434 13.3333 9.73159 12.766 10.8815 11.8242L14.862 15.8047C14.9234 15.8687 14.997 15.9198 15.0784 15.9549C15.1598 15.9901 15.2474 16.0087 15.3361 16.0096C15.4248 16.0105 15.5128 15.9937 15.5949 15.9602C15.6771 15.9267 15.7517 15.8771 15.8144 15.8144C15.8771 15.7517 15.9267 15.6771 15.9602 15.5949C15.9937 15.5128 16.0105 15.4248 16.0096 15.3361C16.0087 15.2474 15.9901 15.1598 15.9549 15.0784C15.9198 14.997 15.8687 14.9234 15.8047 14.862L11.8242 10.8815C12.766 9.73159 13.3333 8.26434 13.3333 6.66667C13.3333 2.99266 10.3407 0 6.66667 0ZM6.66667 1.33333C9.62008 1.33333 12 3.71325 12 6.66667C12 9.62008 9.62008 12 6.66667 12C3.71325 12 1.33333 9.62008 1.33333 6.66667C1.33333 3.71325 3.71325 1.33333 6.66667 1.33333Z" fill="black" fill-opacity="0.3"/>
</svg>
