<svg width="30" height="30" viewBox="0 0 30 30" fill="none" xmlns="http://www.w3.org/2000/svg">
<path d="M23 9.53267C22.4018 9.80043 21.7991 9.99893 21.1339 10.0636C21.7991 9.66655 22.3348 8.99716 22.5982 8.26776C21.933 8.66477 21.2679 8.93253 20.5357 9.06641C19.8661 8.40163 19 8 18.067 8C16.2679 8 14.7991 9.46804 14.7991 11.2685C14.7991 11.5316 14.7991 11.7994 14.8661 12.0025C11.4286 12.0025 9.07143 9.99893 7.47321 8C7.13839 8.46626 7.00446 9.06641 7.00446 9.66655C7.00446 10.7976 7.60714 11.7994 8.47321 12.3995C7.9375 12.3349 7.40625 12.201 7.00446 12.0025C7.00446 12.0025 7.00446 12.0025 7.00446 12.0671C7.00446 13.669 8.13839 14.9986 9.60714 15.2663C9.33929 15.331 9.07143 15.4002 8.73661 15.4002C8.54018 15.4002 8.33929 15.4002 8.13839 15.3356C8.54018 16.6697 10.4018 18.2024 11.8661 18.2024C10.7321 19.0657 9.67857 19.8182 7.57143 19.8182C7.30357 19.8182 7.51786 19.8182 7 19.8182C8.46429 20.7507 10.2009 21 12 21C18.067 21 21.3348 16.0004 21.3348 11.6655C21.3348 11.5316 21.3348 11.4023 21.3348 11.2685C22 10.7976 22.5357 10.2021 23 9.53267Z" fill="white"/>
</svg>
