<?xml version="1.0" standalone="no"?>
<!DOCTYPE svg PUBLIC "-//W3C//DTD SVG 1.1//EN" "http://www.w3.org/Graphics/SVG/1.1/DTD/svg11.dtd" >
<svg xmlns="http://www.w3.org/2000/svg" xmlns:xlink="http://www.w3.org/1999/xlink" version="1.1">
<metadata>
Created by FontForge 20170910 at Tue Jun  5 17:52:04 2018
 By Jimmy Wärting
(c) 2015-2017 Apple Inc. All rights reserved.
</metadata>
<defs>
<font id="SFProText-Medium" horiz-adv-x="1800" >
  <font-face 
    font-family="SF Pro Text"
    font-weight="500"
    font-stretch="normal"
    units-per-em="2048"
    panose-1="0 0 6 0 0 0 0 0 0 0"
    ascent="1638"
    descent="-410"
    x-height="1087"
    cap-height="1443"
    bbox="-897 -603 2728 2212"
    underline-thickness="154"
    underline-position="-373"
    stemh="193"
    stemv="215"
    unicode-range="U+0020-1F189"
  />
<missing-glyph horiz-adv-x="2048" 
d="M100 -494v247h1848v-247h-1848zM100 -55v247h1848v-247h-1848zM100 385v247h1848v-247h-1848zM100 824v247h1848v-247h-1848zM100 1264v247h1848v-247h-1848zM100 1703v247h1848v-247h-1848z" />
    <glyph glyph-name="uni24B6" unicode="A&#x20dd;" 
d="M808 688h184l-86 266h-12zM725 408h-156l240 693h182l240 -693h-156l-53 163h-244zM900 99c349 0 619 278 619 621s-270 621 -619 621s-619 -278 -619 -621s270 -621 619 -621zM900 -52c-427 0 -772 345 -772 773c0 427 345 773 772 773s772 -346 772 -773
c0 -428 -345 -773 -772 -773z" />
    <glyph glyph-name="uni24B7" unicode="B&#x20dd;" 
d="M651 385v693h312c131 0 213 -65 213 -171c0 -81 -52 -134 -126 -151v-6c93 -11 162 -70 162 -171c0 -120 -102 -194 -248 -194h-313zM801 967v-174h91c93 0 135 31 135 89c0 52 -38 85 -103 85h-123zM801 693v-193h102c109 0 154 31 154 94c0 61 -45 99 -125 99h-131z
M900 99c349 0 619 278 619 621s-270 621 -619 621s-619 -278 -619 -621s270 -621 619 -621zM900 -52c-427 0 -772 345 -772 773c0 427 345 773 772 773s772 -346 772 -773c0 -428 -345 -773 -772 -773z" />
    <glyph glyph-name="uni24B8" unicode="C&#x20dd;" 
d="M1054 619h152c-18 -147 -138 -246 -307 -246c-194 0 -329 140 -329 358s135 359 329 359c173 0 292 -102 308 -253h-149c-9 71 -75 122 -157 122c-106 0 -176 -89 -176 -228s70 -227 176 -227c80 0 144 48 153 115zM900 99c349 0 619 278 619 621s-270 621 -619 621
s-619 -278 -619 -621s270 -621 619 -621zM900 -52c-427 0 -772 345 -772 773c0 427 345 773 772 773s772 -346 772 -773c0 -428 -345 -773 -772 -773z" />
    <glyph glyph-name="uni24B9" unicode="D&#x20dd;" 
d="M646 1078h272c216 0 323 -124 323 -345c0 -222 -108 -348 -323 -348h-272v693zM799 952v-440h97c128 0 187 71 187 219s-59 221 -187 221h-97zM900 99c349 0 619 278 619 621s-270 621 -619 621s-619 -278 -619 -621s270 -621 619 -621zM900 -52
c-427 0 -772 345 -772 773c0 427 345 773 772 773s772 -346 772 -773c0 -428 -345 -773 -772 -773z" />
    <glyph glyph-name="uni24BA" unicode="E&#x20dd;" 
d="M1143 511v-126h-472v693h472v-125h-321v-161h302v-114h-302v-167h321zM900 99c349 0 619 278 619 621s-270 621 -619 621s-619 -278 -619 -621s270 -621 619 -621zM900 -52c-427 0 -772 345 -772 773c0 427 345 773 772 773s772 -346 772 -773
c0 -428 -345 -773 -772 -773z" />
    <glyph glyph-name="uni24BB" unicode="F&#x20dd;" 
d="M852 385h-155v693h468v-127h-313v-173h286v-126h-286v-267zM900 99c349 0 619 278 619 621s-270 621 -619 621s-619 -278 -619 -621s270 -621 619 -621zM900 -52c-427 0 -772 345 -772 773c0 427 345 773 772 773s772 -346 772 -773c0 -428 -345 -773 -772 -773z" />
    <glyph glyph-name="uni24BC" unicode="G&#x20dd;" 
d="M1057 608v44h-148v108h293v-121c0 -154 -106 -266 -302 -266c-197 0 -330 144 -330 358s133 359 330 359c165 0 288 -94 306 -237h-151c-10 65 -73 111 -152 111c-108 0 -178 -92 -178 -233s70 -234 178 -234c100 0 154 46 154 111zM900 99c349 0 619 278 619 621
s-270 621 -619 621s-619 -278 -619 -621s270 -621 619 -621zM900 -52c-427 0 -772 345 -772 773c0 427 345 773 772 773s772 -346 772 -773c0 -428 -345 -773 -772 -773z" />
    <glyph glyph-name="uni24BD" unicode="H&#x20dd;" 
d="M1198 385h-151v287h-293v-287h-151v693h151v-276h293v276h151v-693zM900 99c349 0 619 278 619 621s-270 621 -619 621s-619 -278 -619 -621s270 -621 619 -621zM900 -52c-427 0 -772 345 -772 773c0 427 345 773 772 773s772 -346 772 -773c0 -428 -345 -773 -772 -773z
" />
    <glyph glyph-name="uni24BE" unicode="I&#x20dd;" 
d="M981 385h-162v693h162v-693zM900 99c349 0 619 278 619 621s-270 621 -619 621s-619 -278 -619 -621s270 -621 619 -621zM900 -52c-427 0 -772 345 -772 773c0 427 345 773 772 773s772 -346 772 -773c0 -428 -345 -773 -772 -773z" />
    <glyph glyph-name="uni24BF" unicode="J&#x20dd;" 
d="M624 596h150c1 -54 36 -87 91 -87c63 0 95 37 95 104v460h155v-459c0 -157 -94 -246 -248 -246c-156 0 -243 97 -243 228zM900 99c349 0 619 278 619 621s-270 621 -619 621s-619 -278 -619 -621s270 -621 619 -621zM900 -52c-427 0 -772 345 -772 773
c0 427 345 773 772 773s772 -346 772 -773c0 -428 -345 -773 -772 -773z" />
    <glyph glyph-name="uni24C0" unicode="&#x212a;&#x20dd;" 
d="M1222 1078l-251 -305l260 -388h-182l-193 287l-73 -80v-207h-148v693h148v-298h8l261 298h170zM900 99c349 0 619 278 619 621s-270 621 -619 621s-619 -278 -619 -621s270 -621 619 -621zM900 -52c-427 0 -772 345 -772 773c0 427 345 773 772 773s772 -346 772 -773
c0 -428 -345 -773 -772 -773z" />
    <glyph glyph-name="uni24C1" unicode="L&#x20dd;" 
d="M1173 525v-135h-461v693h157v-558h304zM900 99c349 0 619 278 619 621s-270 621 -619 621s-619 -278 -619 -621s270 -621 619 -621zM900 -52c-427 0 -772 345 -772 773c0 427 345 773 772 773s772 -346 772 -773c0 -428 -345 -773 -772 -773z" />
    <glyph glyph-name="uni24C2" unicode="M&#x20dd;" 
d="M679 385h-130v693h153l197 -496h4l197 496h151v-693h-129v450h-10l-165 -421h-93l-166 421h-9v-450zM900 99c349 0 619 278 619 621s-270 621 -619 621s-619 -278 -619 -621s270 -621 619 -621zM900 -52c-427 0 -772 345 -772 773c0 427 345 773 772 773
s772 -346 772 -773c0 -428 -345 -773 -772 -773z" />
    <glyph glyph-name="uni24C3" unicode="N&#x20dd;" 
d="M749 385h-141v693h123l311 -437h9v437h141v-693h-123l-312 441h-8v-441zM900 99c349 0 619 278 619 621s-270 621 -619 621s-619 -278 -619 -621s270 -621 619 -621zM900 -52c-427 0 -772 345 -772 773c0 427 345 773 772 773s772 -346 772 -773
c0 -428 -345 -773 -772 -773z" />
    <glyph glyph-name="uni24C4" unicode="O&#x20dd;" 
d="M900 504c97 0 175 78 175 227c0 150 -78 228 -175 228s-175 -78 -175 -228c0 -149 78 -227 175 -227zM900 373c-184 0 -331 129 -331 358c0 230 147 359 331 359s331 -129 331 -359c0 -229 -147 -358 -331 -358zM900 99c349 0 619 278 619 621s-270 621 -619 621
s-619 -278 -619 -621s270 -621 619 -621zM900 -52c-427 0 -772 345 -772 773c0 427 345 773 772 773s772 -346 772 -773c0 -428 -345 -773 -772 -773z" />
    <glyph glyph-name="uni24C5" unicode="P&#x20dd;" 
d="M966 1078c155 0 247 -100 247 -238c0 -139 -93 -236 -249 -236h-138v-219h-155v693h295zM1058 840c0 73 -43 114 -119 114h-117v-228h117c76 0 119 40 119 114zM900 99c349 0 619 278 619 621s-270 621 -619 621s-619 -278 -619 -621s270 -621 619 -621zM900 -52
c-427 0 -772 345 -772 773c0 427 345 773 772 773s772 -346 772 -773c0 -428 -345 -773 -772 -773z" />
    <glyph glyph-name="uni24C6" unicode="Q&#x20dd;" 
d="M1207 320h-150l-49 69c-34 -10 -70 -16 -108 -16c-184 0 -331 129 -331 358c0 230 147 359 331 359s331 -129 331 -359c0 -126 -46 -221 -117 -282zM900 504c15 0 29 2 42 6l-73 106h120l36 -45c31 37 50 91 50 160c0 150 -78 228 -175 228s-175 -78 -175 -228
c0 -149 78 -227 175 -227zM900 99c349 0 619 278 619 621s-270 621 -619 621s-619 -278 -619 -621s270 -621 619 -621zM900 -52c-427 0 -772 345 -772 773c0 427 345 773 772 773s772 -346 772 -773c0 -428 -345 -773 -772 -773z" />
    <glyph glyph-name="uni24C7" unicode="R&#x20dd;" 
d="M935 1078c162 0 258 -84 258 -220c0 -98 -60 -167 -134 -193l147 -280h-168l-124 253h-124v-253h-148v693h293zM790 750h122c77 0 124 35 124 101c0 69 -48 106 -121 106h-125v-207zM900 99c349 0 619 278 619 621s-270 621 -619 621s-619 -278 -619 -621
s270 -621 619 -621zM900 -52c-427 0 -772 345 -772 773c0 427 345 773 772 773s772 -346 772 -773c0 -428 -345 -773 -772 -773z" />
    <glyph glyph-name="uni24C8" unicode="S&#x20dd;" 
d="M613 583h150c6 -54 61 -90 142 -90c80 0 132 34 132 87c0 42 -31 65 -113 83l-107 21c-121 25 -187 92 -187 193c0 129 110 214 274 214c157 0 267 -82 272 -206h-146c-5 53 -55 87 -127 87s-120 -34 -120 -84c0 -37 32 -63 99 -76l110 -22c133 -27 195 -90 195 -196
c0 -136 -112 -221 -290 -221c-170 0 -280 81 -284 210zM900 99c349 0 619 278 619 621s-270 621 -619 621s-619 -278 -619 -621s270 -621 619 -621zM900 -52c-427 0 -772 345 -772 773c0 427 345 773 772 773s772 -346 772 -773c0 -428 -345 -773 -772 -773z" />
    <glyph glyph-name="uni24C9" unicode="T&#x20dd;" 
d="M979 364h-158v561h-205v132h568v-132h-205v-561zM900 99c349 0 619 278 619 621s-270 621 -619 621s-619 -278 -619 -621s270 -621 619 -621zM900 -52c-427 0 -772 345 -772 773c0 427 345 773 772 773s772 -346 772 -773c0 -428 -345 -773 -772 -773z" />
    <glyph glyph-name="uni24CA" unicode="U&#x20dd;" 
d="M900 484c85 0 141 48 141 133v440h154v-454c0 -148 -116 -251 -295 -251s-295 103 -295 251v454h154v-440c0 -85 56 -133 141 -133zM900 99c349 0 619 278 619 621s-270 621 -619 621s-619 -278 -619 -621s270 -621 619 -621zM900 -52c-427 0 -772 345 -772 773
c0 427 345 773 772 773s772 -346 772 -773c0 -428 -345 -773 -772 -773z" />
    <glyph glyph-name="uni24CB" unicode="V&#x20dd;" 
d="M802 362l-236 693h176l154 -530h8l154 530h176l-236 -693h-196zM900 99c349 0 619 278 619 621s-270 621 -619 621s-619 -278 -619 -621s270 -621 619 -621zM900 -52c-427 0 -772 345 -772 773c0 427 345 773 772 773s772 -346 772 -773c0 -428 -345 -773 -772 -773z" />
    <glyph glyph-name="uni24CC" unicode="W&#x20dd;" 
d="M898 831l-128 -467h-136l-184 693h156l104 -494h7l122 494h122l122 -494h7l104 494h156l-183 -693h-137l-128 467h-4zM900 99c349 0 619 278 619 621s-270 621 -619 621s-619 -278 -619 -621s270 -621 619 -621zM900 -52c-427 0 -772 345 -772 773c0 427 345 773 772 773
s772 -346 772 -773c0 -428 -345 -773 -772 -773z" />
    <glyph glyph-name="uni24CD" unicode="X&#x20dd;" 
d="M1221 1078l-227 -347l225 -346h-174l-146 240h-7l-148 -240h-169l225 349l-223 344h179l144 -241h7l144 241h170zM900 99c349 0 619 278 619 621s-270 621 -619 621s-619 -278 -619 -621s270 -621 619 -621zM900 -52c-427 0 -772 345 -772 773c0 427 345 773 772 773
s772 -346 772 -773c0 -428 -345 -773 -772 -773z" />
    <glyph glyph-name="uni24CE" unicode="Y&#x20dd;" 
d="M980 376h-159v251l-241 441h172l146 -287h6l147 287h169l-240 -439v-253zM900 99c349 0 619 278 619 621s-270 621 -619 621s-619 -278 -619 -621s270 -621 619 -621zM900 -52c-427 0 -772 345 -772 773c0 427 345 773 772 773s772 -346 772 -773
c0 -428 -345 -773 -772 -773z" />
    <glyph glyph-name="uni24CF" unicode="Z&#x20dd;" 
d="M632 385v104l338 452v8h-331v129h521v-104l-338 -451v-9h348v-129h-538zM900 99c349 0 619 278 619 621s-270 621 -619 621s-619 -278 -619 -621s270 -621 619 -621zM900 -52c-427 0 -772 345 -772 773c0 427 345 773 772 773s772 -346 772 -773
c0 -428 -345 -773 -772 -773z" />
    <glyph glyph-name="uni24EA" unicode="&#x23;&#x20dd;" 
d="M900 505c79 0 129 77 129 226c0 150 -50 227 -129 227s-129 -77 -129 -227c0 -149 50 -226 129 -226zM899 373c-162 0 -276 132 -276 358c0 227 114 358 276 358c163 0 278 -131 278 -358c0 -226 -115 -358 -278 -358zM900 99c349 0 619 278 619 621s-270 621 -619 621
s-619 -278 -619 -621s270 -621 619 -621zM900 -52c-427 0 -772 345 -772 773c0 427 345 773 772 773s772 -346 772 -773c0 -428 -345 -773 -772 -773z" />
    <glyph glyph-name="uni2460" unicode="&#x31;&#x20dd;" 
d="M1012 385h-156v545h-7l-163 -111v143l170 116h156v-693zM900 99c349 0 619 278 619 621s-270 621 -619 621s-619 -278 -619 -621s270 -621 619 -621zM900 -52c-427 0 -772 345 -772 773c0 427 345 773 772 773s772 -346 772 -773c0 -428 -345 -773 -772 -773z" />
    <glyph glyph-name="uni2461" unicode="&#x32;&#x20dd;" 
d="M794 864h-146v4c0 118 86 222 253 222c151 0 249 -84 249 -199c0 -86 -57 -146 -128 -217l-154 -154v-7h295v-128h-508v99l262 260c42 43 80 82 80 134c0 51 -43 86 -100 86c-66 0 -103 -44 -103 -96v-4zM900 99c349 0 619 278 619 621s-270 621 -619 621
s-619 -278 -619 -621s270 -621 619 -621zM900 -52c-427 0 -772 345 -772 773c0 427 345 773 772 773s772 -346 772 -773c0 -428 -345 -773 -772 -773z" />
    <glyph glyph-name="uni2462" unicode="&#x33;&#x20dd;" 
d="M822 680v120h74c61 0 106 37 106 88c-1 49 -45 83 -106 83c-64 0 -106 -38 -109 -83h-144c4 118 94 201 256 202c154 0 252 -75 254 -182c2 -90 -77 -146 -134 -155v-8c69 -7 153 -59 155 -165c2 -129 -120 -207 -278 -207c-164 0 -262 88 -265 203h142
c5 -47 54 -82 123 -82c76 0 125 39 125 94c-1 54 -48 92 -122 92h-77zM900 99c349 0 619 278 619 621s-270 621 -619 621s-619 -278 -619 -621s270 -621 619 -621zM900 -52c-427 0 -772 345 -772 773c0 427 345 773 772 773s772 -346 772 -773c0 -428 -345 -773 -772 -773z
" />
    <glyph glyph-name="uni2463" unicode="&#x34;&#x20dd;" 
d="M856 1078h219v-445h92v-124h-92v-124h-139v124h-350v126c83 149 176 292 270 443zM725 633h211v329h-9c-72 -111 -141 -218 -202 -326v-3zM900 99c349 0 619 278 619 621s-270 621 -619 621s-619 -278 -619 -621s270 -621 619 -621zM900 -52c-427 0 -772 345 -772 773
c0 427 345 773 772 773s772 -346 772 -773c0 -428 -345 -773 -772 -773z" />
    <glyph glyph-name="uni2464" unicode="&#x35;&#x20dd;" 
d="M644 575h144c11 -52 64 -77 121 -77c63 0 123 45 123 121c0 68 -57 113 -124 113c-59 0 -97 -31 -112 -59h-137l30 408h451v-122h-329l-16 -174h8c16 27 68 62 148 62c128 0 231 -83 231 -224c0 -149 -110 -248 -277 -248c-152 0 -256 85 -261 200zM900 99
c349 0 619 278 619 621s-270 621 -619 621s-619 -278 -619 -621s270 -621 619 -621zM900 -52c-427 0 -772 345 -772 773c0 427 345 773 772 773s772 -346 772 -773c0 -428 -345 -773 -772 -773z" />
    <glyph glyph-name="uni2465" unicode="&#x36;&#x20dd;" 
d="M910 374c-170 0 -294 117 -294 354c0 224 114 362 295 362c141 0 246 -79 263 -194h-155c-10 44 -51 71 -106 71c-94 0 -148 -83 -148 -225h8c33 64 97 99 179 99c133 0 231 -94 231 -224c0 -142 -113 -243 -273 -243zM909 497c70 0 122 51 122 117
c0 68 -49 115 -121 115c-73 0 -123 -49 -123 -114c0 -66 52 -118 122 -118zM900 99c349 0 619 278 619 621s-270 621 -619 621s-619 -278 -619 -621s270 -621 619 -621zM900 -52c-427 0 -772 345 -772 773c0 427 345 773 772 773s772 -346 772 -773
c0 -428 -345 -773 -772 -773z" />
    <glyph glyph-name="uni2466" unicode="&#x37;&#x20dd;" 
d="M660 1071h509v-130l-288 -563h-164l295 558v6h-352v129zM900 99c349 0 619 278 619 621s-270 621 -619 621s-619 -278 -619 -621s270 -621 619 -621zM900 -52c-427 0 -772 345 -772 773c0 427 345 773 772 773s772 -346 772 -773c0 -428 -345 -773 -772 -773z" />
    <glyph glyph-name="uni2467" unicode="&#x38;&#x20dd;" 
d="M900 484c75 0 129 44 129 105s-53 105 -129 105s-130 -45 -130 -105c0 -61 54 -105 130 -105zM900 797c63 0 108 39 108 92c0 52 -45 90 -108 90s-108 -38 -108 -90c0 -53 45 -92 108 -92zM898 373c-171 0 -284 80 -284 205c0 86 61 153 153 170v6
c-79 24 -124 78 -124 152c0 109 105 184 257 184s257 -75 257 -184c0 -73 -46 -129 -124 -152v-6c92 -17 153 -84 153 -170c0 -124 -116 -205 -288 -205zM900 99c349 0 619 278 619 621s-270 621 -619 621s-619 -278 -619 -621s270 -621 619 -621zM900 -52
c-427 0 -772 345 -772 773c0 427 345 773 772 773s772 -346 772 -773c0 -428 -345 -773 -772 -773z" />
    <glyph glyph-name="uni2468" unicode="&#x39;&#x20dd;" 
d="M887 374c-136 0 -242 78 -262 193h155c12 -42 56 -70 109 -70c92 0 147 86 145 224h-8c-32 -62 -97 -98 -179 -98c-133 0 -231 94 -231 224c0 142 113 243 273 243c183 0 295 -134 295 -353c0 -226 -112 -363 -297 -363zM890 737c72 0 122 48 122 113
c0 66 -51 117 -122 117s-122 -50 -122 -116c0 -67 50 -114 122 -114zM900 99c349 0 619 278 619 621s-270 621 -619 621s-619 -278 -619 -621s270 -621 619 -621zM900 -52c-427 0 -772 345 -772 773c0 427 345 773 772 773s772 -346 772 -773c0 -428 -345 -773 -772 -773z
" />
    <glyph glyph-name="plus.uc.whitecircle" unicode="&#x2b;&#x20dd;" 
d="M966 664v-214h-132v214h-209v132h209v208h132v-208h209v-132h-209zM900 99c349 0 619 278 619 621s-270 621 -619 621s-619 -278 -619 -621s270 -621 619 -621zM900 -52c-427 0 -772 345 -772 773c0 427 345 773 772 773s772 -346 772 -773c0 -428 -345 -773 -772 -773z
" />
    <glyph glyph-name="minus.uc.whitecircle" unicode="&#x2212;&#x20dd;" 
d="M1159 659h-518v136h518v-136zM900 99c349 0 619 278 619 621s-270 621 -619 621s-619 -278 -619 -621s270 -621 619 -621zM900 -52c-427 0 -772 345 -772 773c0 427 345 773 772 773s772 -346 772 -773c0 -428 -345 -773 -772 -773z" />
    <glyph glyph-name="multiply.uc.whitecircle" unicode="&#xd7;&#x20dd;" 
d="M900 823l161 156l94 -96l-161 -156l161 -156l-94 -95l-161 156l-162 -156l-93 95l162 156l-162 156l93 96zM900 99c349 0 619 278 619 621s-270 621 -619 621s-619 -278 -619 -621s270 -621 619 -621zM900 -52c-427 0 -772 345 -772 773c0 427 345 773 772 773
s772 -346 772 -773c0 -428 -345 -773 -772 -773z" />
    <glyph glyph-name="divide.uc.whitecircle" unicode="&#xf7;&#x20dd;" 
d="M1159 671h-518v112h518v-112zM814 941c0 48 37 81 85 81c51 0 88 -33 88 -81c0 -46 -38 -80 -88 -80c-48 0 -85 34 -85 80zM814 516c0 48 37 82 86 82c50 0 87 -34 87 -82c0 -46 -37 -79 -87 -79c-49 0 -86 33 -86 79zM900 99c349 0 619 278 619 621s-270 621 -619 621
s-619 -278 -619 -621s270 -621 619 -621zM900 -52c-427 0 -772 345 -772 773c0 427 345 773 772 773s772 -346 772 -773c0 -428 -345 -773 -772 -773z" />
    <glyph glyph-name="equal.uc.whitecircle" unicode="&#x3d;&#x20dd;" 
d="M1152 544h-504v121h504v-121zM1152 788h-504v122h504v-122zM900 99c349 0 619 278 619 621s-270 621 -619 621s-619 -278 -619 -621s270 -621 619 -621zM900 -52c-427 0 -772 345 -772 773c0 427 345 773 772 773s772 -346 772 -773c0 -428 -345 -773 -772 -773z" />
    <glyph glyph-name="greater.uc.whitecircle" unicode="&#x3e;&#x20dd;" 
d="M1174 770v-96l-497 -249v151l318 146v6l-318 148v154zM900 99c349 0 619 278 619 621s-270 621 -619 621s-619 -278 -619 -621s270 -621 619 -621zM900 -52c-427 0 -772 345 -772 773c0 427 345 773 772 773s772 -346 772 -773c0 -428 -345 -773 -772 -773z" />
    <glyph glyph-name="less.uc.whitecircle" unicode="&#x3c;&#x20dd;" 
d="M627 674v96l496 260v-154l-319 -148v-6l319 -146v-151zM900 99c349 0 619 278 619 621s-270 621 -619 621s-619 -278 -619 -621s270 -621 619 -621zM900 -52c-427 0 -772 345 -772 773c0 427 345 773 772 773s772 -346 772 -773c0 -428 -345 -773 -772 -773z" />
    <glyph glyph-name="numbersign.whitecircle" unicode="&#x30;&#x20dd;" 
d="M1190 791h-108l-26 -119h104l-22 -109h-104l-38 -181h-113l39 181h-118l-38 -181h-112l38 181h-102l21 109h102l27 119h-100l21 109h101l36 174h112l-36 -174h116l37 174h112l-36 -174h107zM846 798l-31 -140h135l30 140h-134zM900 99c349 0 619 278 619 621
s-270 621 -619 621s-619 -278 -619 -621s270 -621 619 -621zM900 -52c-427 0 -772 345 -772 773c0 427 345 773 772 773s772 -346 772 -773c0 -428 -345 -773 -772 -773z" />
    <glyph glyph-name="uni25BC.whitecircle" unicode="&#x25bc;&#x20dd;" 
d="M1219 946l-319 -555l-318 555h637zM900 99c349 0 619 278 619 621s-270 621 -619 621s-619 -278 -619 -621s270 -621 619 -621zM900 -52c-427 0 -772 345 -772 773c0 427 345 773 772 773s772 -346 772 -773c0 -428 -345 -773 -772 -773z" />
    <glyph glyph-name="uni25B2.whitecircle" unicode="&#x25b2;&#x20dd;" 
d="M1219 509h-637l318 555zM900 99c349 0 619 278 619 621s-270 621 -619 621s-619 -278 -619 -621s270 -621 619 -621zM900 -52c-427 0 -772 345 -772 773c0 427 345 773 772 773s772 -346 772 -773c0 -428 -345 -773 -772 -773z" />
    <glyph glyph-name="uni25C0.whitecircle" unicode="&#x25c0;&#x20dd;" 
d="M1117 408l-552 321l552 319v-640zM900 99c349 0 619 278 619 621s-270 621 -619 621s-619 -278 -619 -621s270 -621 619 -621zM900 -52c-427 0 -772 345 -772 773c0 427 345 773 772 773s772 -346 772 -773c0 -428 -345 -773 -772 -773z" />
    <glyph glyph-name="uni25B6.whitecircle" unicode="&#x25b6;&#x20dd;" 
d="M683 408v640l552 -319zM900 99c349 0 619 278 619 621s-270 621 -619 621s-619 -278 -619 -621s270 -621 619 -621zM900 -52c-427 0 -772 345 -772 773c0 427 345 773 772 773s772 -346 772 -773c0 -428 -345 -773 -772 -773z" />
    <glyph glyph-name="question.whitecircle" unicode="&#x3f;&#x20dd;" 
d="M790 457c0 51 40 83 98 83c60 0 99 -32 99 -83c0 -48 -39 -82 -99 -82c-58 0 -98 34 -98 82zM815 606c0 2 -1 29 -1 32c-3 72 36 118 93 156c52 36 82 58 82 101c0 52 -44 76 -92 76c-62 0 -96 -40 -96 -90h-139c-3 150 116 209 244 209c129 0 236 -65 236 -189
c0 -84 -49 -126 -103 -163c-67 -47 -89 -62 -89 -112v-20h-135zM900 99c349 0 619 278 619 621s-270 621 -619 621s-619 -278 -619 -621s270 -621 619 -621zM900 -52c-427 0 -772 345 -772 773c0 427 345 773 772 773s772 -346 772 -773c0 -428 -345 -773 -772 -773z" />
    <glyph glyph-name="exclam.whitecircle" unicode="&#x21;&#x20dd;" 
d="M803 457c0 51 39 84 98 84c60 0 98 -33 98 -84c0 -48 -38 -82 -98 -82c-59 0 -98 34 -98 82zM818 1078h167l-18 -455h-131zM900 99c349 0 619 278 619 621s-270 621 -619 621s-619 -278 -619 -621s270 -621 619 -621zM900 -52c-427 0 -772 345 -772 773
c0 427 345 773 772 773s772 -346 772 -773c0 -428 -345 -773 -772 -773z" />
    <glyph glyph-name="uni2717.whitecircle" unicode="&#x2717;&#x20dd;" 
d="M904 824l247 242l95 -99l-246 -243l246 -243l-95 -101l-247 242l-247 -242l-96 100l246 244l-247 243l95 100zM900 99c349 0 619 278 619 621s-270 621 -619 621s-619 -278 -619 -621s270 -621 619 -621zM900 -52c-427 0 -772 345 -772 773c0 427 345 773 772 773
s772 -346 772 -773c0 -428 -345 -773 -772 -773z" />
    <glyph glyph-name="uni2713.whitecircle" unicode="&#x2713;&#x20dd;" 
d="M1325 931l-545 -539l-296 295l101 104l195 -193l445 440zM900 99c349 0 619 278 619 621s-270 621 -619 621s-619 -278 -619 -621s270 -621 619 -621zM900 -52c-427 0 -772 345 -772 773c0 427 345 773 772 773s772 -346 772 -773c0 -428 -345 -773 -772 -773z" />
    <glyph glyph-name="uni1F130" unicode="A&#x20de;" 
d="M808 673h184l-86 266h-12zM725 393h-156l240 692h182l240 -692h-156l-53 163h-244zM415 1467h970c144 0 259 -114 259 -255v-980c0 -141 -115 -255 -259 -255h-970c-143 0 -259 114 -259 255v980c0 141 116 255 259 255zM1497 1193c0 73 -63 134 -140 134h-914
c-76 0 -140 -60 -140 -134v-942c0 -73 64 -134 140 -134h914c76 0 140 61 140 134v942z" />
    <glyph glyph-name="uni1F131" unicode="B&#x20de;" 
d="M651 385v693h312c131 0 213 -65 213 -171c0 -81 -52 -134 -126 -151v-6c93 -11 162 -70 162 -171c0 -120 -102 -194 -248 -194h-313zM801 967v-174h91c93 0 135 31 135 89c0 52 -38 85 -103 85h-123zM801 693v-193h102c109 0 154 31 154 94c0 61 -45 99 -125 99h-131z
M415 1467h970c144 0 259 -114 259 -255v-980c0 -141 -115 -255 -259 -255h-970c-143 0 -259 114 -259 255v980c0 141 116 255 259 255zM1497 1193c0 73 -63 134 -140 134h-914c-76 0 -140 -60 -140 -134v-942c0 -73 64 -134 140 -134h914c76 0 140 61 140 134v942z" />
    <glyph glyph-name="uni1F132" unicode="C&#x20de;" 
d="M1054 619h152c-18 -147 -138 -246 -307 -246c-194 0 -329 140 -329 358s135 359 329 359c173 0 292 -102 308 -253h-149c-9 71 -75 122 -157 122c-106 0 -176 -89 -176 -228s70 -227 176 -227c80 0 144 48 153 115zM415 1467h970c144 0 259 -114 259 -255v-980
c0 -141 -115 -255 -259 -255h-970c-143 0 -259 114 -259 255v980c0 141 116 255 259 255zM1497 1193c0 73 -63 134 -140 134h-914c-76 0 -140 -60 -140 -134v-942c0 -73 64 -134 140 -134h914c76 0 140 61 140 134v942z" />
    <glyph glyph-name="uni1F133" unicode="D&#x20de;" 
d="M628 1078h271c216 0 323 -124 323 -345c0 -222 -108 -348 -323 -348h-271v693zM780 952v-440h97c128 0 187 71 187 219s-59 221 -187 221h-97zM415 1467h970c144 0 259 -114 259 -255v-980c0 -141 -115 -255 -259 -255h-970c-143 0 -259 114 -259 255v980
c0 141 116 255 259 255zM1497 1193c0 73 -63 134 -140 134h-914c-76 0 -140 -60 -140 -134v-942c0 -73 64 -134 140 -134h914c76 0 140 61 140 134v942z" />
    <glyph glyph-name="uni1F134" unicode="E&#x20de;" 
d="M1143 511v-126h-472v693h472v-125h-321v-161h302v-114h-302v-167h321zM415 1467h970c144 0 259 -114 259 -255v-980c0 -141 -115 -255 -259 -255h-970c-143 0 -259 114 -259 255v980c0 141 116 255 259 255zM1497 1193c0 73 -63 134 -140 134h-914
c-76 0 -140 -60 -140 -134v-942c0 -73 64 -134 140 -134h914c76 0 140 61 140 134v942z" />
    <glyph glyph-name="uni1F135" unicode="F&#x20de;" 
d="M852 385h-155v693h468v-127h-313v-173h286v-126h-286v-267zM415 1467h970c144 0 259 -114 259 -255v-980c0 -141 -115 -255 -259 -255h-970c-143 0 -259 114 -259 255v980c0 141 116 255 259 255zM1497 1193c0 73 -63 134 -140 134h-914c-76 0 -140 -60 -140 -134v-942
c0 -73 64 -134 140 -134h914c76 0 140 61 140 134v942z" />
    <glyph glyph-name="uni1F136" unicode="G&#x20de;" 
d="M1057 608v44h-148v108h293v-121c0 -154 -106 -266 -302 -266c-197 0 -330 144 -330 358s133 359 330 359c165 0 288 -94 306 -237h-151c-10 65 -73 111 -152 111c-108 0 -178 -92 -178 -233s70 -234 178 -234c100 0 154 46 154 111zM415 1467h970
c144 0 259 -114 259 -255v-980c0 -141 -115 -255 -259 -255h-970c-143 0 -259 114 -259 255v980c0 141 116 255 259 255zM1497 1193c0 73 -63 134 -140 134h-914c-76 0 -140 -60 -140 -134v-942c0 -73 64 -134 140 -134h914c76 0 140 61 140 134v942z" />
    <glyph glyph-name="uni1F137" unicode="H&#x20de;" 
d="M1198 385h-151v287h-293v-287h-151v693h151v-276h293v276h151v-693zM415 1467h970c144 0 259 -114 259 -255v-980c0 -141 -115 -255 -259 -255h-970c-143 0 -259 114 -259 255v980c0 141 116 255 259 255zM1497 1193c0 73 -63 134 -140 134h-914
c-76 0 -140 -60 -140 -134v-942c0 -73 64 -134 140 -134h914c76 0 140 61 140 134v942z" />
    <glyph glyph-name="uni1F138" unicode="I&#x20de;" 
d="M981 385h-162v693h162v-693zM415 1467h970c144 0 259 -114 259 -255v-980c0 -141 -115 -255 -259 -255h-970c-143 0 -259 114 -259 255v980c0 141 116 255 259 255zM1497 1193c0 73 -63 134 -140 134h-914c-76 0 -140 -60 -140 -134v-942c0 -73 64 -134 140 -134h914
c76 0 140 61 140 134v942z" />
    <glyph glyph-name="uni1F139" unicode="J&#x20de;" 
d="M624 596h150c1 -54 36 -87 91 -87c63 0 95 37 95 104v460h155v-459c0 -157 -94 -246 -248 -246c-156 0 -243 97 -243 228zM415 1467h970c144 0 259 -114 259 -255v-980c0 -141 -115 -255 -259 -255h-970c-143 0 -259 114 -259 255v980c0 141 116 255 259 255zM1497 1193
c0 73 -63 134 -140 134h-914c-76 0 -140 -60 -140 -134v-942c0 -73 64 -134 140 -134h914c76 0 140 61 140 134v942z" />
    <glyph glyph-name="uni1F13A" unicode="&#x212a;&#x20de;" 
d="M1222 1078l-251 -305l260 -388h-182l-193 287l-73 -80v-207h-148v693h148v-298h8l261 298h170zM415 1467h970c144 0 259 -114 259 -255v-980c0 -141 -115 -255 -259 -255h-970c-143 0 -259 114 -259 255v980c0 141 116 255 259 255zM1497 1193c0 73 -63 134 -140 134
h-914c-76 0 -140 -60 -140 -134v-942c0 -73 64 -134 140 -134h914c76 0 140 61 140 134v942z" />
    <glyph glyph-name="uni1F13B" unicode="L&#x20de;" 
d="M1181 525v-135h-461v693h157v-558h304zM415 1467h970c144 0 259 -114 259 -255v-980c0 -141 -115 -255 -259 -255h-970c-143 0 -259 114 -259 255v980c0 141 116 255 259 255zM1497 1193c0 73 -63 134 -140 134h-914c-76 0 -140 -60 -140 -134v-942
c0 -73 64 -134 140 -134h914c76 0 140 61 140 134v942z" />
    <glyph glyph-name="uni1F13C" unicode="M&#x20de;" 
d="M679 385h-130v693h153l197 -496h4l197 496h151v-693h-129v450h-10l-165 -421h-93l-166 421h-9v-450zM415 1467h970c144 0 259 -114 259 -255v-980c0 -141 -115 -255 -259 -255h-970c-143 0 -259 114 -259 255v980c0 141 116 255 259 255zM1497 1193
c0 73 -63 134 -140 134h-914c-76 0 -140 -60 -140 -134v-942c0 -73 64 -134 140 -134h914c76 0 140 61 140 134v942z" />
    <glyph glyph-name="uni1F13D" unicode="N&#x20de;" 
d="M749 385h-141v693h123l311 -437h9v437h141v-693h-123l-312 441h-8v-441zM415 1467h970c144 0 259 -114 259 -255v-980c0 -141 -115 -255 -259 -255h-970c-143 0 -259 114 -259 255v980c0 141 116 255 259 255zM1497 1193c0 73 -63 134 -140 134h-914
c-76 0 -140 -60 -140 -134v-942c0 -73 64 -134 140 -134h914c76 0 140 61 140 134v942z" />
    <glyph glyph-name="uni1F13E" unicode="O&#x20de;" 
d="M900 504c97 0 175 78 175 227c0 150 -78 228 -175 228s-175 -78 -175 -228c0 -149 78 -227 175 -227zM900 373c-184 0 -331 129 -331 358c0 230 147 359 331 359s331 -129 331 -359c0 -229 -147 -358 -331 -358zM415 1467h970c144 0 259 -114 259 -255v-980
c0 -141 -115 -255 -259 -255h-970c-143 0 -259 114 -259 255v980c0 141 116 255 259 255zM1497 1193c0 73 -63 134 -140 134h-914c-76 0 -140 -60 -140 -134v-942c0 -73 64 -134 140 -134h914c76 0 140 61 140 134v942z" />
    <glyph glyph-name="uni1F13F" unicode="P&#x20de;" 
d="M966 1078c155 0 247 -100 247 -238c0 -139 -93 -236 -249 -236h-138v-219h-155v693h295zM1058 840c0 73 -43 114 -119 114h-117v-228h117c76 0 119 40 119 114zM415 1467h970c144 0 259 -114 259 -255v-980c0 -141 -115 -255 -259 -255h-970c-143 0 -259 114 -259 255
v980c0 141 116 255 259 255zM1497 1193c0 73 -63 134 -140 134h-914c-76 0 -140 -60 -140 -134v-942c0 -73 64 -134 140 -134h914c76 0 140 61 140 134v942z" />
    <glyph glyph-name="uni1F140" unicode="Q&#x20de;" 
d="M1207 320h-150l-49 69c-34 -10 -70 -16 -108 -16c-184 0 -331 129 -331 358c0 230 147 359 331 359s331 -129 331 -359c0 -126 -46 -221 -117 -282zM900 504c15 0 29 2 42 6l-73 106h120l36 -45c31 37 50 91 50 160c0 150 -78 228 -175 228s-175 -78 -175 -228
c0 -149 78 -227 175 -227zM415 1467h970c144 0 259 -114 259 -255v-980c0 -141 -115 -255 -259 -255h-970c-143 0 -259 114 -259 255v980c0 141 116 255 259 255zM1497 1193c0 73 -63 134 -140 134h-914c-76 0 -140 -60 -140 -134v-942c0 -73 64 -134 140 -134h914
c76 0 140 61 140 134v942z" />
    <glyph glyph-name="uni1F141" unicode="R&#x20de;" 
d="M935 1078c162 0 258 -84 258 -220c0 -98 -60 -167 -134 -193l147 -280h-168l-124 253h-124v-253h-148v693h293zM790 750h122c77 0 124 35 124 101c0 69 -48 106 -121 106h-125v-207zM415 1467h970c144 0 259 -114 259 -255v-980c0 -141 -115 -255 -259 -255h-970
c-143 0 -259 114 -259 255v980c0 141 116 255 259 255zM1497 1193c0 73 -63 134 -140 134h-914c-76 0 -140 -60 -140 -134v-942c0 -73 64 -134 140 -134h914c76 0 140 61 140 134v942z" />
    <glyph glyph-name="uni1F142" unicode="S&#x20de;" 
d="M613 583h150c6 -54 61 -90 142 -90c80 0 132 34 132 87c0 42 -31 65 -113 83l-107 21c-121 25 -187 92 -187 193c0 129 110 214 274 214c157 0 267 -82 272 -206h-146c-5 53 -55 87 -127 87s-120 -34 -120 -84c0 -37 32 -63 99 -76l110 -22c133 -27 195 -90 195 -196
c0 -136 -112 -221 -290 -221c-170 0 -280 81 -284 210zM415 1467h970c144 0 259 -114 259 -255v-980c0 -141 -115 -255 -259 -255h-970c-143 0 -259 114 -259 255v980c0 141 116 255 259 255zM1497 1193c0 73 -63 134 -140 134h-914c-76 0 -140 -60 -140 -134v-942
c0 -73 64 -134 140 -134h914c76 0 140 61 140 134v942z" />
    <glyph glyph-name="uni1F143" unicode="T&#x20de;" 
d="M979 379h-158v561h-205v132h568v-132h-205v-561zM415 1467h970c144 0 259 -114 259 -255v-980c0 -141 -115 -255 -259 -255h-970c-143 0 -259 114 -259 255v980c0 141 116 255 259 255zM1497 1193c0 73 -63 134 -140 134h-914c-76 0 -140 -60 -140 -134v-942
c0 -73 64 -134 140 -134h914c76 0 140 61 140 134v942z" />
    <glyph glyph-name="uni1F144" unicode="U&#x20de;" 
d="M900 499c85 0 141 49 141 133v440h154v-454c0 -148 -116 -251 -295 -251s-295 103 -295 251v454h154v-440c0 -84 56 -133 141 -133zM415 1467h970c144 0 259 -114 259 -255v-980c0 -141 -115 -255 -259 -255h-970c-143 0 -259 114 -259 255v980c0 141 116 255 259 255z
M1497 1193c0 73 -63 134 -140 134h-914c-76 0 -140 -60 -140 -134v-942c0 -73 64 -134 140 -134h914c76 0 140 61 140 134v942z" />
    <glyph glyph-name="uni1F145" unicode="V&#x20de;" 
d="M802 377l-236 693h176l154 -530h8l154 530h176l-236 -693h-196zM415 1467h970c144 0 259 -114 259 -255v-980c0 -141 -115 -255 -259 -255h-970c-143 0 -259 114 -259 255v980c0 141 116 255 259 255zM1497 1193c0 73 -63 134 -140 134h-914c-76 0 -140 -60 -140 -134
v-942c0 -73 64 -134 140 -134h914c76 0 140 61 140 134v942z" />
    <glyph glyph-name="uni1F146" unicode="W&#x20de;" 
d="M898 847l-128 -468h-136l-184 693h156l104 -493h7l122 493h122l122 -493h7l104 493h156l-183 -693h-137l-128 468h-4zM415 1467h970c144 0 259 -114 259 -255v-980c0 -141 -115 -255 -259 -255h-970c-143 0 -259 114 -259 255v980c0 141 116 255 259 255zM1497 1193
c0 73 -63 134 -140 134h-914c-76 0 -140 -60 -140 -134v-942c0 -73 64 -134 140 -134h914c76 0 140 61 140 134v942z" />
    <glyph glyph-name="uni1F147" unicode="X&#x20de;" 
d="M1221 1078l-227 -347l225 -346h-174l-146 240h-7l-148 -240h-169l225 349l-223 344h179l144 -241h7l144 241h170zM415 1467h970c144 0 259 -114 259 -255v-980c0 -141 -115 -255 -259 -255h-970c-143 0 -259 114 -259 255v980c0 141 116 255 259 255zM1497 1193
c0 73 -63 134 -140 134h-914c-76 0 -140 -60 -140 -134v-942c0 -73 64 -134 140 -134h914c76 0 140 61 140 134v942z" />
    <glyph glyph-name="uni1F148" unicode="Y&#x20de;" 
d="M980 379h-159v252l-241 441h172l146 -287h6l147 287h169l-240 -439v-254zM415 1467h970c144 0 259 -114 259 -255v-980c0 -141 -115 -255 -259 -255h-970c-143 0 -259 114 -259 255v980c0 141 116 255 259 255zM1497 1193c0 73 -63 134 -140 134h-914
c-76 0 -140 -60 -140 -134v-942c0 -73 64 -134 140 -134h914c76 0 140 61 140 134v942z" />
    <glyph glyph-name="uni1F149" unicode="Z&#x20de;" 
d="M632 385v104l338 452v8h-331v129h521v-104l-338 -451v-9h348v-129h-538zM415 1467h970c144 0 259 -114 259 -255v-980c0 -141 -115 -255 -259 -255h-970c-143 0 -259 114 -259 255v980c0 141 116 255 259 255zM1497 1193c0 73 -63 134 -140 134h-914
c-76 0 -140 -60 -140 -134v-942c0 -73 64 -134 140 -134h914c76 0 140 61 140 134v942z" />
    <glyph glyph-name="zero.whitesquare" unicode="&#x30;&#x20de;" 
d="M900 505c79 0 129 77 129 226c0 150 -50 227 -129 227s-129 -77 -129 -227c0 -149 50 -226 129 -226zM899 373c-162 0 -276 132 -276 358c0 227 114 358 276 358c163 0 278 -131 278 -358c0 -226 -115 -358 -278 -358zM415 1467h970c144 0 259 -114 259 -255v-980
c0 -141 -115 -255 -259 -255h-970c-143 0 -259 114 -259 255v980c0 141 116 255 259 255zM1497 1193c0 73 -63 134 -140 134h-914c-76 0 -140 -60 -140 -134v-942c0 -73 64 -134 140 -134h914c76 0 140 61 140 134v942z" />
    <glyph glyph-name="one.whitesquare" unicode="&#x31;&#x20de;" 
d="M1020 385h-155v545h-8l-163 -111v143l171 116h155v-693zM415 1467h970c144 0 259 -114 259 -255v-980c0 -141 -115 -255 -259 -255h-970c-143 0 -259 114 -259 255v980c0 141 116 255 259 255zM1497 1193c0 73 -63 134 -140 134h-914c-76 0 -140 -60 -140 -134v-942
c0 -73 64 -134 140 -134h914c76 0 140 61 140 134v942z" />
    <glyph glyph-name="two.whitesquare" unicode="&#x32;&#x20de;" 
d="M794 864h-146v4c0 118 86 222 253 222c151 0 249 -84 249 -199c0 -86 -57 -146 -128 -217l-154 -154v-7h295v-128h-508v99l262 260c42 43 80 82 80 134c0 51 -43 86 -100 86c-66 0 -103 -44 -103 -96v-4zM415 1467h970c144 0 259 -114 259 -255v-980
c0 -141 -115 -255 -259 -255h-970c-143 0 -259 114 -259 255v980c0 141 116 255 259 255zM1497 1193c0 73 -63 134 -140 134h-914c-76 0 -140 -60 -140 -134v-942c0 -73 64 -134 140 -134h914c76 0 140 61 140 134v942z" />
    <glyph glyph-name="three.whitesquare" unicode="&#x33;&#x20de;" 
d="M822 680v120h74c61 0 106 37 106 88c-1 49 -45 83 -106 83c-64 0 -106 -38 -109 -83h-144c4 118 94 201 256 202c154 0 252 -75 254 -182c2 -90 -77 -146 -134 -155v-8c69 -7 153 -59 155 -165c2 -129 -120 -207 -278 -207c-164 0 -262 88 -265 203h142
c5 -47 54 -82 123 -82c76 0 125 39 125 94c-1 54 -48 92 -122 92h-77zM415 1467h970c144 0 259 -114 259 -255v-980c0 -141 -115 -255 -259 -255h-970c-143 0 -259 114 -259 255v980c0 141 116 255 259 255zM1497 1193c0 73 -63 134 -140 134h-914c-76 0 -140 -60 -140 -134
v-942c0 -73 64 -134 140 -134h914c76 0 140 61 140 134v942z" />
    <glyph glyph-name="four.whitesquare" unicode="&#x34;&#x20de;" 
d="M873 1078h218v-445h93v-124h-93v-124h-139v124h-349v126c82 149 176 292 270 443zM742 633h210v329h-9c-71 -111 -141 -218 -201 -326v-3zM415 1467h970c144 0 259 -114 259 -255v-980c0 -141 -115 -255 -259 -255h-970c-143 0 -259 114 -259 255v980
c0 141 116 255 259 255zM1497 1193c0 73 -63 134 -140 134h-914c-76 0 -140 -60 -140 -134v-942c0 -73 64 -134 140 -134h914c76 0 140 61 140 134v942z" />
    <glyph glyph-name="five.whitesquare" unicode="&#x35;&#x20de;" 
d="M644 575h144c11 -52 64 -77 121 -77c63 0 123 45 123 121c0 68 -57 113 -124 113c-59 0 -97 -31 -112 -59h-137l30 408h451v-122h-329l-16 -174h8c16 27 68 62 148 62c128 0 231 -83 231 -224c0 -149 -110 -248 -277 -248c-152 0 -256 85 -261 200zM415 1467h970
c144 0 259 -114 259 -255v-980c0 -141 -115 -255 -259 -255h-970c-143 0 -259 114 -259 255v980c0 141 116 255 259 255zM1497 1193c0 73 -63 134 -140 134h-914c-76 0 -140 -60 -140 -134v-942c0 -73 64 -134 140 -134h914c76 0 140 61 140 134v942z" />
    <glyph glyph-name="six.whitesquare" unicode="&#x36;&#x20de;" 
d="M928 374c-180 0 -312 117 -312 355c0 226 121 364 314 364c148 0 259 -80 276 -195h-155c-12 44 -57 71 -119 71c-105 0 -166 -83 -166 -226h9c35 64 105 100 193 100c143 0 249 -95 249 -225c0 -143 -120 -244 -289 -244zM927 497c78 0 137 52 137 118
c0 68 -56 116 -136 116c-82 0 -138 -49 -138 -115c0 -67 58 -119 137 -119zM415 1467h970c144 0 259 -114 259 -255v-980c0 -141 -115 -255 -259 -255h-970c-143 0 -259 114 -259 255v980c0 141 116 255 259 255zM1497 1193c0 73 -63 134 -140 134h-914
c-76 0 -140 -60 -140 -134v-942c0 -73 64 -134 140 -134h914c76 0 140 61 140 134v942z" />
    <glyph glyph-name="seven.whitesquare" unicode="&#x37;&#x20de;" 
d="M652 1078h509v-130l-288 -563h-164l295 558v7h-352v128zM415 1467h970c144 0 259 -114 259 -255v-980c0 -141 -115 -255 -259 -255h-970c-143 0 -259 114 -259 255v980c0 141 116 255 259 255zM1497 1193c0 73 -63 134 -140 134h-914c-76 0 -140 -60 -140 -134v-942
c0 -73 64 -134 140 -134h914c76 0 140 61 140 134v942z" />
    <glyph glyph-name="eight.whitesquare" unicode="&#x38;&#x20de;" 
d="M900 484c75 0 129 44 129 105s-53 105 -129 105s-130 -45 -130 -105c0 -61 54 -105 130 -105zM900 797c63 0 108 39 108 92c0 52 -45 90 -108 90s-108 -38 -108 -90c0 -53 45 -92 108 -92zM898 373c-171 0 -284 80 -284 205c0 86 61 153 153 170v6
c-79 24 -124 78 -124 152c0 109 105 184 257 184s257 -75 257 -184c0 -73 -46 -129 -124 -152v-6c92 -17 153 -84 153 -170c0 -124 -116 -205 -288 -205zM415 1467h970c144 0 259 -114 259 -255v-980c0 -141 -115 -255 -259 -255h-970c-143 0 -259 114 -259 255v980
c0 141 116 255 259 255zM1497 1193c0 73 -63 134 -140 134h-914c-76 0 -140 -60 -140 -134v-942c0 -73 64 -134 140 -134h914c76 0 140 61 140 134v942z" />
    <glyph glyph-name="nine.whitesquare" unicode="&#x39;&#x20de;" 
d="M902 374c-143 0 -255 79 -276 194h155c15 -43 63 -71 123 -71c103 0 163 86 163 226h-10c-34 -64 -104 -100 -192 -100c-144 0 -249 96 -249 226c0 142 120 244 288 244c192 0 313 -135 313 -355c0 -226 -119 -364 -315 -364zM906 737c80 0 138 50 138 114
c0 67 -58 118 -138 118c-79 0 -138 -51 -138 -115c0 -68 57 -117 138 -117zM415 1467h970c144 0 259 -114 259 -255v-980c0 -141 -115 -255 -259 -255h-970c-143 0 -259 114 -259 255v980c0 141 116 255 259 255zM1497 1193c0 73 -63 134 -140 134h-914
c-76 0 -140 -60 -140 -134v-942c0 -73 64 -134 140 -134h914c76 0 140 61 140 134v942z" />
    <glyph glyph-name="plus.uc.whitesquare" unicode="&#x2b;&#x20de;" 
d="M966 664v-214h-132v214h-209v132h209v208h132v-208h209v-132h-209zM415 1467h970c144 0 259 -114 259 -255v-980c0 -141 -115 -255 -259 -255h-970c-143 0 -259 114 -259 255v980c0 141 116 255 259 255zM1497 1193c0 73 -63 134 -140 134h-914c-76 0 -140 -60 -140 -134
v-942c0 -73 64 -134 140 -134h914c76 0 140 61 140 134v942z" />
    <glyph glyph-name="minus.uc.whitesquare" unicode="&#x2212;&#x20de;" 
d="M1159 659h-518v136h518v-136zM415 1467h970c144 0 259 -114 259 -255v-980c0 -141 -115 -255 -259 -255h-970c-143 0 -259 114 -259 255v980c0 141 116 255 259 255zM1497 1193c0 73 -63 134 -140 134h-914c-76 0 -140 -60 -140 -134v-942c0 -73 64 -134 140 -134h914
c76 0 140 61 140 134v942z" />
    <glyph glyph-name="multiply.uc.whitesquare" unicode="&#xd7;&#x20de;" 
d="M900 823l162 156l93 -95l-162 -156l162 -156l-93 -96l-162 156l-162 -156l-93 96l161 156l-161 156l93 95zM415 1467h970c144 0 259 -114 259 -255v-980c0 -141 -115 -255 -259 -255h-970c-143 0 -259 114 -259 255v980c0 141 116 255 259 255zM1497 1193
c0 73 -63 134 -140 134h-914c-76 0 -140 -60 -140 -134v-942c0 -73 64 -134 140 -134h914c76 0 140 61 140 134v942z" />
    <glyph glyph-name="divide.uc.whitesquare" unicode="&#xf7;&#x20de;" 
d="M1159 671h-518v112h518v-112zM814 941c0 48 37 81 85 81c51 0 88 -33 88 -81c0 -46 -38 -80 -88 -80c-48 0 -85 34 -85 80zM814 516c0 48 37 82 86 82c50 0 87 -34 87 -82c0 -46 -37 -79 -87 -79c-49 0 -86 33 -86 79zM415 1467h970c144 0 259 -114 259 -255v-980
c0 -141 -115 -255 -259 -255h-970c-143 0 -259 114 -259 255v980c0 141 116 255 259 255zM1497 1193c0 73 -63 134 -140 134h-914c-76 0 -140 -60 -140 -134v-942c0 -73 64 -134 140 -134h914c76 0 140 61 140 134v942z" />
    <glyph glyph-name="equal.uc.whitesquare" unicode="&#x3d;&#x20de;" 
d="M1152 544h-504v121h504v-121zM1152 788h-504v122h504v-122zM415 1467h970c144 0 259 -114 259 -255v-980c0 -141 -115 -255 -259 -255h-970c-143 0 -259 114 -259 255v980c0 141 116 255 259 255zM1497 1193c0 73 -63 134 -140 134h-914c-76 0 -140 -60 -140 -134v-942
c0 -73 64 -134 140 -134h914c76 0 140 61 140 134v942z" />
    <glyph glyph-name="greater.uc.whitesquare" unicode="&#x3e;&#x20de;" 
d="M1174 770v-96l-497 -249v151l318 146v6l-318 148v154zM415 1467h970c144 0 259 -114 259 -255v-980c0 -141 -115 -255 -259 -255h-970c-143 0 -259 114 -259 255v980c0 141 116 255 259 255zM1497 1193c0 73 -63 134 -140 134h-914c-76 0 -140 -60 -140 -134v-942
c0 -73 64 -134 140 -134h914c76 0 140 61 140 134v942z" />
    <glyph glyph-name="less.uc.whitesquare" unicode="&#x3c;&#x20de;" 
d="M627 674v96l496 260v-154l-319 -148v-6l319 -146v-151zM415 1467h970c144 0 259 -114 259 -255v-980c0 -141 -115 -255 -259 -255h-970c-143 0 -259 114 -259 255v980c0 141 116 255 259 255zM1497 1193c0 73 -63 134 -140 134h-914c-76 0 -140 -60 -140 -134v-942
c0 -73 64 -134 140 -134h914c76 0 140 61 140 134v942z" />
    <glyph glyph-name="numbersign.whitesquare" unicode="&#x23;&#x20de;" 
d="M1190 791h-108l-26 -119h104l-22 -109h-104l-38 -181h-113l39 181h-118l-38 -181h-112l38 181h-102l21 109h102l27 119h-100l21 109h101l36 174h112l-36 -174h116l37 174h112l-36 -174h107zM846 798l-31 -140h135l30 140h-134zM415 1467h970c144 0 259 -114 259 -255
v-980c0 -141 -115 -255 -259 -255h-970c-143 0 -259 114 -259 255v980c0 141 116 255 259 255zM1497 1193c0 73 -63 134 -140 134h-914c-76 0 -140 -60 -140 -134v-942c0 -73 64 -134 140 -134h914c76 0 140 61 140 134v942z" />
    <glyph glyph-name="uni25BC.whitesquare" unicode="&#x25bc;&#x20de;" 
d="M1220 946l-319 -555l-319 555h638zM415 1467h970c144 0 259 -114 259 -255v-980c0 -141 -115 -255 -259 -255h-970c-143 0 -259 114 -259 255v980c0 141 116 255 259 255zM1497 1193c0 73 -63 134 -140 134h-914c-76 0 -140 -60 -140 -134v-942c0 -73 64 -134 140 -134
h914c76 0 140 61 140 134v942z" />
    <glyph glyph-name="uni25B2.whitesquare" unicode="&#x25b2;&#x20de;" 
d="M1219 509h-637l318 555zM415 1467h970c144 0 259 -114 259 -255v-980c0 -141 -115 -255 -259 -255h-970c-143 0 -259 114 -259 255v980c0 141 116 255 259 255zM1497 1193c0 73 -63 134 -140 134h-914c-76 0 -140 -60 -140 -134v-942c0 -73 64 -134 140 -134h914
c76 0 140 61 140 134v942z" />
    <glyph glyph-name="uni25C0.whitesquare" unicode="&#x25c0;&#x20de;" 
d="M1117 408l-552 321l552 319v-640zM415 1467h970c144 0 259 -114 259 -255v-980c0 -141 -115 -255 -259 -255h-970c-143 0 -259 114 -259 255v980c0 141 116 255 259 255zM1497 1193c0 73 -63 134 -140 134h-914c-76 0 -140 -60 -140 -134v-942c0 -73 64 -134 140 -134
h914c76 0 140 61 140 134v942z" />
    <glyph glyph-name="uni25B6.whitesquare" unicode="&#x25b6;&#x20de;" 
d="M683 408v640l552 -319zM415 1467h970c144 0 259 -114 259 -255v-980c0 -141 -115 -255 -259 -255h-970c-143 0 -259 114 -259 255v980c0 141 116 255 259 255zM1497 1193c0 73 -63 134 -140 134h-914c-76 0 -140 -60 -140 -134v-942c0 -73 64 -134 140 -134h914
c76 0 140 61 140 134v942z" />
    <glyph glyph-name="question.whitesquare" unicode="&#x3f;&#x20de;" 
d="M790 457c0 51 40 83 98 83c60 0 99 -32 99 -83c0 -48 -39 -82 -99 -82c-58 0 -98 34 -98 82zM662 881c-3 150 116 209 244 209c129 0 236 -65 236 -189c0 -84 -49 -126 -103 -163c-67 -47 -89 -62 -89 -112v-20h-135c0 2 -1 29 -1 32c-3 72 36 118 93 156
c52 36 82 58 82 101c0 52 -44 76 -92 76c-62 0 -96 -40 -96 -90h-139zM415 1467h970c144 0 259 -114 259 -255v-980c0 -141 -115 -255 -259 -255h-970c-143 0 -259 114 -259 255v980c0 141 116 255 259 255zM1497 1193c0 73 -63 134 -140 134h-914c-76 0 -140 -60 -140 -134
v-942c0 -73 64 -134 140 -134h914c76 0 140 61 140 134v942z" />
    <glyph glyph-name="exclam.whitesquare" unicode="&#x21;&#x20de;" 
d="M803 457c0 51 39 84 98 84c60 0 98 -33 98 -84c0 -48 -38 -82 -98 -82c-59 0 -98 34 -98 82zM818 1078h167l-18 -455h-131zM415 1467h970c144 0 259 -114 259 -255v-980c0 -141 -115 -255 -259 -255h-970c-143 0 -259 114 -259 255v980c0 141 116 255 259 255zM1497 1193
c0 73 -63 134 -140 134h-914c-76 0 -140 -60 -140 -134v-942c0 -73 64 -134 140 -134h914c76 0 140 61 140 134v942z" />
    <glyph glyph-name="uni2717.whitesquare" unicode="&#x2717;&#x20de;" 
d="M904 824l247 242l95 -99l-246 -243l246 -243l-95 -101l-247 242l-247 -242l-96 100l246 244l-247 243l95 100zM415 1467h970c144 0 259 -114 259 -255v-980c0 -141 -115 -255 -259 -255h-970c-143 0 -259 114 -259 255v980c0 141 116 255 259 255zM1497 1193
c0 73 -63 134 -140 134h-914c-76 0 -140 -60 -140 -134v-942c0 -73 64 -134 140 -134h914c76 0 140 61 140 134v942z" />
    <glyph glyph-name="uni2713.whitesquare" unicode="&#x2713;&#x20de;" 
d="M1325 931l-545 -539l-296 295l101 104l195 -193l445 440zM415 1467h970c144 0 259 -114 259 -255v-980c0 -141 -115 -255 -259 -255h-970c-143 0 -259 114 -259 255v980c0 141 116 255 259 255zM1497 1193c0 73 -63 134 -140 134h-914c-76 0 -140 -60 -140 -134v-942
c0 -73 64 -134 140 -134h914c76 0 140 61 140 134v942z" />
    <glyph glyph-name="uni1F150" unicode="A&#x20dd;&#x25cf;" 
d="M995 681h-190l92 290h6zM714 375l58 177h256l58 -177h179l-263 760h-204l-263 -760h179zM900 -51c-425 0 -772 347 -772 772s347 773 772 773s772 -348 772 -773s-347 -772 -772 -772z" />
    <glyph glyph-name="uni1F151" unicode="B&#x20dd;&#x25cf;" 
d="M619 353h343c167 0 277 85 277 215c0 101 -64 172 -171 188v2c82 21 130 83 130 166c0 116 -90 189 -236 189h-343v-760zM789 985h131c67 0 109 -34 109 -89c0 -64 -47 -94 -144 -94h-96v183zM789 687h140c84 0 132 -38 132 -104c0 -67 -52 -99 -164 -99h-108v203z
M900 -51c-425 0 -772 347 -772 772s347 773 772 773s772 -348 772 -773s-347 -772 -772 -772z" />
    <glyph glyph-name="uni1F152" unicode="C&#x20dd;&#x25cf;" 
d="M1061 607c-10 -63 -76 -113 -159 -113c-110 0 -183 91 -183 236s73 238 183 238c85 0 153 -55 163 -121h173c-17 165 -148 277 -338 277c-213 0 -361 -155 -361 -394c0 -238 148 -392 361 -392c185 0 316 109 336 269h-175zM900 -51c-425 0 -772 347 -772 772
s347 773 772 773s772 -348 772 -773s-347 -772 -772 -772z" />
    <glyph glyph-name="uni1F153" unicode="D&#x20dd;&#x25cf;" 
d="M613 1113v-760h299c232 0 356 132 356 381s-123 379 -356 379h-299zM785 971h103c137 0 200 -75 200 -239c0 -163 -63 -237 -200 -237h-103v476zM900 -51c-425 0 -772 347 -772 772s347 773 772 773s772 -348 772 -773s-347 -772 -772 -772z" />
    <glyph glyph-name="uni1F154" unicode="E&#x20dd;&#x25cf;" 
d="M1166 493h-352v178h330v130h-330v172h352v140h-525v-760h525v140zM900 -51c-425 0 -772 347 -772 772s347 773 772 773s772 -348 772 -773s-347 -772 -772 -772z" />
    <glyph glyph-name="uni1F155" unicode="F&#x20dd;&#x25cf;" 
d="M845 353v289h312v144h-312v183h341v144h-517v-760h176zM900 -51c-425 0 -772 347 -772 772s347 773 772 773s772 -348 772 -773s-347 -772 -772 -772z" />
    <glyph glyph-name="uni1F156" unicode="G&#x20dd;&#x25cf;" 
d="M1063 618c0 -68 -55 -126 -159 -126c-112 0 -185 91 -185 238c0 148 73 237 185 237c89 0 149 -41 157 -95h176c-21 149 -155 251 -335 251c-216 0 -364 -158 -364 -393c0 -234 146 -391 363 -391c205 0 331 134 331 302v133h-320v-135h151v-21zM900 -51
c-425 0 -772 347 -772 772s347 773 772 773s772 -348 772 -773s-347 -772 -772 -772z" />
    <glyph glyph-name="uni1F157" unicode="H&#x20dd;&#x25cf;" 
d="M1227 353v760h-171v-299h-311v299h-172v-760h172v310h311v-310h171zM900 -51c-425 0 -772 347 -772 772s347 773 772 773s772 -348 772 -773s-347 -772 -772 -772z" />
    <glyph glyph-name="uni1F158" unicode="I&#x20dd;&#x25cf;" 
d="M991 353v760h-182v-760h182zM900 -51c-425 0 -772 347 -772 772s347 773 772 773s772 -348 772 -773s-347 -772 -772 -772z" />
    <glyph glyph-name="uni1F159" unicode="J&#x20dd;&#x25cf;" 
d="M594 591c0 -156 107 -256 270 -256c173 0 274 100 274 270v503h-178v-504c0 -70 -35 -107 -99 -107c-56 0 -92 36 -93 94h-174zM900 -51c-425 0 -772 347 -772 772s347 773 772 773s772 -348 772 -773s-347 -772 -772 -772z" />
    <glyph glyph-name="uni1F15A" unicode="&#x212a;&#x20dd;&#x25cf;" 
d="M1253 1113h-196l-282 -321h-4v321h-170v-760h170v228l74 80l208 -308h209l-287 424zM900 -51c-425 0 -772 347 -772 772s347 773 772 773s772 -348 772 -773s-347 -772 -772 -772z" />
    <glyph glyph-name="uni1F15B" unicode="L&#x20dd;&#x25cf;" 
d="M1194 512h-331v606h-179v-760h510v154zM900 -51c-425 0 -772 347 -772 772s347 773 772 773s772 -348 772 -773s-347 -772 -772 -772z" />
    <glyph glyph-name="uni1F15C" unicode="M&#x20dd;&#x25cf;" 
d="M662 353v493h5l179 -459h107l180 456h4v-490h150v760h-172l-215 -539h-1l-212 539h-174v-760h149zM900 -51c-425 0 -772 347 -772 772s347 773 772 773s772 -348 772 -773s-347 -772 -772 -772z" />
    <glyph glyph-name="uni1F15D" unicode="N&#x20dd;&#x25cf;" 
d="M740 353v475h3l338 -475h141v760h-162v-474h-3l-339 474h-140v-760h162zM900 -51c-425 0 -772 347 -772 772s347 773 772 773s772 -348 772 -773s-347 -772 -772 -772z" />
    <glyph glyph-name="uni1F15E" unicode="O&#x20dd;&#x25cf;" 
d="M900 489c-103 0 -186 83 -186 241c0 159 83 242 186 242s186 -83 186 -242c0 -158 -83 -241 -186 -241zM900 338c202 0 363 142 363 392c0 252 -161 394 -363 394s-363 -142 -363 -394c0 -250 161 -392 363 -392zM900 -51c-425 0 -772 347 -772 772s347 773 772 773
s772 -348 772 -773s-347 -772 -772 -772z" />
    <glyph glyph-name="uni1F15F" unicode="P&#x20dd;&#x25cf;" 
d="M964 1113h-325v-760h178v238h145c167 0 277 102 277 259c0 158 -110 263 -275 263zM1062 850c0 -78 -46 -122 -127 -122h-123v244h123c81 0 127 -45 127 -122zM900 -51c-425 0 -772 347 -772 772s347 773 772 773s772 -348 772 -773s-347 -772 -772 -772z" />
    <glyph glyph-name="uni1F160" unicode="Q&#x20dd;&#x25cf;" 
d="M1244 284l-104 141c76 67 123 170 123 305c0 252 -161 394 -363 394s-363 -142 -363 -394c0 -250 161 -392 363 -392c41 0 80 6 117 17l49 -71h178zM900 489c-103 0 -186 83 -186 241c0 159 83 242 186 242s186 -83 186 -242c0 -70 -19 -125 -49 -164l-38 47h-142
l81 -119c-12 -3 -25 -5 -38 -5zM900 -51c-425 0 -772 347 -772 772s347 773 772 773s772 -348 772 -773s-347 -772 -772 -772z" />
    <glyph glyph-name="uni1F161" unicode="R&#x20dd;&#x25cf;" 
d="M777 755v219h133c82 0 129 -41 129 -111c0 -68 -47 -108 -131 -108h-131zM932 1113h-323v-760h170v274h128l134 -274h195l-161 304c88 32 142 112 142 213c0 152 -107 243 -285 243zM900 -51c-425 0 -772 347 -772 772s347 773 772 773s772 -348 772 -773
s-347 -772 -772 -772z" />
    <glyph glyph-name="uni1F162" unicode="S&#x20dd;&#x25cf;" 
d="M584 576c5 -145 125 -236 313 -236c196 0 320 94 320 243c0 118 -69 188 -217 218l-119 24c-71 13 -105 40 -105 79c0 53 50 88 127 88c76 0 128 -38 135 -95h166c-5 138 -125 231 -300 231c-180 0 -302 -95 -302 -236c0 -112 72 -187 206 -214l117 -24
c86 -18 119 -41 119 -85c0 -56 -53 -91 -139 -91c-85 0 -145 39 -150 98h-171zM900 -51c-425 0 -772 347 -772 772s347 773 772 773s772 -348 772 -773s-347 -772 -772 -772z" />
    <glyph glyph-name="uni1F163" unicode="T&#x20dd;&#x25cf;" 
d="M989 332v608h223v152h-623v-152h222v-608h178zM900 -51c-425 0 -772 347 -772 772s347 773 772 773s772 -348 772 -773s-347 -772 -772 -772z" />
    <glyph glyph-name="uni1F164" unicode="U&#x20dd;&#x25cf;" 
d="M900 471c-93 0 -148 53 -148 140v481h-177v-502c0 -163 128 -271 325 -271c196 0 325 108 325 271v502h-176v-481c0 -87 -57 -140 -149 -140zM900 -51c-425 0 -772 347 -772 772s347 773 772 773s772 -348 772 -773s-347 -772 -772 -772z" />
    <glyph glyph-name="uni1F165" unicode="V&#x20dd;&#x25cf;" 
d="M1007 330l261 759h-200l-165 -577h-6l-165 577h-200l261 -759h214zM900 -51c-425 0 -772 347 -772 772s347 773 772 773s772 -348 772 -773s-347 -772 -772 -772z" />
    <glyph glyph-name="uni1F166" unicode="W&#x20dd;&#x25cf;" 
d="M898 835h4l137 -503h157l202 760h-180l-109 -536h-5l-132 536h-144l-132 -536h-5l-108 536h-181l203 -760h156zM900 -51c-425 0 -772 347 -772 772s347 773 772 773s772 -348 772 -773s-347 -772 -772 -772z" />
    <glyph glyph-name="uni1F167" unicode="X&#x20dd;&#x25cf;" 
d="M1257 1113h-195l-153 -262h-6l-156 262h-205l245 -378l-247 -382h195l157 259h6l158 -259h198l-247 379zM900 -51c-425 0 -772 347 -772 772s347 773 772 773s772 -348 772 -773s-347 -772 -772 -772z" />
    <glyph glyph-name="uni1F168" unicode="Y&#x20dd;&#x25cf;" 
d="M810 343h181v277l267 483h-197l-159 -311h-4l-159 311h-196l267 -483v-277zM900 -51c-425 0 -772 347 -772 772s347 773 772 773s772 -348 772 -773s-347 -772 -772 -772z" />
    <glyph glyph-name="uni1F169" unicode="Z&#x20dd;&#x25cf;" 
d="M604 353h594v149h-377v2l366 491v118h-575v-149h359v-2l-367 -491v-118zM900 -51c-425 0 -772 347 -772 772s347 773 772 773s772 -348 772 -773s-347 -772 -772 -772z" />
    <glyph glyph-name="uni24FF" unicode="&#x30;&#x20dd;&#x25cf;" 
d="M897 481c-84 0 -133 85 -133 250c0 166 49 251 133 251s132 -85 132 -251c0 -165 -48 -250 -132 -250zM896 338c187 0 309 148 309 393c0 246 -122 394 -309 394s-308 -148 -308 -394c0 -245 121 -393 308 -393zM900 -51c-425 0 -772 347 -772 772s347 773 772 773
s772 -348 772 -773s-347 -772 -772 -772z" />
    <glyph glyph-name="uni278A" unicode="&#x31;&#x20dd;&#x25cf;" 
d="M1026 352v760h-174l-188 -128v-166l182 123h3v-589h177zM900 -51c-425 0 -772 347 -772 772s347 773 772 773s772 -348 772 -773s-347 -772 -772 -772z" />
    <glyph glyph-name="uni278B" unicode="&#x32;&#x20dd;&#x25cf;" 
d="M783 870v8c0 58 38 106 109 106c61 0 106 -38 106 -91c0 -58 -40 -101 -90 -152l-282 -277v-113h559v147h-325v2l180 175c73 74 130 138 130 232c0 123 -110 217 -272 217c-185 0 -281 -116 -281 -246v-8h166zM900 -51c-425 0 -772 347 -772 772s347 773 772 773
s772 -348 772 -773s-347 -772 -772 -772z" />
    <glyph glyph-name="uni278C" unicode="&#x33;&#x20dd;&#x25cf;" 
d="M807 674h89c77 0 127 -40 128 -98c0 -58 -51 -99 -132 -99c-73 0 -125 38 -131 90h-162c4 -128 112 -229 293 -229c173 0 308 87 306 230c-3 113 -92 174 -166 182v2c61 11 144 74 142 172c-2 117 -111 201 -278 201c-181 0 -279 -95 -284 -227h165c3 49 46 90 115 90
c64 0 110 -37 111 -88c0 -54 -46 -92 -112 -92h-84v-134zM900 -51c-425 0 -772 347 -772 772s347 773 772 773s772 -348 772 -773s-347 -772 -772 -772z" />
    <glyph glyph-name="uni278D" unicode="&#x34;&#x20dd;&#x25cf;" 
d="M848 1112c-147 -229 -226 -354 -295 -485v-141h379v-134h160v134h101v143h-101v483h-244zM932 629h-219v1c64 113 139 224 215 344h4v-345zM900 -51c-425 0 -772 347 -772 772s347 773 772 773s772 -348 772 -773s-347 -772 -772 -772z" />
    <glyph glyph-name="uni278E" unicode="&#x35;&#x20dd;&#x25cf;" 
d="M613 564c5 -130 119 -223 287 -223c183 0 305 108 305 274c0 155 -114 246 -255 246c-84 0 -140 -35 -161 -65h-2l15 181h358v137h-498l-33 -448h152c17 31 59 66 123 66c72 0 132 -47 132 -123c0 -82 -64 -130 -131 -130c-62 0 -119 29 -130 85h-162zM900 -51
c-425 0 -772 347 -772 772s347 773 772 773s772 -348 772 -773s-347 -772 -772 -772z" />
    <glyph glyph-name="uni278F" unicode="&#x36;&#x20dd;&#x25cf;" 
d="M933 341c188 0 321 111 321 267c0 142 -117 246 -274 246c-97 0 -174 -39 -212 -108h-11c1 154 66 243 180 243c66 0 116 -29 129 -76h176c-20 126 -142 214 -307 214c-214 0 -347 -151 -347 -397c0 -261 145 -389 345 -389zM932 478c-85 0 -148 56 -148 128
c0 70 60 123 148 123s148 -52 148 -124s-64 -127 -148 -127zM900 -51c-425 0 -772 347 -772 772s347 773 772 773s772 -348 772 -773s-347 -772 -772 -772z" />
    <glyph glyph-name="uni2790" unicode="&#x37;&#x20dd;&#x25cf;" 
d="M630 1104v-148h382v-2l-323 -609h187l315 613v146h-561zM900 -51c-425 0 -772 347 -772 772s347 773 772 773s772 -348 772 -773s-347 -772 -772 -772z" />
    <glyph glyph-name="uni2791" unicode="&#x38;&#x20dd;&#x25cf;" 
d="M897 803c-68 0 -114 40 -114 98c0 59 46 99 114 99c67 0 114 -40 114 -99c0 -58 -47 -98 -114 -98zM897 463c-81 0 -140 48 -140 113c0 66 59 114 140 114s140 -48 140 -114c0 -65 -59 -113 -140 -113zM897 338c189 0 314 89 314 227c0 94 -63 165 -165 185v1
c86 28 133 88 133 170c0 122 -114 204 -282 204c-169 0 -282 -82 -282 -204c0 -82 47 -142 132 -170v-1c-101 -20 -164 -91 -164 -185c0 -137 125 -227 314 -227zM900 -51c-425 0 -772 347 -772 772s347 773 772 773s772 -348 772 -773s-347 -772 -772 -772z" />
    <glyph glyph-name="uni2792" unicode="&#x39;&#x20dd;&#x25cf;" 
d="M905 341c217 0 349 150 349 397c0 241 -134 389 -346 389c-187 0 -320 -111 -320 -267c0 -142 115 -246 273 -246c97 0 174 38 212 108h10c1 -151 -64 -243 -176 -243c-65 0 -117 29 -132 74h-176c22 -126 147 -212 306 -212zM908 742c-86 0 -147 50 -147 123
c0 70 63 124 148 124s148 -55 148 -126c0 -70 -61 -121 -149 -121zM900 -51c-425 0 -772 347 -772 772s347 773 772 773s772 -348 772 -773s-347 -772 -772 -772z" />
    <glyph glyph-name="plus.uc.blackcircle" unicode="&#x2b;&#x20dd;&#x25cf;" 
d="M976 656h228v150h-228v226h-152v-226h-228v-150h228v-233h152v233zM900 -51c-425 0 -772 347 -772 772s347 773 772 773s772 -348 772 -773s-347 -772 -772 -772z" />
    <glyph glyph-name="minus.uc.blackcircle" unicode="&#x2212;&#x20dd;&#x25cf;" 
d="M1186 650v155h-572v-155h572zM900 -51c-425 0 -772 347 -772 772s347 773 772 773s772 -348 772 -773s-347 -772 -772 -772z" />
    <glyph glyph-name="multiply.uc.blackcircle" unicode="&#xd7;&#x20dd;&#x25cf;" 
d="M900 837l-176 169l-107 -109l176 -170l-176 -168l107 -110l176 169l176 -169l107 110l-176 168l176 170l-107 109zM900 -51c-425 0 -772 347 -772 772s347 773 772 773s772 -348 772 -773s-347 -772 -772 -772z" />
    <glyph glyph-name="divide.uc.blackcircle" unicode="&#xf7;&#x20dd;&#x25cf;" 
d="M802 959c0 -52 43 -91 97 -91c56 0 100 39 100 91c0 54 -44 92 -100 92c-54 0 -97 -38 -97 -92zM1186 662v129h-572v-129h572zM802 499c0 -52 43 -91 98 -91s99 39 99 91c0 54 -44 92 -99 92s-98 -38 -98 -92zM900 -51c-425 0 -772 347 -772 772s347 773 772 773
s772 -348 772 -773s-347 -772 -772 -772z" />
    <glyph glyph-name="equal.uc.blackcircle" unicode="&#x3d;&#x20dd;&#x25cf;" 
d="M1177 790v140h-554v-140h554zM1177 524v139h-554v-139h554zM900 -51c-425 0 -772 347 -772 772s347 773 772 773s772 -348 772 -773s-347 -772 -772 -772z" />
    <glyph glyph-name="greater.uc.blackcircle" unicode="&#x3e;&#x20dd;&#x25cf;" 
d="M1195 776l-547 286v-171l346 -166l1 -2l-347 -162v-168l547 275v108zM900 -51c-425 0 -772 347 -772 772s347 773 772 773s772 -348 772 -773s-347 -772 -772 -772z" />
    <glyph glyph-name="less.uc.blackcircle" unicode="&#x3c;&#x20dd;&#x25cf;" 
d="M599 668l546 -275v168l-345 162v2l345 166v171l-546 -286v-108zM900 -51c-425 0 -772 347 -772 772s347 773 772 773s772 -348 772 -773s-347 -772 -772 -772z" />
    <glyph glyph-name="numbersign.blackcircle" unicode="&#x23;&#x20dd;&#x25cf;" 
d="M841 804h143l-32 -151h-142zM1217 793l25 127h-117l39 188h-132l-38 -188h-118l40 188h-132l-38 -188h-110l-25 -127h109l-27 -120h-111l-25 -128h110l-41 -196h131l43 196h117l-42 -196h132l41 196h114l25 128h-112c0 4 24 115 25 120h117zM900 -51
c-425 0 -772 347 -772 772s347 773 772 773s772 -348 772 -773s-347 -772 -772 -772z" />
    <glyph glyph-name="uni25BC.blackcircle" unicode="&#x25bc;&#x20dd;&#x25cf;" 
d="M1247 980h-693l346 -600zM900 -51c-425 0 -772 347 -772 772s347 773 772 773s772 -348 772 -773s-347 -772 -772 -772z" />
    <glyph glyph-name="uni25B2.blackcircle" unicode="&#x25b2;&#x20dd;&#x25cf;" 
d="M1247 491l-347 600l-346 -600h693zM900 -51c-425 0 -772 347 -772 772s347 773 772 773s772 -348 772 -773s-347 -772 -772 -772z" />
    <glyph glyph-name="uni25C0.blackcircle" unicode="&#x25c0;&#x20dd;&#x25cf;" 
d="M1141 389v693l-601 -346zM900 -51c-425 0 -772 347 -772 772s347 773 772 773s772 -348 772 -773s-347 -772 -772 -772z" />
    <glyph glyph-name="uni25B6.blackcircle" unicode="&#x25b6;&#x20dd;&#x25cf;" 
d="M659 389l601 347l-601 346v-693zM900 -51c-425 0 -772 347 -772 772s347 773 772 773s772 -348 772 -773s-347 -772 -772 -772z" />
    <glyph glyph-name="question.blackcircle" unicode="&#x3f;&#x20dd;&#x25cf;" 
d="M772 429c0 -56 45 -94 111 -94c68 0 112 38 112 94c0 58 -44 95 -112 95c-66 0 -111 -36 -111 -95zM799 591h156v26c0 53 22 68 89 114c67 47 119 88 119 185c0 136 -118 210 -260 210s-271 -66 -271 -232v-4l161 1c0 56 35 100 100 100c51 0 97 -25 97 -81
c0 -54 -46 -75 -97 -117c-58 -42 -99 -89 -95 -163c0 -4 1 -37 1 -39zM902 -51c-425 0 -772 347 -772 772s347 773 772 773s772 -348 772 -773s-347 -772 -772 -772z" />
    <glyph glyph-name="exclam.blackcircle" unicode="&#x21;&#x20dd;&#x25cf;" 
d="M805 1112l19 -503h153l20 503h-192zM790 430c0 -55 44 -94 111 -94s111 39 111 94c0 57 -44 94 -111 94s-111 -37 -111 -94zM900 -51c-425 0 -772 347 -772 772s347 773 772 773s772 -348 772 -773s-347 -772 -772 -772z" />
    <glyph glyph-name="uni2717.blackcircle" unicode="&#x2717;&#x20dd;&#x25cf;" 
d="M903 833l-271 267l-105 -109l270 -267l-270 -265l106 -110l270 265l270 -265l105 111l-270 264l270 265l-105 109zM900 -51c-425 0 -772 347 -772 772s347 773 772 773s772 -348 772 -773s-347 -772 -772 -772z" />
    <glyph glyph-name="uni2713.blackcircle" unicode="&#x2713;&#x20dd;&#x25cf;" 
d="M767 369l597 591l-110 117l-487 -481l-213 211l-112 -115zM900 -51c-425 0 -772 347 -772 772s347 773 772 773s772 -348 772 -773s-347 -772 -772 -772z" />
    <glyph glyph-name="uni1F170" unicode="A&#x20de;&#x25a0;" 
d="M995 666h-190l92 290h6zM714 360l58 177h256l58 -177h179l-263 760h-204l-263 -760h179zM415 1467h970c144 0 259 -114 259 -255v-980c0 -141 -115 -255 -259 -255h-970c-143 0 -259 114 -259 255v980c0 141 116 255 259 255z" />
    <glyph glyph-name="uni1F171" unicode="B&#x20de;&#x25a0;" 
d="M619 353h343c162 0 277 82 277 215c0 107 -72 173 -171 188v2c77 20 130 78 130 166c0 118 -92 189 -236 189h-343v-760zM789 985h131c68 0 109 -35 109 -89c0 -62 -45 -94 -144 -94h-96v183zM789 687h140c85 0 132 -39 132 -104c0 -66 -49 -99 -164 -99h-108v203z
M415 1467h970c144 0 259 -114 259 -255v-980c0 -141 -115 -255 -259 -255h-970c-143 0 -259 114 -259 255v980c0 141 116 255 259 255z" />
    <glyph glyph-name="uni1F172" unicode="C&#x20de;&#x25a0;" 
d="M1061 607c-10 -63 -76 -113 -159 -113c-110 0 -183 91 -183 236s73 238 183 238c85 0 153 -55 163 -121h173c-17 165 -148 277 -338 277c-213 0 -361 -155 -361 -394c0 -238 148 -392 361 -392c185 0 316 109 336 269h-175zM415 1467h970c144 0 259 -114 259 -255v-980
c0 -141 -115 -255 -259 -255h-970c-143 0 -259 114 -259 255v980c0 141 116 255 259 255z" />
    <glyph glyph-name="uni1F173" unicode="D&#x20de;&#x25a0;" 
d="M594 1113v-760h299c238 0 356 137 356 381c0 243 -117 379 -356 379h-299zM767 971h102c138 0 201 -77 201 -239c0 -161 -63 -237 -201 -237h-102v476zM415 1467h970c144 0 259 -114 259 -255v-980c0 -141 -115 -255 -259 -255h-970c-143 0 -259 114 -259 255v980
c0 141 116 255 259 255z" />
    <glyph glyph-name="uni1F174" unicode="E&#x20de;&#x25a0;" 
d="M1166 493h-352v178h330v130h-330v172h352v140h-525v-760h525v140zM415 1467h970c144 0 259 -114 259 -255v-980c0 -141 -115 -255 -259 -255h-970c-143 0 -259 114 -259 255v980c0 141 116 255 259 255z" />
    <glyph glyph-name="uni1F175" unicode="F&#x20de;&#x25a0;" 
d="M845 353v289h312v144h-312v183h341v144h-517v-760h176zM415 1467h970c144 0 259 -114 259 -255v-980c0 -141 -115 -255 -259 -255h-970c-143 0 -259 114 -259 255v980c0 141 116 255 259 255z" />
    <glyph glyph-name="uni1F176" unicode="G&#x20de;&#x25a0;" 
d="M1063 618c0 -68 -55 -126 -159 -126c-112 0 -185 91 -185 238c0 148 73 237 185 237c89 0 149 -41 157 -95h176c-21 149 -155 251 -335 251c-216 0 -364 -158 -364 -393c0 -234 146 -391 363 -391c205 0 331 134 331 302v133h-320v-135h151v-21zM415 1467h970
c144 0 259 -114 259 -255v-980c0 -141 -115 -255 -259 -255h-970c-143 0 -259 114 -259 255v980c0 141 116 255 259 255z" />
    <glyph glyph-name="uni1F177" unicode="H&#x20de;&#x25a0;" 
d="M1227 353v760h-171v-299h-311v299h-172v-760h172v310h311v-310h171zM415 1467h970c144 0 259 -114 259 -255v-980c0 -141 -115 -255 -259 -255h-970c-143 0 -259 114 -259 255v980c0 141 116 255 259 255z" />
    <glyph glyph-name="uni1F178" unicode="I&#x20de;&#x25a0;" 
d="M991 353v760h-182v-760h182zM415 1467h970c144 0 259 -114 259 -255v-980c0 -141 -115 -255 -259 -255h-970c-143 0 -259 114 -259 255v980c0 141 116 255 259 255z" />
    <glyph glyph-name="uni1F179" unicode="J&#x20de;&#x25a0;" 
d="M594 591c0 -148 97 -256 270 -256c170 0 274 97 274 270v503h-178v-504c0 -70 -34 -107 -99 -107c-56 0 -92 36 -93 94h-174zM415 1467h970c144 0 259 -114 259 -255v-980c0 -141 -115 -255 -259 -255h-970c-143 0 -259 114 -259 255v980c0 141 116 255 259 255z" />
    <glyph glyph-name="uni1F17A" unicode="&#x212a;&#x20de;&#x25a0;" 
d="M1253 1113h-196l-282 -321h-4v321h-170v-760h170v228l74 80l208 -308h209c-80 109 -205 316 -287 424zM415 1467h970c144 0 259 -114 259 -255v-980c0 -141 -115 -255 -259 -255h-970c-143 0 -259 114 -259 255v980c0 141 116 255 259 255z" />
    <glyph glyph-name="uni1F17B" unicode="L&#x20de;&#x25a0;" 
d="M1202 512h-331v606h-179v-760h510v154zM415 1467h970c144 0 259 -114 259 -255v-980c0 -141 -115 -255 -259 -255h-970c-143 0 -259 114 -259 255v980c0 141 116 255 259 255z" />
    <glyph glyph-name="uni1F17C" unicode="M&#x20de;&#x25a0;" 
d="M662 353v493h5l179 -459h107l180 456h4v-490h150v760h-172l-215 -539h-1l-212 539h-174v-760h149zM415 1467h970c144 0 259 -114 259 -255v-980c0 -141 -115 -255 -259 -255h-970c-143 0 -259 114 -259 255v980c0 141 116 255 259 255z" />
    <glyph glyph-name="uni1F17D" unicode="N&#x20de;&#x25a0;" 
d="M740 353v475h3l338 -475h141v760h-162v-474h-3l-339 474h-140v-760h162zM415 1467h970c144 0 259 -114 259 -255v-980c0 -141 -115 -255 -259 -255h-970c-143 0 -259 114 -259 255v980c0 141 116 255 259 255z" />
    <glyph glyph-name="uni1F17E" unicode="O&#x20de;&#x25a0;" 
d="M900 489c-103 0 -186 83 -186 241c0 159 83 242 186 242s186 -83 186 -242c0 -158 -83 -241 -186 -241zM900 338c202 0 363 142 363 392c0 252 -161 394 -363 394s-363 -142 -363 -394c0 -250 161 -392 363 -392zM415 1467h970c144 0 259 -114 259 -255v-980
c0 -141 -115 -255 -259 -255h-970c-143 0 -259 114 -259 255v980c0 141 116 255 259 255z" />
    <glyph glyph-name="uni1F17F" unicode="P&#x20de;&#x25a0;" 
d="M964 1113h-325v-760h178v238h145c172 0 277 107 277 259c0 153 -104 263 -275 263zM1062 850c0 -78 -46 -122 -127 -122h-123v244h123c80 0 127 -44 127 -122zM415 1467h970c144 0 259 -114 259 -255v-980c0 -141 -115 -255 -259 -255h-970c-143 0 -259 114 -259 255v980
c0 141 116 255 259 255z" />
    <glyph glyph-name="uni1F180" unicode="Q&#x20de;&#x25a0;" 
d="M1244 284l-104 141c76 67 123 170 123 305c0 252 -161 394 -363 394s-363 -142 -363 -394c0 -250 161 -392 363 -392c41 0 80 6 117 17l49 -71h178zM900 489c-103 0 -186 83 -186 241c0 159 83 242 186 242s186 -83 186 -242c0 -70 -19 -125 -49 -164l-38 47h-142
l81 -119c-12 -3 -25 -5 -38 -5zM415 1467h970c144 0 259 -114 259 -255v-980c0 -141 -115 -255 -259 -255h-970c-143 0 -259 114 -259 255v980c0 141 116 255 259 255z" />
    <glyph glyph-name="uni1F181" unicode="R&#x20de;&#x25a0;" 
d="M777 755v219h133c79 0 129 -39 129 -111c0 -70 -49 -108 -131 -108h-131zM932 1113h-323v-760h170v274h128l134 -274h195l-161 304c81 30 142 105 142 213c0 151 -105 243 -285 243zM415 1467h970c144 0 259 -114 259 -255v-980c0 -141 -115 -255 -259 -255h-970
c-143 0 -259 114 -259 255v980c0 141 116 255 259 255z" />
    <glyph glyph-name="uni1F182" unicode="S&#x20de;&#x25a0;" 
d="M584 576c5 -145 125 -236 313 -236c196 0 320 94 320 243c0 118 -69 188 -217 218l-119 24c-71 13 -105 40 -105 79c0 53 50 88 127 88c76 0 128 -38 135 -95h166c-5 138 -125 231 -300 231c-180 0 -302 -95 -302 -236c0 -112 72 -187 206 -214l117 -24
c86 -18 119 -41 119 -85c0 -56 -53 -91 -139 -91c-85 0 -145 39 -150 98h-171zM415 1467h970c144 0 259 -114 259 -255v-980c0 -141 -115 -255 -259 -255h-970c-143 0 -259 114 -259 255v980c0 141 116 255 259 255z" />
    <glyph glyph-name="uni1F183" unicode="T&#x20de;&#x25a0;" 
d="M989 347v609h223v151h-623v-151h222v-609h178zM415 1467h970c144 0 259 -114 259 -255v-980c0 -141 -115 -255 -259 -255h-970c-143 0 -259 114 -259 255v980c0 141 116 255 259 255z" />
    <glyph glyph-name="uni1F184" unicode="U&#x20de;&#x25a0;" 
d="M900 486c-93 0 -148 53 -148 140v481h-177v-501c0 -164 128 -272 325 -272c196 0 325 109 325 272v501h-176v-481c0 -87 -57 -140 -149 -140zM415 1467h970c144 0 259 -114 259 -255v-980c0 -141 -115 -255 -259 -255h-970c-143 0 -259 114 -259 255v980
c0 141 116 255 259 255z" />
    <glyph glyph-name="uni1F185" unicode="V&#x20de;&#x25a0;" 
d="M1007 345l261 760h-200l-165 -577h-6l-165 577h-200l261 -760h214zM415 1467h970c144 0 259 -114 259 -255v-980c0 -141 -115 -255 -259 -255h-970c-143 0 -259 114 -259 255v980c0 141 116 255 259 255z" />
    <glyph glyph-name="uni1F186" unicode="W&#x20de;&#x25a0;" 
d="M898 850h4l137 -503h157l202 760h-180l-109 -536h-5l-132 536h-144l-132 -536h-5l-108 536h-181l203 -760h156zM415 1467h970c144 0 259 -114 259 -255v-980c0 -141 -115 -255 -259 -255h-970c-143 0 -259 114 -259 255v980c0 141 116 255 259 255z" />
    <glyph glyph-name="uni1F187" unicode="X&#x20de;&#x25a0;" 
d="M1257 1113h-195l-153 -262h-6l-156 262h-205l245 -378l-247 -382h195l157 259h6l158 -259h198l-247 379zM415 1467h970c144 0 259 -114 259 -255v-980c0 -141 -115 -255 -259 -255h-970c-143 0 -259 114 -259 255v980c0 141 116 255 259 255z" />
    <glyph glyph-name="uni1F188" unicode="Y&#x20de;&#x25a0;" 
d="M810 347h181v277l267 483h-197l-159 -311h-4l-159 311h-196l267 -483v-277zM415 1467h970c144 0 259 -114 259 -255v-980c0 -141 -115 -255 -259 -255h-970c-143 0 -259 114 -259 255v980c0 141 116 255 259 255z" />
    <glyph glyph-name="uni1F189" unicode="Z&#x20de;&#x25a0;" 
d="M604 353h594v149h-377v2l366 491v118h-575v-149h359v-2l-367 -491v-118zM415 1467h970c144 0 259 -114 259 -255v-980c0 -141 -115 -255 -259 -255h-970c-143 0 -259 114 -259 255v980c0 141 116 255 259 255z" />
    <glyph glyph-name="zero.blacksquare" unicode="&#x30;&#x20de;&#x25a0;" 
d="M897 481c-84 0 -133 85 -133 250c0 166 49 251 133 251s132 -85 132 -251c0 -165 -48 -250 -132 -250zM896 338c187 0 309 148 309 393c0 246 -122 394 -309 394s-308 -148 -308 -394c0 -245 121 -393 308 -393zM415 1467h970c144 0 259 -114 259 -255v-980
c0 -141 -115 -255 -259 -255h-970c-143 0 -259 114 -259 255v980c0 141 116 255 259 255z" />
    <glyph glyph-name="one.blacksquare" unicode="&#x31;&#x20de;&#x25a0;" 
d="M1034 352v760h-174l-188 -128v-166l183 123h2v-589h177zM415 1467h970c144 0 259 -114 259 -255v-980c0 -141 -115 -255 -259 -255h-970c-143 0 -259 114 -259 255v980c0 141 116 255 259 255z" />
    <glyph glyph-name="two.blacksquare" unicode="&#x32;&#x20de;&#x25a0;" 
d="M783 870v8c0 58 38 106 109 106c61 0 106 -38 106 -91c0 -58 -40 -101 -90 -152l-282 -277v-113h559v147h-325v2l180 175c73 74 130 138 130 232c0 123 -110 217 -272 217c-185 0 -281 -116 -281 -246v-8h166zM415 1467h970c144 0 259 -114 259 -255v-980
c0 -141 -115 -255 -259 -255h-970c-143 0 -259 114 -259 255v980c0 141 116 255 259 255z" />
    <glyph glyph-name="three.blacksquare" unicode="&#x33;&#x20de;&#x25a0;" 
d="M807 674h89c77 0 127 -40 128 -98c0 -58 -51 -99 -132 -99c-73 0 -125 38 -131 90h-162c4 -128 112 -229 293 -229c173 0 308 87 306 230c-3 113 -92 174 -166 182v2c61 11 144 74 142 172c-2 117 -111 201 -278 201c-181 0 -279 -95 -284 -227h165c3 49 46 90 115 90
c64 0 110 -37 111 -88c0 -54 -46 -92 -112 -92h-84v-134zM415 1467h970c144 0 259 -114 259 -255v-980c0 -141 -115 -255 -259 -255h-970c-143 0 -259 114 -259 255v980c0 141 116 255 259 255z" />
    <glyph glyph-name="four.blacksquare" unicode="&#x34;&#x20de;&#x25a0;" 
d="M864 1112c-147 -229 -225 -354 -295 -485v-141h379v-134h161v134h101v143h-101v483h-245zM948 629h-219v1c65 113 139 224 216 344h3v-345zM415 1467h970c144 0 259 -114 259 -255v-980c0 -141 -115 -255 -259 -255h-970c-143 0 -259 114 -259 255v980
c0 141 116 255 259 255z" />
    <glyph glyph-name="five.blacksquare" unicode="&#x35;&#x20de;&#x25a0;" 
d="M613 565c5 -130 119 -224 287 -224c183 0 305 108 305 274c0 155 -114 246 -255 246c-84 0 -140 -35 -161 -65h-2c4 49 9 131 15 181h358v137h-498l-33 -449h152c17 31 59 67 123 67c72 0 132 -47 132 -123c0 -82 -64 -130 -131 -130c-62 0 -119 30 -130 86h-162z
M415 1467h970c144 0 259 -114 259 -255v-980c0 -141 -115 -255 -259 -255h-970c-143 0 -259 114 -259 255v980c0 141 116 255 259 255z" />
    <glyph glyph-name="six.blacksquare" unicode="&#x36;&#x20de;&#x25a0;" 
d="M913 341c175 0 299 111 299 266c0 141 -106 245 -252 245c-89 0 -158 -38 -193 -107h-10c0 152 57 241 158 241c57 0 100 -29 112 -75h175c-18 125 -136 214 -289 214c-200 0 -325 -151 -325 -397c0 -259 136 -387 325 -387zM911 478c-74 0 -129 56 -129 127
c0 70 53 122 129 122c77 0 129 -51 129 -123c0 -71 -55 -126 -129 -126zM415 1467h970c144 0 259 -114 259 -255v-980c0 -141 -115 -255 -259 -255h-970c-143 0 -259 114 -259 255v980c0 141 116 255 259 255z" />
    <glyph glyph-name="seven.blacksquare" unicode="&#x37;&#x20de;&#x25a0;" 
d="M622 1112v-148h382v-2l-324 -610h188l314 614v146h-560zM415 1467h970c144 0 259 -114 259 -255v-980c0 -141 -115 -255 -259 -255h-970c-143 0 -259 114 -259 255v980c0 141 116 255 259 255z" />
    <glyph glyph-name="eight.blacksquare" unicode="&#x38;&#x20de;&#x25a0;" 
d="M897 803c-68 0 -114 40 -114 98c0 59 46 99 114 99c67 0 114 -40 114 -99c0 -58 -47 -98 -114 -98zM897 463c-81 0 -140 48 -140 113c0 66 59 114 140 114s140 -48 140 -114c0 -65 -59 -113 -140 -113zM897 338c189 0 314 89 314 227c0 94 -63 165 -165 185v1
c86 28 133 88 133 170c0 122 -114 204 -282 204c-169 0 -282 -82 -282 -204c0 -82 47 -142 132 -170v-1c-101 -20 -164 -91 -164 -185c0 -137 125 -227 314 -227zM415 1467h970c144 0 259 -114 259 -255v-980c0 -141 -115 -255 -259 -255h-970c-143 0 -259 114 -259 255v980
c0 141 116 255 259 255z" />
    <glyph glyph-name="nine.blacksquare" unicode="&#x39;&#x20de;&#x25a0;" 
d="M886 341c202 0 326 150 326 395c0 240 -122 389 -325 389c-175 0 -299 -111 -299 -267c0 -141 106 -245 252 -245c89 0 158 38 193 108h10c2 -150 -56 -242 -155 -242c-57 0 -102 29 -115 74h-175c20 -126 138 -212 288 -212zM889 740c-76 0 -129 51 -129 123
c0 69 54 123 129 123s129 -55 129 -125c0 -69 -54 -121 -129 -121zM415 1467h970c144 0 259 -114 259 -255v-980c0 -141 -115 -255 -259 -255h-970c-143 0 -259 114 -259 255v980c0 141 116 255 259 255z" />
    <glyph glyph-name="plus.uc.blacksquare" unicode="&#x2b;&#x20de;&#x25a0;" 
d="M976 656h228v150h-228v226h-152v-226h-228v-150h228v-233h152v233zM415 1467h970c144 0 259 -114 259 -255v-980c0 -141 -115 -255 -259 -255h-970c-143 0 -259 114 -259 255v980c0 141 116 255 259 255z" />
    <glyph glyph-name="minus.uc.blacksquare" unicode="&#x2212;&#x20de;&#x25a0;" 
d="M1186 650v155h-572v-155h572zM415 1467h970c144 0 259 -114 259 -255v-980c0 -141 -115 -255 -259 -255h-970c-143 0 -259 114 -259 255v980c0 141 116 255 259 255z" />
    <glyph glyph-name="multiply.uc.blacksquare" unicode="&#xd7;&#x20de;&#x25a0;" 
d="M900 837l-176 169l-107 -109l176 -170l-176 -168l107 -110l176 169l176 -169l107 110l-176 168l176 170l-107 109zM415 1467h970c144 0 259 -114 259 -255v-980c0 -141 -115 -255 -259 -255h-970c-143 0 -259 114 -259 255v980c0 141 116 255 259 255z" />
    <glyph glyph-name="divide.uc.blacksquare" unicode="&#xf7;&#x20de;&#x25a0;" 
d="M802 959c0 -52 43 -91 97 -91c56 0 100 39 100 91c0 54 -44 92 -100 92c-54 0 -97 -38 -97 -92zM1186 662v129h-572v-129h572zM802 499c0 -52 43 -91 98 -91s99 39 99 91c0 54 -44 92 -99 92s-98 -38 -98 -92zM415 1467h970c144 0 259 -114 259 -255v-980
c0 -141 -115 -255 -259 -255h-970c-143 0 -259 114 -259 255v980c0 141 116 255 259 255z" />
    <glyph glyph-name="equal.uc.blacksquare" unicode="&#x3d;&#x20de;&#x25a0;" 
d="M1177 790v140h-554v-140h554zM1177 524v139h-554v-139h554zM415 1467h970c144 0 259 -114 259 -255v-980c0 -141 -115 -255 -259 -255h-970c-143 0 -259 114 -259 255v980c0 141 116 255 259 255z" />
    <glyph glyph-name="greater.uc.blacksquare" unicode="&#x3e;&#x20de;&#x25a0;" 
d="M1195 776l-547 286v-171l346 -166l1 -2l-347 -162v-168l547 275v108zM415 1467h970c144 0 259 -114 259 -255v-980c0 -141 -115 -255 -259 -255h-970c-143 0 -259 114 -259 255v980c0 141 116 255 259 255z" />
    <glyph glyph-name="less.uc.blacksquare" unicode="&#x3c;&#x20de;&#x25a0;" 
d="M599 668l546 -275v168c-98 46 -246 117 -345 162v2l345 166v171l-546 -286v-108zM415 1467h970c144 0 259 -114 259 -255v-980c0 -141 -115 -255 -259 -255h-970c-143 0 -259 114 -259 255v980c0 141 116 255 259 255z" />
    <glyph glyph-name="numbersign.blacksquare" unicode="&#x23;&#x20de;&#x25a0;" 
d="M841 804h143l-32 -151h-142zM1217 793l25 127h-117l39 188h-132l-38 -188h-118l40 188h-132l-38 -188h-110l-25 -127h109l-27 -120h-111l-25 -128h110l-41 -196h131l43 196h117l-42 -196h132l41 196h114l25 128h-112c0 4 24 115 25 120h117zM415 1467h970
c144 0 259 -114 259 -255v-980c0 -141 -115 -255 -259 -255h-970c-143 0 -259 114 -259 255v980c0 141 116 255 259 255z" />
    <glyph glyph-name="uni25BC.blacksquare" unicode="&#x25bc;&#x20de;&#x25a0;" 
d="M1247 977h-693l346 -602zM415 1467h970c144 0 259 -114 259 -255v-980c0 -141 -115 -255 -259 -255h-970c-143 0 -259 114 -259 255v980c0 141 116 255 259 255z" />
    <glyph glyph-name="uni25B2.blacksquare" unicode="&#x25b2;&#x20de;&#x25a0;" 
d="M1247 491l-347 600l-346 -600h693zM415 1467h970c144 0 259 -114 259 -255v-980c0 -141 -115 -255 -259 -255h-970c-143 0 -259 114 -259 255v980c0 141 116 255 259 255z" />
    <glyph glyph-name="uni25C0.blacksquare" unicode="&#x25c0;&#x20de;&#x25a0;" 
d="M1141 389v693l-601 -346zM415 1467h970c144 0 259 -114 259 -255v-980c0 -141 -115 -255 -259 -255h-970c-143 0 -259 114 -259 255v980c0 141 116 255 259 255z" />
    <glyph glyph-name="uni25B6.blacksquare" unicode="&#x25b6;&#x20de;&#x25a0;" 
d="M659 389l601 347l-601 346v-693zM415 1467h970c144 0 259 -114 259 -255v-980c0 -141 -115 -255 -259 -255h-970c-143 0 -259 114 -259 255v980c0 141 116 255 259 255z" />
    <glyph glyph-name="question.blacksquare" unicode="&#x3f;&#x20de;&#x25a0;" 
d="M772 429c0 -56 45 -94 111 -94c68 0 112 38 112 94c0 58 -44 95 -112 95c-66 0 -111 -36 -111 -95zM903 1126c-142 0 -271 -66 -271 -232v-4l161 1c0 56 35 100 100 100c51 0 97 -25 97 -81c0 -54 -46 -75 -97 -117c-58 -42 -99 -89 -95 -163c0 -4 1 -37 1 -39h156v26
c0 53 22 68 89 114c67 47 119 88 119 185c0 136 -118 210 -260 210zM415 1467h970c144 0 259 -114 259 -255v-980c0 -141 -115 -255 -259 -255h-970c-143 0 -259 114 -259 255v980c0 141 116 255 259 255z" />
    <glyph glyph-name="exclam.blacksquare" unicode="&#x21;&#x20de;&#x25a0;" 
d="M805 1112l19 -503h153l20 503h-192zM790 430c0 -55 44 -94 111 -94s111 39 111 94c0 57 -44 94 -111 94s-111 -37 -111 -94zM415 1467h970c144 0 259 -114 259 -255v-980c0 -141 -115 -255 -259 -255h-970c-143 0 -259 114 -259 255v980c0 141 116 255 259 255z" />
    <glyph glyph-name="uni2717.blacksquare" unicode="&#x2717;&#x20de;&#x25a0;" 
d="M527 991l270 -267l-270 -265l106 -110l270 265l270 -265l105 111l-270 264l270 265l-105 109l-270 -265l-271 267zM415 1467h970c144 0 259 -114 259 -255v-980c0 -141 -115 -255 -259 -255h-970c-143 0 -259 114 -259 255v980c0 141 116 255 259 255z" />
    <glyph glyph-name="uni2713.blacksquare" unicode="&#x2713;&#x20de;&#x25a0;" 
d="M767 369l597 591l-110 117l-487 -481l-213 211l-112 -115zM415 1467h970c144 0 259 -114 259 -255v-980c0 -141 -115 -255 -259 -255h-970c-143 0 -259 114 -259 255v980c0 141 116 255 259 255z" />
    <glyph glyph-name=".notdef" horiz-adv-x="2048" 
d="M100 -494v247h1848v-247h-1848zM100 -55v247h1848v-247h-1848zM100 385v247h1848v-247h-1848zM100 824v247h1848v-247h-1848zM100 1264v247h1848v-247h-1848zM100 1703v247h1848v-247h-1848z" />
    <glyph glyph-name=".null" horiz-adv-x="0" 
 />
    <glyph glyph-name="nonmarkingreturn" horiz-adv-x="0" 
 />
    <glyph glyph-name="space" unicode=" " horiz-adv-x="560" 
 />
    <glyph glyph-name="A" unicode="A" horiz-adv-x="1423" 
d="M1115 0l-132 383h-550l-133 -383h-230l521 1443h241l521 -1443h-238zM700 1181l-210 -610h436l-209 610h-17z" />
    <glyph glyph-name="Agrave" unicode="&#xc0;" horiz-adv-x="1423" 
d="M1115 0l-132 383h-550l-133 -383h-230l521 1443h241l521 -1443h-238zM700 1181l-210 -610h436l-209 610h-17zM619 1582l-246 309h246l175 -309h-175z" />
    <glyph glyph-name="Aacute" unicode="&#xc1;" horiz-adv-x="1423" 
d="M1115 0l-132 383h-550l-133 -383h-230l521 1443h241l521 -1443h-238zM700 1181l-210 -610h436l-209 610h-17zM805 1582h-175l175 309h246z" />
    <glyph glyph-name="Adieresis" unicode="&#xc4;" horiz-adv-x="1423" 
d="M1115 0l-132 383h-550l-133 -383h-230l521 1443h241l521 -1443h-238zM700 1181l-210 -610h436l-209 610h-17zM487 1618c-73 0 -133 60 -133 136c0 75 60 136 133 136s132 -61 132 -136c0 -76 -59 -136 -132 -136zM937 1618c-73 0 -132 60 -132 136c0 75 59 136 132 136
c74 0 133 -61 133 -136c0 -76 -59 -136 -133 -136z" />
    <glyph glyph-name="Adieresismacron" unicode="&#x1de;" horiz-adv-x="1423" 
d="M1115 0l-132 383h-550l-133 -383h-230l521 1443h241l521 -1443h-238zM700 1181l-210 -610h436l-209 610h-17zM498 1840c74 0 130 -57 130 -132c0 -74 -56 -131 -130 -131c-73 0 -130 57 -130 131c0 75 57 132 130 132zM362 2107h700v-147h-700v147zM926 1840
c73 0 130 -57 130 -132c0 -74 -57 -131 -130 -131c-74 0 -130 57 -130 131c0 75 56 132 130 132z" />
    <glyph glyph-name="Aring" unicode="&#x212b;" horiz-adv-x="1423" 
d="M1115 0l-132 383h-550l-133 -383h-230l521 1443h241l521 -1443h-238zM700 1181l-210 -610h436l-209 610h-17zM712 1544c-112 0 -203 87 -203 201c0 113 91 201 203 201s203 -88 203 -201c0 -114 -91 -201 -203 -201zM712 1647c58 0 101 41 101 98s-43 98 -101 98
s-101 -41 -101 -98s43 -98 101 -98z" />
    <glyph glyph-name="Aring" unicode="&#xc5;" horiz-adv-x="1423" 
d="M1115 0l-132 383h-550l-133 -383h-230l521 1443h241l521 -1443h-238zM700 1181l-210 -610h436l-209 610h-17zM712 1544c-112 0 -203 87 -203 201c0 113 91 201 203 201s203 -88 203 -201c0 -114 -91 -201 -203 -201zM712 1647c58 0 101 41 101 98s-43 98 -101 98
s-101 -41 -101 -98s43 -98 101 -98z" />
    <glyph glyph-name="Aringacute" unicode="&#x1fa;" horiz-adv-x="1423" 
d="M1115 0l-132 383h-550l-133 -383h-230l521 1443h241l521 -1443h-238zM700 1181l-210 -610h436l-209 610h-17zM712 1532c-115 0 -207 88 -207 204c0 115 92 202 207 202s207 -87 207 -202c0 -116 -92 -204 -207 -204zM712 1640c54 0 95 41 95 94s-41 95 -95 95
s-95 -42 -95 -95s41 -94 95 -94zM754 2191h214l-160 -186h-188z" />
    <glyph glyph-name="Atilde" unicode="&#xc3;" horiz-adv-x="1423" 
d="M1115 0l-132 383h-550l-133 -383h-230l521 1443h241l521 -1443h-238zM700 1181l-210 -610h436l-209 610h-17zM844 1579c-161 0 -175 145 -263 145c-50 0 -76 -44 -76 -145h-157c0 190 88 301 230 301c162 0 179 -152 269 -152c54 0 76 50 76 152h156
c0 -189 -88 -301 -235 -301z" />
    <glyph glyph-name="Abrevegrave" unicode="&#x1eb0;" horiz-adv-x="1423" 
d="M1115 0l-132 383h-550l-133 -383h-230l521 1443h241l521 -1443h-238zM700 1181l-210 -610h436l-209 610h-17zM1089 1889c0 -185 -143 -312 -377 -312s-377 127 -377 312h173c1 -101 79 -167 204 -167s203 66 204 167h173zM839 1896h-204l-240 236h236z" />
    <glyph glyph-name="Adotmacron" unicode="&#x1e0;" horiz-adv-x="1423" 
d="M1115 0l-132 383h-550l-133 -383h-230l521 1443h241l521 -1443h-238zM700 1181l-210 -610h436l-209 610h-17zM712 1576c-75 0 -132 58 -132 132c0 75 57 132 132 132s132 -57 132 -132c0 -74 -57 -132 -132 -132zM1062 2107v-147h-700v147h700z" />
    <glyph glyph-name="Aringbelow" unicode="&#x1e00;" horiz-adv-x="1423" 
d="M1115 0l-132 383h-550l-133 -383h-230l521 1443h241l521 -1443h-238zM700 1181l-210 -610h436l-209 610h-17zM707 -512c-130 0 -237 101 -237 234s107 233 237 233s237 -100 237 -233s-107 -234 -237 -234zM707 -393c66 0 117 49 117 115c0 65 -51 115 -117 115
s-117 -50 -117 -115c0 -66 51 -115 117 -115z" />
    <glyph glyph-name="Acircumflex" unicode="&#xc2;" horiz-adv-x="1423" 
d="M1115 0l-132 383h-550l-133 -383h-230l521 1443h241l521 -1443h-238zM700 1181l-210 -610h436l-209 610h-17zM611 1891h202l295 -309h-225l-163 178h-16l-163 -178h-225z" />
    <glyph glyph-name="Acircumflexdotbelow" unicode="&#x1eac;" horiz-adv-x="1423" 
d="M1115 0l-132 383h-550l-133 -383h-230l521 1443h241l521 -1443h-238zM700 1181l-210 -610h436l-209 610h-17zM611 1891h202l295 -309h-225l-163 178h-16l-163 -178h-225zM707 -418c-75 0 -136 62 -136 140s61 140 136 140s136 -62 136 -140s-61 -140 -136 -140z" />
    <glyph glyph-name="Acircumflexacute" unicode="&#x1ea4;" horiz-adv-x="1423" 
d="M1115 0l-132 383h-550l-133 -383h-230l521 1443h241l521 -1443h-238zM700 1181l-210 -610h436l-209 610h-17zM597 1826h230l288 -249h-240l-154 138h-18l-154 -138h-240zM924 1867l207 265h236l-234 -265h-209z" />
    <glyph glyph-name="Acircumflextilde" unicode="&#x1eaa;" horiz-adv-x="1423" 
d="M1115 0l-132 383h-550l-133 -383h-230l521 1443h241l521 -1443h-238zM700 1181l-210 -610h436l-209 610h-17zM855 1873c-167 0 -173 126 -277 126c-55 0 -88 -37 -91 -109h-150c0 156 95 257 232 257c167 0 173 -126 277 -126c47 0 87 33 92 111h149
c0 -152 -95 -259 -232 -259zM597 1823h230l288 -246h-240l-154 138h-18l-154 -138h-240z" />
    <glyph glyph-name="Acircumflexgrave" unicode="&#x1ea6;" horiz-adv-x="1423" 
d="M1115 0l-132 383h-550l-133 -383h-230l521 1443h241l521 -1443h-238zM700 1181l-210 -610h436l-209 610h-17zM597 1826h230l288 -249h-240l-154 138h-18l-154 -138h-240zM1179 1867h-209l-233 265h236z" />
    <glyph glyph-name="Acircumflexhookabove" unicode="&#x1ea8;" horiz-adv-x="1423" 
d="M1115 0l-132 383h-550l-133 -383h-230l521 1443h241l521 -1443h-238zM700 1181l-210 -610h436l-209 610h-17zM597 1826h230l288 -249h-240l-154 138h-18l-154 -138h-240zM836 1999v122c24 9 77 17 135 17c121 0 202 -70 202 -176c0 -89 -56 -167 -143 -199l-101 85
c55 20 86 58 86 99c0 40 -35 68 -86 68c-36 0 -72 -7 -93 -16z" />
    <glyph glyph-name="Abreve" unicode="&#x102;" horiz-adv-x="1423" 
d="M1115 0l-132 383h-550l-133 -383h-230l521 1443h241l521 -1443h-238zM700 1181l-210 -610h436l-209 610h-17zM343 1890h174c0 -100 70 -167 195 -167s195 67 195 167h174c0 -185 -135 -313 -369 -313s-369 128 -369 313z" />
    <glyph glyph-name="Abreveacute" unicode="&#x1eae;" horiz-adv-x="1423" 
d="M1115 0l-132 383h-550l-133 -383h-230l521 1443h241l521 -1443h-238zM700 1181l-210 -610h436l-209 610h-17zM335 1889h173c1 -101 79 -167 204 -167s203 66 204 167h173c0 -185 -143 -312 -377 -312s-377 127 -377 312zM585 1896l208 236h236l-240 -236h-204z" />
    <glyph glyph-name="Abrevetilde" unicode="&#x1eb4;" horiz-adv-x="1423" 
d="M1115 0l-132 383h-550l-133 -383h-230l521 1443h241l521 -1443h-238zM700 1181l-210 -610h436l-209 610h-17zM342 1832h169c1 -53 74 -114 201 -114s200 61 201 114h169c0 -131 -140 -255 -370 -255s-370 124 -370 255zM865 1879c-160 0 -188 124 -289 124
c-53 0 -85 -37 -86 -92h-150c0 137 85 236 219 236c160 0 188 -124 289 -124c45 0 84 33 87 94h149c0 -132 -85 -238 -219 -238z" />
    <glyph glyph-name="Abrevehookabove" unicode="&#x1eb2;" horiz-adv-x="1423" 
d="M1115 0l-132 383h-550l-133 -383h-230l521 1443h241l521 -1443h-238zM700 1181l-210 -610h436l-209 610h-17zM533 2051v121c30 14 77 25 128 25c133 0 219 -73 219 -187c0 -94 -65 -175 -173 -216l-71 95c59 20 95 62 95 107c0 43 -40 76 -95 76c-37 0 -76 -9 -103 -21z
M339 1862h166c2 -89 77 -149 207 -149s205 60 207 149h166c0 -168 -141 -292 -373 -292s-373 124 -373 292z" />
    <glyph glyph-name="Abrevedotbelow" unicode="&#x1eb6;" horiz-adv-x="1423" 
d="M1115 0l-132 383h-550l-133 -383h-230l521 1443h241l521 -1443h-238zM700 1181l-210 -610h436l-209 610h-17zM343 1890h174c0 -100 70 -167 195 -167s195 67 195 167h174c0 -185 -135 -313 -369 -313s-369 128 -369 313zM707 -418c-75 0 -136 62 -136 140s61 140 136 140
s136 -62 136 -140s-61 -140 -136 -140z" />
    <glyph glyph-name="Ainvertedbreve" unicode="&#x202;" horiz-adv-x="1423" 
d="M1115 0l-132 383h-550l-133 -383h-230l521 1443h241l521 -1443h-238zM700 1181l-210 -610h436l-209 610h-17zM1081 1577h-174c0 101 -70 168 -195 168s-195 -67 -195 -168h-174c0 185 135 313 369 313s369 -128 369 -313z" />
    <glyph glyph-name="Acaron" unicode="&#x1cd;" horiz-adv-x="1423" 
d="M1115 0l-132 383h-550l-133 -383h-230l521 1443h241l521 -1443h-238zM700 1181l-210 -610h436l-209 610h-17zM813 1582h-202l-295 309h225l163 -178h16l163 178h225z" />
    <glyph glyph-name="Adotaccent" unicode="&#x226;" horiz-adv-x="1423" 
d="M1115 0l-132 383h-550l-133 -383h-230l521 1443h241l521 -1443h-238zM700 1181l-210 -610h436l-209 610h-17zM712 1615c-75 0 -136 62 -136 140s61 140 136 140s136 -62 136 -140s-61 -140 -136 -140z" />
    <glyph glyph-name="Adotbelow" unicode="&#x1ea0;" horiz-adv-x="1423" 
d="M1115 0l-132 383h-550l-133 -383h-230l521 1443h241l521 -1443h-238zM700 1181l-210 -610h436l-209 610h-17zM707 -418c-75 0 -136 62 -136 140s61 140 136 140s136 -62 136 -140s-61 -140 -136 -140z" />
    <glyph glyph-name="Ahookabove" unicode="&#x1ea2;" horiz-adv-x="1423" 
d="M1115 0l-132 383h-550l-133 -383h-230l521 1443h241l521 -1443h-238zM700 1181l-210 -610h436l-209 610h-17zM526 1800v135c32 13 86 22 139 22c142 0 233 -74 233 -192c0 -100 -76 -189 -188 -229l-80 104c63 21 108 63 108 106s-42 75 -102 75c-44 0 -85 -8 -110 -21z
" />
    <glyph glyph-name="Adblgrave" unicode="&#x200;" horiz-adv-x="1423" 
d="M1115 0l-132 383h-550l-133 -383h-230l521 1443h241l521 -1443h-238zM700 1181l-210 -610h436l-209 610h-17zM981 1582h-163l-170 309h213zM633 1582h-164l-230 309h230z" />
    <glyph glyph-name="Amacron" unicode="&#x100;" horiz-adv-x="1423" 
d="M1115 0l-132 383h-550l-133 -383h-230l521 1443h241l521 -1443h-238zM700 1181l-210 -610h436l-209 610h-17zM1052 1829v-156h-680v156h680z" />
    <glyph glyph-name="Aogonek" unicode="&#x104;" horiz-adv-x="1423" 
d="M490 571h436l-209 610h-17zM1353 0h-11c-101 -39 -182 -110 -182 -191c0 -60 41 -99 114 -99c21 0 44 3 69 10v-149c-39 -13 -83 -20 -124 -20c-136 0 -248 75 -248 208c0 83 45 171 143 245l-131 379h-550l-133 -383h-230l521 1443h241z" />
    <glyph glyph-name="Aogonek.mini" horiz-adv-x="1423" 
d="M490 571h436l-209 610h-17zM1353 0h-11c-101 -39 -184 -103 -184 -182c0 -55 37 -93 111 -93c21 0 44 3 69 10v-149c-39 -13 -81 -21 -122 -21c-136 0 -247 70 -247 200c0 83 44 164 145 238l-131 380h-550l-133 -383h-230l521 1443h241z" />
    <glyph glyph-name="Aringbelow.mini" horiz-adv-x="1423" 
d="M1115 0l-132 383h-550l-133 -383h-230l521 1443h241l521 -1443h-238zM700 1181l-210 -610h436l-209 610h-17zM707 -494c-112 0 -203 87 -203 201c0 113 91 201 203 201s203 -88 203 -201c0 -114 -91 -201 -203 -201zM707 -391c58 0 101 41 101 98s-43 98 -101 98
s-101 -41 -101 -98s43 -98 101 -98z" />
    <glyph glyph-name="A.mini" horiz-adv-x="1420" 
d="M1113 0l-144 378h-526l-145 -378h-228l515 1301h249l516 -1301h-237zM702 1081l-196 -522h401l-196 522h-9z" />
    <glyph glyph-name="Adieresismacron.mini" horiz-adv-x="1420" 
d="M1113 0l-144 378h-526l-145 -378h-228l515 1301h249l516 -1301h-237zM702 1081l-196 -522h401l-196 522h-9zM360 1785v151h700v-151h-700zM502 1424c-71 0 -126 54 -126 123c0 70 55 124 126 124s126 -54 126 -124c0 -69 -55 -123 -126 -123zM918 1424
c-71 0 -126 54 -126 123c0 70 55 124 126 124s126 -54 126 -124c0 -69 -55 -123 -126 -123z" />
    <glyph glyph-name="Aringacute.mini" horiz-adv-x="1420" 
d="M1113 0l-144 378h-526l-145 -378h-228l515 1301h249l516 -1301h-237zM702 1081l-196 -522h401l-196 522h-9zM618 1563c0 -52 39 -92 92 -92c52 0 92 40 92 92s-40 91 -92 91c-53 0 -92 -40 -92 -91zM710 1370c-110 0 -198 84 -198 194s87 193 198 193
c110 0 198 -83 198 -193s-88 -194 -198 -194zM714 1950h205l-111 -131h-168z" />
    <glyph glyph-name="Abrevegrave.mini" horiz-adv-x="1420" 
d="M1113 0l-144 378h-526l-145 -378h-228l515 1301h249l516 -1301h-237zM702 1081l-196 -522h401l-196 522h-9zM333 1726h173c1 -97 77 -161 204 -161s203 64 204 161h173c0 -175 -139 -305 -377 -305s-377 130 -377 305zM824 1731h-209l-205 219h238z" />
    <glyph glyph-name="Adotmacron.mini" horiz-adv-x="1420" 
d="M1113 0l-144 378h-526l-145 -378h-228l515 1301h249l516 -1301h-237zM702 1081l-196 -522h401l-196 522h-9zM710 1424c-74 0 -130 56 -130 129s56 128 130 128s130 -55 130 -128s-56 -129 -130 -129zM1060 1788h-700v148h700v-148z" />
    <glyph glyph-name="Acircumflexacute.mini" horiz-adv-x="1420" 
d="M1113 0l-144 378h-526l-145 -378h-228l515 1301h249l516 -1301h-237zM702 1081l-196 -522h401l-196 522h-9zM827 1670l290 -246h-244l-154 137h-18l-154 -137h-244l290 246h234zM923 1715l178 235h241l-206 -235h-213z" />
    <glyph glyph-name="Acircumflextilde.mini" horiz-adv-x="1420" 
d="M1113 0l-144 378h-526l-145 -378h-228l515 1301h249l516 -1301h-237zM702 1081l-196 -522h401l-196 522h-9zM829 1663l288 -239h-244l-154 135h-18l-154 -135h-244l288 239h238zM864 1708c-163 0 -187 101 -288 101c-56 0 -88 -33 -91 -79h-151c0 130 82 220 220 220
c167 0 194 -101 290 -101c58 0 86 26 91 92h151c0 -140 -82 -233 -222 -233z" />
    <glyph glyph-name="Acircumflexgrave.mini" horiz-adv-x="1420" 
d="M1113 0l-144 378h-526l-145 -378h-228l515 1301h249l516 -1301h-237zM702 1081l-196 -522h401l-196 522h-9zM827 1670l290 -246h-244l-154 137h-18l-154 -137h-244l290 246h234zM1164 1715h-214l-206 235h241z" />
    <glyph glyph-name="Acircumflexhookabove.mini" horiz-adv-x="1420" 
d="M1113 0l-144 378h-526l-145 -378h-228l515 1301h249l516 -1301h-237zM702 1081l-196 -522h401l-196 522h-9zM827 1670l290 -246h-244l-154 137h-18l-154 -137h-244l290 246h234zM839 1817v115c25 9 80 18 138 18c120 0 202 -69 202 -176c0 -87 -58 -166 -138 -192l-99 83
c50 17 80 57 80 97c0 41 -35 71 -87 71c-36 0 -75 -7 -96 -16z" />
    <glyph glyph-name="Abreveacute.mini" horiz-adv-x="1420" 
d="M1113 0l-144 378h-526l-145 -378h-228l515 1301h249l516 -1301h-237zM702 1081l-196 -522h401l-196 522h-9zM333 1726h173c1 -97 77 -161 204 -161s203 64 204 161h173c0 -175 -139 -305 -377 -305s-377 130 -377 305zM582 1731l175 219h239l-206 -219h-208z" />
    <glyph glyph-name="Abrevehookabove.mini" horiz-adv-x="1420" 
d="M1113 0l-144 378h-526l-145 -378h-228l515 1301h249l516 -1301h-237zM702 1081l-196 -522h401l-196 522h-9zM338 1701h170c1 -78 73 -141 202 -141s201 63 202 141h170c0 -151 -136 -280 -372 -280s-372 129 -372 280zM541 1817v108c34 16 80 25 123 25
c112 0 195 -55 195 -147c0 -83 -67 -155 -143 -172l-71 86c33 5 73 30 73 70c0 35 -30 49 -81 49c-46 0 -71 -8 -96 -19z" />
    <glyph glyph-name="Abrevetilde.mini" horiz-adv-x="1420" 
d="M1113 0l-144 378h-526l-145 -378h-228l515 1301h249l516 -1301h-237zM702 1081l-196 -522h401l-196 522h-9zM338 1671h170c1 -50 73 -109 202 -109s201 59 202 109h170c0 -123 -137 -250 -372 -250s-372 127 -372 250zM864 1709c-154 0 -188 101 -287 101
c-55 0 -88 -28 -91 -75h-148c0 118 78 215 216 215c150 0 193 -101 289 -101c57 0 86 27 91 91h148c0 -128 -75 -231 -218 -231z" />
    <glyph glyph-name="B" unicode="B" horiz-adv-x="1373" 
d="M774 0h-593v1443h580c271 0 434 -138 434 -360c0 -151 -111 -286 -253 -310v-17c195 -20 325 -159 325 -347c0 -254 -185 -409 -493 -409zM405 1253v-421h266c198 0 301 73 301 210c0 133 -97 211 -263 211h-304zM405 190h324c202 0 309 82 309 235
c0 151 -111 230 -322 230h-311v-465z" />
    <glyph glyph-name="Blinebelow" unicode="&#x1e06;" horiz-adv-x="1373" 
d="M774 0h-593v1443h580c271 0 434 -138 434 -360c0 -151 -111 -286 -253 -310v-17c195 -20 325 -159 325 -347c0 -254 -185 -409 -493 -409zM405 1253v-421h266c198 0 301 73 301 210c0 133 -97 211 -263 211h-304zM405 190h324c202 0 309 82 309 235
c0 151 -111 230 -322 230h-311v-465zM959 -200v-156h-680v156h680z" />
    <glyph glyph-name="Bdotbelow" unicode="&#x1e04;" horiz-adv-x="1373" 
d="M774 0h-593v1443h580c271 0 434 -138 434 -360c0 -151 -111 -286 -253 -310v-17c195 -20 325 -159 325 -347c0 -254 -185 -409 -493 -409zM405 1253v-421h266c198 0 301 73 301 210c0 133 -97 211 -263 211h-304zM405 190h324c202 0 309 82 309 235
c0 151 -111 230 -322 230h-311v-465zM619 -418c-75 0 -136 62 -136 140s61 140 136 140s136 -62 136 -140s-61 -140 -136 -140z" />
    <glyph glyph-name="Bdotaccent" unicode="&#x1e02;" horiz-adv-x="1373" 
d="M774 0h-593v1443h580c271 0 434 -138 434 -360c0 -151 -111 -286 -253 -310v-17c195 -20 325 -159 325 -347c0 -254 -185 -409 -493 -409zM405 1253v-421h266c198 0 301 73 301 210c0 133 -97 211 -263 211h-304zM405 190h324c202 0 309 82 309 235
c0 151 -111 230 -322 230h-311v-465zM619 1615c-75 0 -136 62 -136 140s61 140 136 140s136 -62 136 -140s-61 -140 -136 -140z" />
    <glyph glyph-name="C" unicode="C" horiz-adv-x="1485" 
d="M773 -35c-401 0 -651 289 -651 756c0 468 249 757 650 757c318 0 564 -206 600 -500h-223c-42 177 -187 291 -377 291c-259 0 -421 -211 -421 -548c0 -336 162 -547 422 -547c191 0 336 103 376 266h223c-40 -285 -277 -475 -599 -475z" />
    <glyph glyph-name="Cacute" unicode="&#x106;" horiz-adv-x="1485" 
d="M773 -35c-401 0 -651 289 -651 756c0 468 249 757 650 757c318 0 564 -206 600 -500h-223c-42 177 -187 291 -377 291c-259 0 -421 -211 -421 -548c0 -336 162 -547 422 -547c191 0 336 103 376 266h223c-40 -285 -277 -475 -599 -475zM865 1582h-175l175 309h246z" />
    <glyph glyph-name="Ccaron" unicode="&#x10c;" horiz-adv-x="1485" 
d="M773 -35c-401 0 -651 289 -651 756c0 468 249 757 650 757c318 0 564 -206 600 -500h-223c-42 177 -187 291 -377 291c-259 0 -421 -211 -421 -548c0 -336 162 -547 422 -547c191 0 336 103 376 266h223c-40 -285 -277 -475 -599 -475zM873 1582h-202l-295 309h225
l163 -178h16l163 178h225z" />
    <glyph glyph-name="Ccircumflex" unicode="&#x108;" horiz-adv-x="1485" 
d="M773 -35c-401 0 -651 289 -651 756c0 468 249 757 650 757c318 0 564 -206 600 -500h-223c-42 177 -187 291 -377 291c-259 0 -421 -211 -421 -548c0 -336 162 -547 422 -547c191 0 336 103 376 266h223c-40 -285 -277 -475 -599 -475zM671 1891h202l295 -309h-225
l-163 178h-16l-163 -178h-225z" />
    <glyph glyph-name="Cdotaccent" unicode="&#x10a;" horiz-adv-x="1485" 
d="M773 -35c-401 0 -651 289 -651 756c0 468 249 757 650 757c318 0 564 -206 600 -500h-223c-42 177 -187 291 -377 291c-259 0 -421 -211 -421 -548c0 -336 162 -547 422 -547c191 0 336 103 376 266h223c-40 -285 -277 -475 -599 -475zM772 1615c-75 0 -136 62 -136 140
s61 140 136 140s136 -62 136 -140s-61 -140 -136 -140z" />
    <glyph glyph-name="Ccedilla" unicode="&#xc7;" horiz-adv-x="1485" 
d="M1372 978h-223c-42 177 -187 291 -377 291c-259 0 -421 -211 -421 -548c0 -336 162 -547 422 -547c191 0 336 103 376 266h223c-37 -260 -238 -442 -518 -471l-55 -90c131 -3 217 -64 217 -169c0 -141 -122 -200 -267 -200c-49 0 -100 7 -146 18v125
c16 -4 63 -13 112 -13c61 0 124 15 124 63c0 44 -48 57 -142 57h-63v103l63 106c-356 34 -575 315 -575 752c0 468 249 757 650 757c318 0 564 -206 600 -500z" />
    <glyph glyph-name="Ccedillaacute" unicode="&#x1e08;" horiz-adv-x="1485" 
d="M1111 1891l-246 -309h-175l175 309h246zM1372 978h-223c-42 177 -187 291 -377 291c-259 0 -421 -211 -421 -548c0 -336 162 -547 422 -547c191 0 336 103 376 266h223c-37 -260 -238 -442 -518 -471l-55 -90c131 -3 217 -64 217 -169c0 -141 -122 -200 -267 -200
c-49 0 -100 7 -146 18v125c16 -4 63 -13 112 -13c61 0 124 15 124 63c0 44 -48 57 -142 57h-63v103l63 106c-356 34 -575 315 -575 752c0 468 249 757 650 757c318 0 564 -206 600 -500z" />
    <glyph glyph-name="Ccedilla.mini" horiz-adv-x="1485" 
d="M1372 978h-223c-42 177 -187 291 -377 291c-259 0 -421 -211 -421 -548c0 -336 162 -547 422 -547c191 0 336 103 376 266h223c-36 -259 -235 -440 -513 -470l-48 -72c121 -8 195 -63 195 -157c0 -108 -102 -173 -260 -173c-45 0 -94 5 -124 15v116c22 -4 63 -10 104 -10
c61 0 108 11 108 51c0 38 -38 53 -114 53h-70v78l58 97c-363 29 -586 312 -586 753c0 468 249 757 650 757c318 0 564 -206 600 -500z" />
    <glyph glyph-name="Ccedillaacute.mini" horiz-adv-x="1485" 
d="M1111 1891l-246 -309h-175l175 309h246zM1372 978h-223c-42 177 -187 291 -377 291c-259 0 -421 -211 -421 -548c0 -336 162 -547 422 -547c191 0 336 103 376 266h223c-36 -259 -235 -440 -513 -470l-48 -72c121 -8 195 -63 195 -157c0 -108 -102 -173 -260 -173
c-45 0 -94 5 -124 15v116c22 -4 63 -10 104 -10c61 0 108 11 108 51c0 38 -38 53 -114 53h-70v78l58 97c-363 29 -586 312 -586 753c0 468 249 757 650 757c318 0 564 -206 600 -500z" />
    <glyph glyph-name="D" unicode="D" horiz-adv-x="1503" 
d="M181 1443h521c428 0 679 -263 679 -717c0 -461 -249 -726 -679 -726h-521v1443zM405 1239v-1035h272c302 0 476 188 476 519c0 326 -177 516 -476 516h-272z" />
    <glyph glyph-name="Ddotaccent" unicode="&#x1e0a;" horiz-adv-x="1503" 
d="M181 1443h521c428 0 679 -263 679 -717c0 -461 -249 -726 -679 -726h-521v1443zM405 1239v-1035h272c302 0 476 188 476 519c0 326 -177 516 -476 516h-272zM627 1615c-75 0 -136 62 -136 140s61 140 136 140s136 -62 136 -140s-61 -140 -136 -140z" />
    <glyph glyph-name="Dcircumflexbelow" unicode="&#x1e12;" horiz-adv-x="1503" 
d="M181 1443h521c428 0 679 -263 679 -717c0 -461 -249 -726 -679 -726h-521v1443zM405 1239v-1035h272c302 0 476 188 476 519c0 326 -177 516 -476 516h-272zM526 -123h202l295 -309h-225l-163 178h-16l-163 -178h-225z" />
    <glyph glyph-name="Dcommaaccent" unicode="&#x1e10;" horiz-adv-x="1503" 
d="M181 1443h521c428 0 679 -263 679 -717c0 -461 -249 -726 -679 -726h-521v1443zM405 1239v-1035h272c302 0 476 188 476 519c0 326 -177 516 -476 516h-272zM589 -494h-158l87 372h218z" />
    <glyph glyph-name="Dlinebelow" unicode="&#x1e0e;" horiz-adv-x="1503" 
d="M181 1443h521c428 0 679 -263 679 -717c0 -461 -249 -726 -679 -726h-521v1443zM405 1239v-1035h272c302 0 476 188 476 519c0 326 -177 516 -476 516h-272zM967 -200v-156h-680v156h680z" />
    <glyph glyph-name="Dcaron" unicode="&#x10e;" horiz-adv-x="1503" 
d="M181 1443h521c428 0 679 -263 679 -717c0 -461 -249 -726 -679 -726h-521v1443zM405 1239v-1035h272c302 0 476 188 476 519c0 326 -177 516 -476 516h-272zM728 1582h-202l-295 309h225l163 -178h16l163 178h225z" />
    <glyph glyph-name="Ddotbelow" unicode="&#x1e0c;" horiz-adv-x="1503" 
d="M181 1443h521c428 0 679 -263 679 -717c0 -461 -249 -726 -679 -726h-521v1443zM405 1239v-1035h272c302 0 476 188 476 519c0 326 -177 516 -476 516h-272zM627 -418c-75 0 -136 62 -136 140s61 140 136 140s136 -62 136 -140s-61 -140 -136 -140z" />
    <glyph glyph-name="Dcroat" unicode="&#x110;" horiz-adv-x="1503" 
d="M405 204h272c302 0 476 188 476 519c0 326 -177 516 -476 516h-272v-405h290v-191h-290v-439zM181 1443h521c428 0 679 -263 679 -717c0 -461 -249 -726 -679 -726h-521v643h-146v191h146v609z" />
    <glyph glyph-name="Dcommaaccent.mini" horiz-adv-x="1503" 
d="M181 1443h521c428 0 679 -263 679 -717c0 -461 -249 -726 -679 -726h-521v1443zM405 1239v-1035h272c302 0 476 188 476 519c0 326 -177 516 -476 516h-272zM608 -432h-180l87 291h220z" />
    <glyph glyph-name="E" unicode="E" horiz-adv-x="1239" 
d="M1097 204v-204h-916v1443h916v-204h-692v-408h655v-194h-655v-433h692z" />
    <glyph glyph-name="Egrave" unicode="&#xc8;" horiz-adv-x="1239" 
d="M1097 204v-204h-916v1443h916v-204h-692v-408h655v-194h-655v-433h692zM546 1582l-246 309h246l175 -309h-175z" />
    <glyph glyph-name="Edblgrave" unicode="&#x204;" horiz-adv-x="1239" 
d="M1097 204v-204h-916v1443h916v-204h-692v-408h655v-194h-655v-433h692zM908 1582h-163l-170 309h213zM560 1582h-164l-230 309h230z" />
    <glyph glyph-name="Eacute" unicode="&#xc9;" horiz-adv-x="1239" 
d="M1097 204v-204h-916v1443h916v-204h-692v-408h655v-194h-655v-433h692zM732 1582h-175l175 309h246z" />
    <glyph glyph-name="Ecircumflex" unicode="&#xca;" horiz-adv-x="1239" 
d="M1097 204v-204h-916v1443h916v-204h-692v-408h655v-194h-655v-433h692zM538 1891h202l295 -309h-225l-163 178h-16l-163 -178h-225z" />
    <glyph glyph-name="Ecircumflexhookabove" unicode="&#x1ec2;" horiz-adv-x="1239" 
d="M1097 204v-204h-916v1443h916v-204h-692v-408h655v-194h-655v-433h692zM524 1826h230l288 -249h-240l-154 138h-18l-154 -138h-240zM763 1999v122c24 9 77 17 135 17c121 0 202 -70 202 -176c0 -89 -56 -167 -143 -199l-101 85c55 20 86 58 86 99c0 40 -35 68 -86 68
c-36 0 -72 -7 -93 -16z" />
    <glyph glyph-name="Ecircumflexgrave" unicode="&#x1ec0;" horiz-adv-x="1239" 
d="M1097 204v-204h-916v1443h916v-204h-692v-408h655v-194h-655v-433h692zM524 1826h230l288 -249h-240l-154 138h-18l-154 -138h-240zM1106 1867h-209l-233 265h236z" />
    <glyph glyph-name="Ecircumflextilde" unicode="&#x1ec4;" horiz-adv-x="1239" 
d="M1097 204v-204h-916v1443h916v-204h-692v-408h655v-194h-655v-433h692zM782 1873c-167 0 -173 126 -277 126c-55 0 -88 -37 -91 -109h-150c0 156 95 257 232 257c167 0 173 -126 277 -126c47 0 87 33 92 111h149c0 -152 -95 -259 -232 -259zM524 1823h230l288 -246h-240
l-154 138h-18l-154 -138h-240z" />
    <glyph glyph-name="Ecircumflexdotbelow" unicode="&#x1ec6;" horiz-adv-x="1239" 
d="M1097 204v-204h-916v1443h916v-204h-692v-408h655v-194h-655v-433h692zM538 1891h202l295 -309h-225l-163 178h-16l-163 -178h-225zM639 -418c-75 0 -136 62 -136 140s61 140 136 140s136 -62 136 -140s-61 -140 -136 -140z" />
    <glyph glyph-name="Ecircumflexacute" unicode="&#x1ebe;" horiz-adv-x="1239" 
d="M1097 204v-204h-916v1443h916v-204h-692v-408h655v-194h-655v-433h692zM524 1826h230l288 -249h-240l-154 138h-18l-154 -138h-240zM851 1867l207 265h236l-234 -265h-209z" />
    <glyph glyph-name="Edieresis" unicode="&#xcb;" horiz-adv-x="1239" 
d="M1097 204v-204h-916v1443h916v-204h-692v-408h655v-194h-655v-433h692zM414 1618c-73 0 -133 60 -133 136c0 75 60 136 133 136s132 -61 132 -136c0 -76 -59 -136 -132 -136zM864 1618c-73 0 -132 60 -132 136c0 75 59 136 132 136c74 0 133 -61 133 -136
c0 -76 -59 -136 -133 -136z" />
    <glyph glyph-name="Edotbelow" unicode="&#x1eb8;" horiz-adv-x="1239" 
d="M1097 204v-204h-916v1443h916v-204h-692v-408h655v-194h-655v-433h692zM639 -418c-75 0 -136 62 -136 140s61 140 136 140s136 -62 136 -140s-61 -140 -136 -140z" />
    <glyph glyph-name="Einvertedbreve" unicode="&#x206;" horiz-adv-x="1239" 
d="M1097 204v-204h-916v1443h916v-204h-692v-408h655v-194h-655v-433h692zM1008 1577h-174c0 101 -70 168 -195 168s-195 -67 -195 -168h-174c0 185 135 313 369 313s369 -128 369 -313z" />
    <glyph glyph-name="Ehookabove" unicode="&#x1eba;" horiz-adv-x="1239" 
d="M1097 204v-204h-916v1443h916v-204h-692v-408h655v-194h-655v-433h692zM453 1800v135c32 13 86 22 139 22c142 0 233 -74 233 -192c0 -100 -76 -189 -188 -229l-80 104c63 21 108 63 108 106s-42 75 -102 75c-44 0 -85 -8 -110 -21z" />
    <glyph glyph-name="Ecaron" unicode="&#x11a;" horiz-adv-x="1239" 
d="M1097 204v-204h-916v1443h916v-204h-692v-408h655v-194h-655v-433h692zM740 1582h-202l-295 309h225l163 -178h16l163 178h225z" />
    <glyph glyph-name="Emacron" unicode="&#x112;" horiz-adv-x="1239" 
d="M1097 204v-204h-916v1443h916v-204h-692v-408h655v-194h-655v-433h692zM979 1829v-156h-680v156h680z" />
    <glyph glyph-name="Emacrongrave" unicode="&#x1e14;" horiz-adv-x="1239" 
d="M1097 204v-204h-916v1443h916v-204h-692v-408h655v-194h-655v-433h692zM289 1616v151h700v-151h-700zM751 1891h-215l-225 241h242z" />
    <glyph glyph-name="Emacronacute" unicode="&#x1e16;" horiz-adv-x="1239" 
d="M1097 204v-204h-916v1443h916v-204h-692v-408h655v-194h-655v-433h692zM989 1615h-700v151h700v-151zM527 1890l198 241h242l-225 -241h-215z" />
    <glyph glyph-name="Etilde" unicode="&#x1ebc;" horiz-adv-x="1239" 
d="M1097 204v-204h-916v1443h916v-204h-692v-408h655v-194h-655v-433h692zM771 1579c-161 0 -175 145 -263 145c-50 0 -76 -44 -76 -145h-157c0 190 88 301 230 301c162 0 179 -152 269 -152c54 0 76 50 76 152h156c0 -189 -88 -301 -235 -301z" />
    <glyph glyph-name="Ecircumflexbelow" unicode="&#x1e18;" horiz-adv-x="1239" 
d="M1097 204v-204h-916v1443h916v-204h-692v-408h655v-194h-655v-433h692zM756 -122l247 -346h-213l-143 219h-16l-143 -219h-213l247 346h234z" />
    <glyph glyph-name="Ebreve" unicode="&#x114;" horiz-adv-x="1239" 
d="M1097 204v-204h-916v1443h916v-204h-692v-408h655v-194h-655v-433h692zM270 1890h174c0 -100 70 -167 195 -167s195 67 195 167h174c0 -185 -135 -313 -369 -313s-369 128 -369 313z" />
    <glyph glyph-name="Etildebelow" unicode="&#x1e1a;" horiz-adv-x="1239" 
d="M1097 204v-204h-916v1443h916v-204h-692v-408h655v-194h-655v-433h692zM771 -428c-161 0 -175 145 -263 145c-50 0 -76 -44 -76 -145h-157c0 190 88 301 230 301c162 0 179 -151 269 -151c54 0 76 50 76 151h156c0 -189 -88 -301 -235 -301z" />
    <glyph glyph-name="Edotaccent" unicode="&#x116;" horiz-adv-x="1239" 
d="M1097 204v-204h-916v1443h916v-204h-692v-408h655v-194h-655v-433h692zM639 1615c-75 0 -136 62 -136 140s61 140 136 140s136 -62 136 -140s-61 -140 -136 -140z" />
    <glyph glyph-name="Ecedilla" unicode="&#x228;" horiz-adv-x="1239" 
d="M1097 1239h-692v-408h655v-194h-655v-433h692v-204h-357l-74 -121c131 -3 217 -64 217 -169c0 -141 -122 -200 -267 -200c-49 0 -100 7 -146 18v125c16 -4 63 -13 112 -13c61 0 124 15 124 63c0 44 -48 57 -142 57h-63v103l82 137h-402v1443h916v-204z" />
    <glyph glyph-name="Ecedillabreve" unicode="&#x1e1c;" horiz-adv-x="1239" 
d="M834 1890h174c0 -185 -135 -313 -369 -313s-369 128 -369 313h174c0 -100 70 -167 195 -167s195 67 195 167zM1097 1239h-692v-408h655v-194h-655v-433h692v-204h-357l-74 -121c131 -3 217 -64 217 -169c0 -141 -122 -200 -267 -200c-49 0 -100 7 -146 18v125
c16 -4 63 -13 112 -13c61 0 124 15 124 63c0 44 -48 57 -142 57h-63v103l82 137h-402v1443h916v-204z" />
    <glyph glyph-name="Eogonek" unicode="&#x118;" horiz-adv-x="1239" 
d="M1097 204v-204c-101 -39 -182 -110 -182 -191c0 -60 40 -99 114 -99c21 0 44 3 69 10v-149c-39 -13 -83 -20 -125 -20c-135 0 -247 75 -247 208c0 81 43 168 138 241h-683v1443h916v-204h-692v-408h655v-194h-655v-433h692z" />
    <glyph glyph-name="Eogonek.mini" horiz-adv-x="1239" 
d="M1097 1239h-692v-408h655v-194h-655v-433h692v-204c-101 -39 -184 -103 -184 -182c0 -55 37 -93 111 -93c20 0 43 3 69 10v-149c-39 -13 -81 -21 -123 -21c-135 0 -246 70 -246 200c0 82 42 162 141 235h-684v1443h916v-204z" />
    <glyph glyph-name="Ecedillabreve.mini" horiz-adv-x="1239" 
d="M834 1890h174c0 -185 -135 -313 -369 -313s-369 128 -369 313h174c0 -100 70 -167 195 -167s195 67 195 167zM1097 1239h-692v-408h655v-194h-655v-433h692v-204h-351l-68 -102c121 -8 195 -63 195 -157c0 -108 -102 -173 -260 -173c-45 0 -94 5 -124 15v116
c22 -4 63 -10 104 -10c61 0 108 11 108 51c0 38 -38 53 -114 53h-70v78l78 129h-414v1443h916v-204z" />
    <glyph glyph-name="Ecedilla.mini" horiz-adv-x="1239" 
d="M1097 1239h-692v-408h655v-194h-655v-433h692v-204h-351l-68 -102c121 -8 195 -63 195 -157c0 -108 -102 -173 -260 -173c-45 0 -94 5 -124 15v116c22 -4 63 -10 104 -10c61 0 108 11 108 51c0 38 -38 53 -114 53h-70v78l78 129h-414v1443h916v-204z" />
    <glyph glyph-name="E.mini" horiz-adv-x="1239" 
d="M1097 199v-199h-916v1301h916v-199h-692v-347h655v-185h-655v-371h692z" />
    <glyph glyph-name="Emacronacute.mini" horiz-adv-x="1239" 
d="M1097 199v-199h-916v1301h916v-199h-692v-347h655v-185h-655v-371h692zM989 1463h-700v149h700v-149zM522 1731l179 219h238l-204 -219h-213z" />
    <glyph glyph-name="Ecircumflexhookabove.mini" horiz-adv-x="1239" 
d="M1097 199v-199h-916v1301h916v-199h-692v-347h655v-185h-655v-371h692zM756 1670l290 -246h-244l-154 137h-18l-154 -137h-244l290 246h234zM768 1817v115c25 9 80 18 138 18c120 0 202 -69 202 -176c0 -87 -58 -166 -138 -192l-99 83c50 17 80 57 80 97
c0 41 -35 71 -87 71c-36 0 -75 -7 -96 -16z" />
    <glyph glyph-name="Emacrongrave.mini" horiz-adv-x="1239" 
d="M1097 199v-199h-916v1301h916v-199h-692v-347h655v-185h-655v-371h692zM989 1463h-700v149h700v-149zM756 1731h-213l-204 219h238z" />
    <glyph glyph-name="Ecircumflexacute.mini" horiz-adv-x="1239" 
d="M1097 199v-199h-916v1301h916v-199h-692v-347h655v-185h-655v-371h692zM756 1670l290 -246h-244l-154 137h-18l-154 -137h-244l290 246h234zM852 1715l178 235h241l-206 -235h-213z" />
    <glyph glyph-name="Ecircumflexgrave.mini" horiz-adv-x="1239" 
d="M1097 199v-199h-916v1301h916v-199h-692v-347h655v-185h-655v-371h692zM756 1670l290 -246h-244l-154 137h-18l-154 -137h-244l290 246h234zM1093 1715h-214l-206 235h241z" />
    <glyph glyph-name="Ecircumflextilde.mini" horiz-adv-x="1239" 
d="M1097 199v-199h-916v1301h916v-199h-692v-347h655v-185h-655v-371h692zM758 1663l288 -239h-244l-154 135h-18l-154 -135h-244l288 239h238zM793 1708c-163 0 -187 101 -288 101c-56 0 -88 -33 -91 -79h-151c0 130 82 220 220 220c167 0 194 -101 290 -101
c58 0 86 26 91 92h151c0 -140 -82 -233 -222 -233z" />
    <glyph glyph-name="F" unicode="F" horiz-adv-x="1191" 
d="M405 0h-224v1443h901v-204h-677v-443h620v-198h-620v-598z" />
    <glyph glyph-name="Fdotaccent" unicode="&#x1e1e;" horiz-adv-x="1191" 
d="M405 0h-224v1443h901v-204h-677v-443h620v-198h-620v-598zM631 1615c-75 0 -136 62 -136 140s61 140 136 140s136 -62 136 -140s-61 -140 -136 -140z" />
    <glyph glyph-name="G" unicode="G" horiz-adv-x="1539" 
d="M1412 571c0 -369 -245 -606 -623 -606c-409 0 -667 291 -667 757c0 460 261 756 665 756c328 0 566 -186 615 -478h-225c-56 174 -193 269 -390 269c-267 0 -436 -211 -436 -545c0 -340 170 -550 441 -550c236 0 398 144 400 358v31h-372v188h592v-180z" />
    <glyph glyph-name="Gacute" unicode="&#x1f4;" horiz-adv-x="1539" 
d="M1412 571c0 -369 -245 -606 -623 -606c-409 0 -667 291 -667 757c0 460 261 756 665 756c328 0 566 -186 615 -478h-225c-56 174 -193 269 -390 269c-267 0 -436 -211 -436 -545c0 -340 170 -550 441 -550c236 0 398 144 400 358v31h-372v188h592v-180zM880 1582h-175
l175 309h246z" />
    <glyph glyph-name="Gcaron" unicode="&#x1e6;" horiz-adv-x="1539" 
d="M1412 571c0 -369 -245 -606 -623 -606c-409 0 -667 291 -667 757c0 460 261 756 665 756c328 0 566 -186 615 -478h-225c-56 174 -193 269 -390 269c-267 0 -436 -211 -436 -545c0 -340 170 -550 441 -550c236 0 398 144 400 358v31h-372v188h592v-180zM888 1582h-202
l-295 309h225l163 -178h16l163 178h225z" />
    <glyph glyph-name="Gcircumflex" unicode="&#x11c;" horiz-adv-x="1539" 
d="M1412 571c0 -369 -245 -606 -623 -606c-409 0 -667 291 -667 757c0 460 261 756 665 756c328 0 566 -186 615 -478h-225c-56 174 -193 269 -390 269c-267 0 -436 -211 -436 -545c0 -340 170 -550 441 -550c236 0 398 144 400 358v31h-372v188h592v-180zM686 1891h202
l295 -309h-225l-163 178h-16l-163 -178h-225z" />
    <glyph glyph-name="Gbreve" unicode="&#x11e;" horiz-adv-x="1539" 
d="M1412 571c0 -369 -245 -606 -623 -606c-409 0 -667 291 -667 757c0 460 261 756 665 756c328 0 566 -186 615 -478h-225c-56 174 -193 269 -390 269c-267 0 -436 -211 -436 -545c0 -340 170 -550 441 -550c236 0 398 144 400 358v31h-372v188h592v-180zM418 1890h174
c0 -100 70 -167 195 -167s195 67 195 167h174c0 -185 -135 -313 -369 -313s-369 128 -369 313z" />
    <glyph glyph-name="Gmacron" unicode="&#x1e20;" horiz-adv-x="1539" 
d="M1412 571c0 -369 -245 -606 -623 -606c-409 0 -667 291 -667 757c0 460 261 756 665 756c328 0 566 -186 615 -478h-225c-56 174 -193 269 -390 269c-267 0 -436 -211 -436 -545c0 -340 170 -550 441 -550c236 0 398 144 400 358v31h-372v188h592v-180zM1127 1829v-156
h-680v156h680z" />
    <glyph glyph-name="Gdotaccent" unicode="&#x120;" horiz-adv-x="1539" 
d="M1412 571c0 -369 -245 -606 -623 -606c-409 0 -667 291 -667 757c0 460 261 756 665 756c328 0 566 -186 615 -478h-225c-56 174 -193 269 -390 269c-267 0 -436 -211 -436 -545c0 -340 170 -550 441 -550c236 0 398 144 400 358v31h-372v188h592v-180zM787 1615
c-75 0 -136 62 -136 140s61 140 136 140s136 -62 136 -140s-61 -140 -136 -140z" />
    <glyph glyph-name="Gcommaaccent" unicode="&#x122;" horiz-adv-x="1539" 
d="M1412 571c0 -369 -245 -606 -623 -606c-409 0 -667 291 -667 757c0 460 261 756 665 756c328 0 566 -186 615 -478h-225c-56 174 -193 269 -390 269c-267 0 -436 -211 -436 -545c0 -340 170 -550 441 -550c236 0 398 144 400 358v31h-372v188h592v-180zM751 -494h-158
l87 372h218z" />
    <glyph glyph-name="Gcommaaccent.mini" horiz-adv-x="1539" 
d="M1412 571c0 -369 -245 -606 -623 -606c-409 0 -667 291 -667 757c0 460 261 756 665 756c328 0 566 -186 615 -478h-225c-56 174 -193 269 -390 269c-267 0 -436 -211 -436 -545c0 -340 170 -550 441 -550c236 0 398 144 400 358v31h-372v188h592v-180zM770 -432h-180
l87 291h220z" />
    <glyph glyph-name="H" unicode="H" horiz-adv-x="1550" 
d="M1369 0h-223v633h-741v-633h-224v1443h224v-606h741v606h223v-1443z" />
    <glyph glyph-name="Hdieresis" unicode="&#x1e26;" horiz-adv-x="1550" 
d="M1369 0h-223v633h-741v-633h-224v1443h224v-606h741v606h223v-1443zM550 1618c-73 0 -133 60 -133 136c0 75 60 136 133 136s132 -61 132 -136c0 -76 -59 -136 -132 -136zM1000 1618c-73 0 -132 60 -132 136c0 75 59 136 132 136c74 0 133 -61 133 -136
c0 -76 -59 -136 -133 -136z" />
    <glyph glyph-name="Hcaron" unicode="&#x21e;" horiz-adv-x="1550" 
d="M1369 0h-223v633h-741v-633h-224v1443h224v-606h741v606h223v-1443zM876 1582h-202l-295 309h225l163 -178h16l163 178h225z" />
    <glyph glyph-name="Hcircumflex" unicode="&#x124;" horiz-adv-x="1550" 
d="M1369 0h-223v633h-741v-633h-224v1443h224v-606h741v606h223v-1443zM674 1891h202l295 -309h-225l-163 178h-16l-163 -178h-225z" />
    <glyph glyph-name="Hdotbelow" unicode="&#x1e24;" horiz-adv-x="1550" 
d="M1369 0h-223v633h-741v-633h-224v1443h224v-606h741v606h223v-1443zM775 -418c-75 0 -136 62 -136 140s61 140 136 140s136 -62 136 -140s-61 -140 -136 -140z" />
    <glyph glyph-name="Hdotaccent" unicode="&#x1e22;" horiz-adv-x="1550" 
d="M1369 0h-223v633h-741v-633h-224v1443h224v-606h741v606h223v-1443zM775 1615c-75 0 -136 62 -136 140s61 140 136 140s136 -62 136 -140s-61 -140 -136 -140z" />
    <glyph glyph-name="Hbrevebelow" unicode="&#x1e2a;" horiz-adv-x="1550" 
d="M1369 0h-223v633h-741v-633h-224v1443h224v-606h741v606h223v-1443zM411 -104h173c0 -120 61 -200 191 -200s191 80 191 200h173c0 -204 -129 -347 -364 -347s-364 143 -364 347z" />
    <glyph glyph-name="Hcedilla" unicode="&#x1e28;" horiz-adv-x="1550" 
d="M1146 1443h223v-1443h-223v633h-741v-609v-24l-74 -121c130 -3 216 -64 216 -169c0 -141 -121 -200 -267 -200c-49 0 -99 7 -145 18v125c15 -4 63 -13 111 -13c62 0 125 15 125 63c0 44 -48 57 -142 57h-63v103l81 137h-66v1443h224v-606h741v606z" />
    <glyph glyph-name="Hbar" unicode="&#x126;" horiz-adv-x="1550" 
d="M1146 837v218h-741v-218h741zM1518 1246v-191h-149v-1055h-223v633h-741v-633h-224v1055h-149v191h149v197h224v-197h741v197h223v-197h149z" />
    <glyph glyph-name="Hcedilla.mini" horiz-adv-x="1550" 
d="M1146 1443h223v-1443h-223v633h-741v-599v-34l-69 -102c122 -8 195 -63 195 -157c0 -108 -102 -173 -259 -173c-45 0 -94 5 -124 15v116c21 -4 63 -10 104 -10c61 0 108 11 108 51c0 38 -38 53 -114 53h-70v78l78 129h-73v1443h224v-606h741v606z" />
    <glyph glyph-name="I" unicode="I" horiz-adv-x="585" 
d="M405 0h-224v1443h224v-1443z" />
    <glyph glyph-name="Idotaccent" unicode="&#x130;" horiz-adv-x="585" 
d="M405 0h-224v1443h224v-1443zM293 1615c-75 0 -136 62 -136 140s61 140 136 140s136 -62 136 -140s-61 -140 -136 -140z" />
    <glyph glyph-name="Igrave" unicode="&#xcc;" horiz-adv-x="585" 
d="M405 0h-224v1443h224v-1443zM200 1582l-246 309h246l175 -309h-175z" />
    <glyph glyph-name="Idblgrave" unicode="&#x208;" horiz-adv-x="585" 
d="M405 0h-224v1443h224v-1443zM562 1582h-163l-170 309h213zM214 1582h-164l-230 309h230z" />
    <glyph glyph-name="Iacute" unicode="&#xcd;" horiz-adv-x="585" 
d="M405 0h-224v1443h224v-1443zM386 1582h-175l175 309h246z" />
    <glyph glyph-name="Icircumflex" unicode="&#xce;" horiz-adv-x="585" 
d="M405 0h-224v1443h224v-1443zM192 1891h202l295 -309h-225l-163 178h-16l-163 -178h-225z" />
    <glyph glyph-name="Icaron" unicode="&#x1cf;" horiz-adv-x="585" 
d="M405 0h-224v1443h224v-1443zM394 1582h-202l-295 309h225l163 -178h16l163 178h225z" />
    <glyph glyph-name="Idieresis" unicode="&#xcf;" horiz-adv-x="585" 
d="M405 0h-224v1443h224v-1443zM68 1618c-73 0 -133 60 -133 136c0 75 60 136 133 136s132 -61 132 -136c0 -76 -59 -136 -132 -136zM518 1618c-73 0 -132 60 -132 136c0 75 59 136 132 136c74 0 133 -61 133 -136c0 -76 -59 -136 -133 -136z" />
    <glyph glyph-name="Idieresisacute" unicode="&#x1e2e;" horiz-adv-x="585" 
d="M405 0h-224v1443h224v-1443zM193 1901l207 231h251l-258 -231h-200zM79 1577c-75 0 -133 58 -133 134s58 135 133 135c76 0 134 -59 134 -135s-58 -134 -134 -134zM507 1577c-76 0 -134 58 -134 134s58 135 134 135c75 0 133 -59 133 -135s-58 -134 -133 -134z" />
    <glyph glyph-name="Ibreve" unicode="&#x12c;" horiz-adv-x="585" 
d="M405 0h-224v1443h224v-1443zM-76 1890h174c0 -100 70 -167 195 -167s195 67 195 167h174c0 -185 -135 -313 -369 -313s-369 128 -369 313z" />
    <glyph glyph-name="Idotbelow" unicode="&#x1eca;" horiz-adv-x="585" 
d="M405 0h-224v1443h224v-1443zM293 -418c-75 0 -136 62 -136 140s61 140 136 140s136 -62 136 -140s-61 -140 -136 -140z" />
    <glyph glyph-name="Iinvertedbreve" unicode="&#x20a;" horiz-adv-x="585" 
d="M405 0h-224v1443h224v-1443zM662 1577h-174c0 101 -70 168 -195 168s-195 -67 -195 -168h-174c0 185 135 313 369 313s369 -128 369 -313z" />
    <glyph glyph-name="Imacron" unicode="&#x12a;" horiz-adv-x="585" 
d="M405 0h-224v1443h224v-1443zM633 1829v-156h-680v156h680z" />
    <glyph glyph-name="Itildebelow" unicode="&#x1e2c;" horiz-adv-x="585" 
d="M405 0h-224v1443h224v-1443zM425 -428c-161 0 -175 145 -263 145c-50 0 -76 -44 -76 -145h-157c0 190 88 301 230 301c162 0 179 -151 269 -151c54 0 76 50 76 151h156c0 -189 -88 -301 -235 -301z" />
    <glyph glyph-name="Ihookabove" unicode="&#x1ec8;" horiz-adv-x="585" 
d="M405 0h-224v1443h224v-1443zM107 1800v135c32 13 86 22 139 22c142 0 233 -74 233 -192c0 -100 -76 -189 -188 -229l-80 104c63 21 108 63 108 106s-42 75 -102 75c-44 0 -85 -8 -110 -21z" />
    <glyph glyph-name="Itilde" unicode="&#x128;" horiz-adv-x="585" 
d="M405 0h-224v1443h224v-1443zM425 1579c-161 0 -175 145 -263 145c-50 0 -76 -44 -76 -145h-157c0 190 88 301 230 301c162 0 179 -152 269 -152c54 0 76 50 76 152h156c0 -189 -88 -301 -235 -301z" />
    <glyph glyph-name="Iogonek" unicode="&#x12e;" horiz-adv-x="585" 
d="M405 1443v-1443c-101 -39 -182 -110 -182 -191c0 -60 40 -99 114 -99c20 0 43 3 69 10v-149c-39 -13 -84 -20 -125 -20c-135 0 -247 75 -247 208c0 84 47 174 147 249v1435h224z" />
    <glyph glyph-name="Iogonek.mini" horiz-adv-x="585" 
d="M405 1443v-1443c-101 -39 -184 -103 -184 -182c0 -55 37 -93 110 -93c21 0 44 3 69 10v-149c-39 -13 -81 -21 -122 -21c-135 0 -246 70 -246 200c0 84 44 166 149 241v1437h224z" />
    <glyph glyph-name="I.mini" horiz-adv-x="585" 
d="M405 0h-224v1301h224v-1301z" />
    <glyph glyph-name="Idieresisacute.mini" horiz-adv-x="585" 
d="M405 0h-224v1301h224v-1301zM85 1424c-73 0 -129 55 -129 126c0 72 56 127 129 127s129 -55 129 -127c0 -71 -56 -126 -129 -126zM501 1424c-73 0 -129 55 -129 126c0 72 56 127 129 127s129 -55 129 -127c0 -71 -56 -126 -129 -126zM176 1735l179 215h238l-204 -215
h-213z" />
    <glyph glyph-name="I.1" horiz-adv-x="1022" 
d="M125 0v195h274v1053h-274v195h772v-195h-274v-1053h274v-195h-772z" />
    <glyph glyph-name="Idotaccent.1" horiz-adv-x="1022" 
d="M125 0v195h274v1053h-274v195h772v-195h-274v-1053h274v-195h-772zM511 1615c-75 0 -136 62 -136 140s61 140 136 140s136 -62 136 -140s-61 -140 -136 -140z" />
    <glyph glyph-name="Igrave.1" horiz-adv-x="1022" 
d="M125 0v195h274v1053h-274v195h772v-195h-274v-1053h274v-195h-772zM418 1582l-246 309h246l175 -309h-175z" />
    <glyph glyph-name="Idblgrave.1" horiz-adv-x="1022" 
d="M125 0v195h274v1053h-274v195h772v-195h-274v-1053h274v-195h-772zM780 1582h-163l-170 309h213zM432 1582h-164l-230 309h230z" />
    <glyph glyph-name="Iacute.1" horiz-adv-x="1022" 
d="M125 0v195h274v1053h-274v195h772v-195h-274v-1053h274v-195h-772zM604 1582h-175l175 309h246z" />
    <glyph glyph-name="Icircumflex.1" horiz-adv-x="1022" 
d="M125 0v195h274v1053h-274v195h772v-195h-274v-1053h274v-195h-772zM410 1891h202l295 -309h-225l-163 178h-16l-163 -178h-225z" />
    <glyph glyph-name="Icaron.1" horiz-adv-x="1022" 
d="M125 0v195h274v1053h-274v195h772v-195h-274v-1053h274v-195h-772zM612 1582h-202l-295 309h225l163 -178h16l163 178h225z" />
    <glyph glyph-name="Idieresis.1" horiz-adv-x="1022" 
d="M125 0v195h274v1053h-274v195h772v-195h-274v-1053h274v-195h-772zM286 1618c-73 0 -133 60 -133 136c0 75 60 136 133 136s132 -61 132 -136c0 -76 -59 -136 -132 -136zM736 1618c-73 0 -132 60 -132 136c0 75 59 136 132 136c74 0 133 -61 133 -136
c0 -76 -59 -136 -133 -136z" />
    <glyph glyph-name="Idieresisacute.1" horiz-adv-x="1022" 
d="M125 0v195h274v1053h-274v195h772v-195h-274v-1053h274v-195h-772zM411 1901l207 231h251l-258 -231h-200zM297 1577c-75 0 -133 58 -133 134s58 135 133 135c76 0 134 -59 134 -135s-58 -134 -134 -134zM725 1577c-76 0 -134 58 -134 134s58 135 134 135
c75 0 133 -59 133 -135s-58 -134 -133 -134z" />
    <glyph glyph-name="Ibreve.1" horiz-adv-x="1022" 
d="M125 0v195h274v1053h-274v195h772v-195h-274v-1053h274v-195h-772zM142 1890h174c0 -100 70 -167 195 -167s195 67 195 167h174c0 -185 -135 -313 -369 -313s-369 128 -369 313z" />
    <glyph glyph-name="Idotbelow.1" horiz-adv-x="1022" 
d="M125 0v195h274v1053h-274v195h772v-195h-274v-1053h274v-195h-772zM511 -418c-75 0 -136 62 -136 140s61 140 136 140s136 -62 136 -140s-61 -140 -136 -140z" />
    <glyph glyph-name="Iinvertedbreve.1" horiz-adv-x="1022" 
d="M125 0v195h274v1053h-274v195h772v-195h-274v-1053h274v-195h-772zM880 1577h-174c0 101 -70 168 -195 168s-195 -67 -195 -168h-174c0 185 135 313 369 313s369 -128 369 -313z" />
    <glyph glyph-name="Imacron.1" horiz-adv-x="1022" 
d="M125 0v195h274v1053h-274v195h772v-195h-274v-1053h274v-195h-772zM851 1829v-156h-680v156h680z" />
    <glyph glyph-name="Itildebelow.1" horiz-adv-x="1022" 
d="M125 0v195h274v1053h-274v195h772v-195h-274v-1053h274v-195h-772zM643 -428c-161 0 -175 145 -263 145c-50 0 -76 -44 -76 -145h-157c0 190 88 301 230 301c162 0 179 -151 269 -151c54 0 76 50 76 151h156c0 -189 -88 -301 -235 -301z" />
    <glyph glyph-name="Ihookabove.1" horiz-adv-x="1022" 
d="M125 0v195h274v1053h-274v195h772v-195h-274v-1053h274v-195h-772zM325 1800v135c32 13 86 22 139 22c142 0 233 -74 233 -192c0 -100 -76 -189 -188 -229l-80 104c63 21 108 63 108 106s-42 75 -102 75c-44 0 -85 -8 -110 -21z" />
    <glyph glyph-name="Itilde.1" horiz-adv-x="1022" 
d="M125 0v195h274v1053h-274v195h772v-195h-274v-1053h274v-195h-772zM643 1579c-161 0 -175 145 -263 145c-50 0 -76 -44 -76 -145h-157c0 190 88 301 230 301c162 0 179 -152 269 -152c54 0 76 50 76 152h156c0 -189 -88 -301 -235 -301z" />
    <glyph glyph-name="Iogonek.1" horiz-adv-x="1022" 
d="M897 195v-195c-101 -39 -182 -110 -182 -191c0 -60 41 -99 114 -99c21 0 44 3 69 10v-149c-39 -13 -83 -20 -124 -20c-136 0 -248 75 -248 208c0 81 43 168 138 241h-539v195h274v1053h-274v195h772v-195h-274v-1053h274z" />
    <glyph glyph-name="Iogonek.mini.1" horiz-adv-x="1022" 
d="M897 1248h-274v-1053h274v-195c-101 -39 -184 -103 -184 -182c0 -55 37 -93 111 -93c21 0 44 3 69 10v-149c-39 -13 -81 -21 -122 -21c-136 0 -247 70 -247 200c0 82 43 162 141 235h-540v195h274v1053h-274v195h772v-195z" />
    <glyph glyph-name="I.mini.1" horiz-adv-x="1022" 
d="M125 0v195h274v911h-274v195h772v-195h-274v-911h274v-195h-772z" />
    <glyph glyph-name="Idieresisacute.mini.1" horiz-adv-x="1022" 
d="M125 0v195h274v911h-274v195h772v-195h-274v-911h274v-195h-772zM303 1424c-73 0 -129 55 -129 126c0 72 56 127 129 127s129 -55 129 -127c0 -71 -56 -126 -129 -126zM719 1424c-73 0 -129 55 -129 126c0 72 56 127 129 127s129 -55 129 -127c0 -71 -56 -126 -129 -126z
M394 1735l179 215h238l-204 -215h-213z" />
    <glyph glyph-name="J" unicode="J" horiz-adv-x="1148" 
d="M82 375h220c3 -119 90 -199 218 -199c143 0 224 86 224 247v1020h224v-1021c0 -290 -168 -457 -446 -457c-261 0 -440 162 -440 410z" />
    <glyph glyph-name="Jacute" horiz-adv-x="1148" 
d="M82 375h220c3 -119 90 -199 218 -199c143 0 224 86 224 247v1020h224v-1021c0 -290 -168 -457 -446 -457c-261 0 -440 162 -440 410zM949 1582h-175l175 309h246z" />
    <glyph glyph-name="Jcircumflex" unicode="&#x134;" horiz-adv-x="1148" 
d="M82 375h220c3 -119 90 -199 218 -199c143 0 224 86 224 247v1020h224v-1021c0 -290 -168 -457 -446 -457c-261 0 -440 162 -440 410zM755 1891h202l295 -309h-225l-163 178h-16l-163 -178h-225z" />
    <glyph glyph-name="K" unicode="&#x212a;" horiz-adv-x="1386" 
d="M405 0h-224v1443h224v-676h16l597 676h265l-558 -627l606 -816h-280l-484 655l-162 -181v-474z" />
    <glyph glyph-name="K" unicode="K" horiz-adv-x="1386" 
d="M405 0h-224v1443h224v-676h16l597 676h265l-558 -627l606 -816h-280l-484 655l-162 -181v-474z" />
    <glyph glyph-name="Kacute" unicode="&#x1e30;" horiz-adv-x="1386" 
d="M405 0h-224v1443h224v-676h16l597 676h265l-558 -627l606 -816h-280l-484 655l-162 -181v-474zM763 1582h-175l175 309h246z" />
    <glyph glyph-name="Kcaron" unicode="&#x1e8;" horiz-adv-x="1386" 
d="M405 0h-224v1443h224v-676h16l597 676h265l-558 -627l606 -816h-280l-484 655l-162 -181v-474zM771 1582h-202l-295 309h225l163 -178h16l163 178h225z" />
    <glyph glyph-name="Kdotbelow" unicode="&#x1e32;" horiz-adv-x="1386" 
d="M405 0h-224v1443h224v-676h16l597 676h265l-558 -627l606 -816h-280l-484 655l-162 -181v-474zM670 -418c-75 0 -136 62 -136 140s61 140 136 140s136 -62 136 -140s-61 -140 -136 -140z" />
    <glyph glyph-name="Klinebelow" unicode="&#x1e34;" horiz-adv-x="1386" 
d="M405 0h-224v1443h224v-676h16l597 676h265l-558 -627l606 -816h-280l-484 655l-162 -181v-474zM1010 -200v-156h-680v156h680z" />
    <glyph glyph-name="Kcommaaccent" unicode="&#x136;" horiz-adv-x="1386" 
d="M405 0h-224v1443h224v-676h16l597 676h265l-558 -627l606 -816h-280l-484 655l-162 -181v-474zM632 -494h-158l87 372h218z" />
    <glyph glyph-name="Kcommaaccent.mini" horiz-adv-x="1386" 
d="M405 0h-224v1443h224v-676h16l597 676h265l-558 -627l606 -816h-280l-484 655l-162 -181v-474zM651 -432h-180l87 291h220z" />
    <glyph glyph-name="L" unicode="L" horiz-adv-x="1183" 
d="M1081 206v-206h-900v1443h224v-1237h676z" />
    <glyph glyph-name="Lacute" unicode="&#x139;" horiz-adv-x="1183" 
d="M1081 206v-206h-900v1443h224v-1237h676zM386 1582h-175l175 309h246z" />
    <glyph glyph-name="Lcircumflexbelow" unicode="&#x1e3c;" horiz-adv-x="1183" 
d="M1081 206v-206h-900v1443h224v-1237h676zM746 -122l247 -346h-213l-143 219h-16l-143 -219h-213l247 346h234z" />
    <glyph glyph-name="Ldotbelow" unicode="&#x1e36;" horiz-adv-x="1183" 
d="M1081 206v-206h-900v1443h224v-1237h676zM629 -418c-75 0 -136 62 -136 140s61 140 136 140s136 -62 136 -140s-61 -140 -136 -140z" />
    <glyph glyph-name="Ldotbelowmacron" unicode="&#x1e38;" horiz-adv-x="1183" 
d="M1081 206v-206h-900v1443h224v-1237h676zM629 -418c-75 0 -136 62 -136 140s61 140 136 140s136 -62 136 -140s-61 -140 -136 -140zM633 1829v-156h-680v156h680z" />
    <glyph glyph-name="Llinebelow" unicode="&#x1e3a;" horiz-adv-x="1183" 
d="M1081 206v-206h-900v1443h224v-1237h676zM969 -200v-156h-680v156h680z" />
    <glyph glyph-name="Lcommaaccent" unicode="&#x13b;" horiz-adv-x="1183" 
d="M1081 206v-206h-900v1443h224v-1237h676zM591 -494h-158l87 372h218z" />
    <glyph glyph-name="Lcaron" unicode="&#x13d;" horiz-adv-x="1183" 
d="M1081 206v-206h-900v1443h224v-1237h676zM670 1584h196l-56 -529h-140v529z" />
    <glyph glyph-name="Lslash" unicode="&#x141;" horiz-adv-x="1183" 
d="M405 206h676v-206h-900v691l-161 -79v170l161 79v582h224v-472l269 132v-169l-269 -132v-596z" />
    <glyph glyph-name="Lcommaaccent.mini" horiz-adv-x="1183" 
d="M1081 206v-206h-900v1443h224v-1237h676zM610 -432h-180l87 291h220z" />
    <glyph glyph-name="M" unicode="M" horiz-adv-x="1822" 
d="M1641 0h-208v1042h-14l-423 -1008h-170l-423 1008h-14v-1042h-208v1443h262l459 -1104h17l460 1104h262v-1443z" />
    <glyph glyph-name="Macute" unicode="&#x1e3e;" horiz-adv-x="1822" 
d="M1641 0h-208v1042h-14l-423 -1008h-170l-423 1008h-14v-1042h-208v1443h262l459 -1104h17l460 1104h262v-1443zM1004 1582h-175l175 309h246z" />
    <glyph glyph-name="Mdotaccent" unicode="&#x1e40;" horiz-adv-x="1822" 
d="M1641 0h-208v1042h-14l-423 -1008h-170l-423 1008h-14v-1042h-208v1443h262l459 -1104h17l460 1104h262v-1443zM911 1615c-75 0 -136 62 -136 140s61 140 136 140s136 -62 136 -140s-61 -140 -136 -140z" />
    <glyph glyph-name="Mdotbelow" unicode="&#x1e42;" horiz-adv-x="1822" 
d="M1641 0h-208v1042h-14l-423 -1008h-170l-423 1008h-14v-1042h-208v1443h262l459 -1104h17l460 1104h262v-1443zM911 -418c-75 0 -136 62 -136 140s61 140 136 140s136 -62 136 -140s-61 -140 -136 -140z" />
    <glyph glyph-name="N" unicode="N" horiz-adv-x="1539" 
d="M399 0h-218v1443h202l741 -1025h16v1025h218v-1443h-202l-741 1025h-16v-1025z" />
    <glyph glyph-name="Ngrave" unicode="&#x1f8;" horiz-adv-x="1539" 
d="M399 0h-218v1443h202l741 -1025h16v1025h218v-1443h-202l-741 1025h-16v-1025zM675 1582l-246 309h246l175 -309h-175z" />
    <glyph glyph-name="Nacute" unicode="&#x143;" horiz-adv-x="1539" 
d="M399 0h-218v1443h202l741 -1025h16v1025h218v-1443h-202l-741 1025h-16v-1025zM861 1582h-175l175 309h246z" />
    <glyph glyph-name="Ntilde" unicode="&#xd1;" horiz-adv-x="1539" 
d="M399 0h-218v1443h202l741 -1025h16v1025h218v-1443h-202l-741 1025h-16v-1025zM900 1579c-161 0 -175 145 -263 145c-50 0 -76 -44 -76 -145h-157c0 190 88 301 230 301c162 0 179 -152 269 -152c54 0 76 50 76 152h156c0 -189 -88 -301 -235 -301z" />
    <glyph glyph-name="Ndotbelow" unicode="&#x1e46;" horiz-adv-x="1539" 
d="M399 0h-218v1443h202l741 -1025h16v1025h218v-1443h-202l-741 1025h-16v-1025zM768 -418c-75 0 -136 62 -136 140s61 140 136 140s136 -62 136 -140s-61 -140 -136 -140z" />
    <glyph glyph-name="Ndotaccent" unicode="&#x1e44;" horiz-adv-x="1539" 
d="M399 0h-218v1443h202l741 -1025h16v1025h218v-1443h-202l-741 1025h-16v-1025zM768 1615c-75 0 -136 62 -136 140s61 140 136 140s136 -62 136 -140s-61 -140 -136 -140z" />
    <glyph glyph-name="Ncaron" unicode="&#x147;" horiz-adv-x="1539" 
d="M399 0h-218v1443h202l741 -1025h16v1025h218v-1443h-202l-741 1025h-16v-1025zM869 1582h-202l-295 309h225l163 -178h16l163 178h225z" />
    <glyph glyph-name="Ncircumflexbelow" unicode="&#x1e4a;" horiz-adv-x="1539" 
d="M399 0h-218v1443h202l741 -1025h16v1025h218v-1443h-202l-741 1025h-16v-1025zM885 -122l247 -346h-213l-143 219h-16l-143 -219h-213l247 346h234z" />
    <glyph glyph-name="Nlinebelow" unicode="&#x1e48;" horiz-adv-x="1539" 
d="M399 0h-218v1443h202l741 -1025h16v1025h218v-1443h-202l-741 1025h-16v-1025zM1108 -200v-156h-680v156h680z" />
    <glyph glyph-name="Ncommaaccent" unicode="&#x145;" horiz-adv-x="1539" 
d="M399 0h-218v1443h202l741 -1025h16v1025h218v-1443h-202l-741 1025h-16v-1025zM730 -494h-158l87 372h218z" />
    <glyph glyph-name="Ncommaaccent.mini" horiz-adv-x="1539" 
d="M399 0h-218v1443h202l741 -1025h16v1025h218v-1443h-202l-741 1025h-16v-1025zM749 -432h-180l87 291h220z" />
    <glyph glyph-name="O" unicode="O" horiz-adv-x="1591" 
d="M796 1478c415 0 673 -291 673 -756c0 -464 -256 -757 -673 -757c-420 0 -674 292 -674 757c0 466 260 756 674 756zM796 1269c-273 0 -445 -212 -445 -547c0 -333 167 -548 445 -548c274 0 444 215 444 548c0 335 -171 547 -444 547z" />
    <glyph glyph-name="Odieresis" unicode="&#xd6;" horiz-adv-x="1591" 
d="M796 1478c415 0 673 -291 673 -756c0 -464 -256 -757 -673 -757c-420 0 -674 292 -674 757c0 466 260 756 674 756zM796 1269c-273 0 -445 -212 -445 -547c0 -333 167 -548 445 -548c274 0 444 215 444 548c0 335 -171 547 -444 547zM571 1618c-73 0 -133 60 -133 136
c0 75 60 136 133 136s132 -61 132 -136c0 -76 -59 -136 -132 -136zM1021 1618c-73 0 -132 60 -132 136c0 75 59 136 132 136c74 0 133 -61 133 -136c0 -76 -59 -136 -133 -136z" />
    <glyph glyph-name="Oslash" unicode="&#xd8;" horiz-adv-x="1591" 
d="M1181 1049l-680 -776c76 -70 175 -109 295 -109c281 0 455 219 455 558c0 128 -25 239 -70 327zM410 395l679 777c-76 70 -175 108 -293 108c-280 0 -456 -216 -456 -558c0 -128 24 -239 70 -327zM1448 1355l-117 -134c89 -127 138 -297 138 -499
c0 -463 -256 -757 -673 -757c-177 0 -324 52 -436 147l-112 -129l-106 105l118 135c-90 127 -138 297 -138 499c0 466 259 757 674 757c175 0 322 -52 433 -147l112 128z" />
    <glyph glyph-name="Otilde" unicode="&#xd5;" horiz-adv-x="1591" 
d="M796 1478c415 0 673 -291 673 -756c0 -464 -256 -757 -673 -757c-420 0 -674 292 -674 757c0 466 260 756 674 756zM796 1269c-273 0 -445 -212 -445 -547c0 -333 167 -548 445 -548c274 0 444 215 444 548c0 335 -171 547 -444 547zM928 1579c-161 0 -175 145 -263 145
c-50 0 -76 -44 -76 -145h-157c0 190 88 301 230 301c162 0 179 -152 269 -152c54 0 76 50 76 152h156c0 -189 -88 -301 -235 -301z" />
    <glyph glyph-name="Oacute" unicode="&#xd3;" horiz-adv-x="1591" 
d="M796 1478c415 0 673 -291 673 -756c0 -464 -256 -757 -673 -757c-420 0 -674 292 -674 757c0 466 260 756 674 756zM796 1269c-273 0 -445 -212 -445 -547c0 -333 167 -548 445 -548c274 0 444 215 444 548c0 335 -171 547 -444 547zM889 1582h-175l175 309h246z" />
    <glyph glyph-name="Ocircumflex" unicode="&#xd4;" horiz-adv-x="1591" 
d="M796 1478c415 0 673 -291 673 -756c0 -464 -256 -757 -673 -757c-420 0 -674 292 -674 757c0 466 260 756 674 756zM796 1269c-273 0 -445 -212 -445 -547c0 -333 167 -548 445 -548c274 0 444 215 444 548c0 335 -171 547 -444 547zM695 1891h202l295 -309h-225
l-163 178h-16l-163 -178h-225z" />
    <glyph glyph-name="Ograve" unicode="&#xd2;" horiz-adv-x="1591" 
d="M796 1478c415 0 673 -291 673 -756c0 -464 -256 -757 -673 -757c-420 0 -674 292 -674 757c0 466 260 756 674 756zM796 1269c-273 0 -445 -212 -445 -547c0 -333 167 -548 445 -548c274 0 444 215 444 548c0 335 -171 547 -444 547zM703 1582l-246 309h246l175 -309
h-175z" />
    <glyph glyph-name="Ocircumflexhookabove" unicode="&#x1ed4;" horiz-adv-x="1591" 
d="M796 1478c415 0 673 -291 673 -756c0 -464 -256 -757 -673 -757c-420 0 -674 292 -674 757c0 466 260 756 674 756zM796 1269c-273 0 -445 -212 -445 -547c0 -333 167 -548 445 -548c274 0 444 215 444 548c0 335 -171 547 -444 547zM681 1826h230l288 -249h-240
l-154 138h-18l-154 -138h-240zM920 1999v122c24 9 77 17 135 17c121 0 202 -70 202 -176c0 -89 -56 -167 -143 -199l-101 85c55 20 86 58 86 99c0 40 -35 68 -86 68c-36 0 -72 -7 -93 -16z" />
    <glyph glyph-name="Ocircumflexgrave" unicode="&#x1ed2;" horiz-adv-x="1591" 
d="M796 1478c415 0 673 -291 673 -756c0 -464 -256 -757 -673 -757c-420 0 -674 292 -674 757c0 466 260 756 674 756zM796 1269c-273 0 -445 -212 -445 -547c0 -333 167 -548 445 -548c274 0 444 215 444 548c0 335 -171 547 -444 547zM681 1826h230l288 -249h-240
l-154 138h-18l-154 -138h-240zM1263 1867h-209l-233 265h236z" />
    <glyph glyph-name="Odotbelow" unicode="&#x1ecc;" horiz-adv-x="1591" 
d="M796 1478c415 0 673 -291 673 -756c0 -464 -256 -757 -673 -757c-420 0 -674 292 -674 757c0 466 260 756 674 756zM796 1269c-273 0 -445 -212 -445 -547c0 -333 167 -548 445 -548c274 0 444 215 444 548c0 335 -171 547 -444 547zM796 -418c-75 0 -136 62 -136 140
s61 140 136 140s136 -62 136 -140s-61 -140 -136 -140z" />
    <glyph glyph-name="Odblgrave" unicode="&#x20c;" horiz-adv-x="1591" 
d="M796 1478c415 0 673 -291 673 -756c0 -464 -256 -757 -673 -757c-420 0 -674 292 -674 757c0 466 260 756 674 756zM796 1269c-273 0 -445 -212 -445 -547c0 -333 167 -548 445 -548c274 0 444 215 444 548c0 335 -171 547 -444 547zM1065 1582h-163l-170 309h213z
M717 1582h-164l-230 309h230z" />
    <glyph glyph-name="Otildeacute" unicode="&#x1e4c;" horiz-adv-x="1591" 
d="M796 1478c415 0 673 -291 673 -756c0 -464 -256 -757 -673 -757c-420 0 -674 292 -674 757c0 466 260 756 674 756zM796 1269c-273 0 -445 -212 -445 -547c0 -333 167 -548 445 -548c274 0 444 215 444 548c0 335 -171 547 -444 547zM941 1577c-167 0 -175 125 -279 125
c-55 0 -88 -37 -91 -111h-153c0 158 96 260 233 260c167 0 175 -125 279 -125c47 0 87 32 92 109h152c0 -151 -96 -258 -233 -258zM745 1901l198 231h242l-227 -231h-213z" />
    <glyph glyph-name="Omacronacute" unicode="&#x1e52;" horiz-adv-x="1591" 
d="M796 1478c415 0 673 -291 673 -756c0 -464 -256 -757 -673 -757c-420 0 -674 292 -674 757c0 466 260 756 674 756zM796 1269c-273 0 -445 -212 -445 -547c0 -333 167 -548 445 -548c274 0 444 215 444 548c0 335 -171 547 -444 547zM1146 1615h-700v151h700v-151z
M684 1890l198 241h242l-225 -241h-215z" />
    <glyph glyph-name="Ocircumflextilde" unicode="&#x1ed6;" horiz-adv-x="1591" 
d="M796 1478c415 0 673 -291 673 -756c0 -464 -256 -757 -673 -757c-420 0 -674 292 -674 757c0 466 260 756 674 756zM796 1269c-273 0 -445 -212 -445 -547c0 -333 167 -548 445 -548c274 0 444 215 444 548c0 335 -171 547 -444 547zM939 1873c-167 0 -173 126 -277 126
c-55 0 -88 -37 -91 -109h-150c0 156 95 257 232 257c167 0 173 -126 277 -126c47 0 87 33 92 111h149c0 -152 -95 -259 -232 -259zM681 1823h230l288 -246h-240l-154 138h-18l-154 -138h-240z" />
    <glyph glyph-name="Odotaccentmacron" unicode="&#x230;" horiz-adv-x="1591" 
d="M796 1478c415 0 673 -291 673 -756c0 -464 -256 -757 -673 -757c-420 0 -674 292 -674 757c0 466 260 756 674 756zM796 1269c-273 0 -445 -212 -445 -547c0 -333 167 -548 445 -548c274 0 444 215 444 548c0 335 -171 547 -444 547zM796 1576c-75 0 -132 58 -132 132
c0 75 57 132 132 132s132 -57 132 -132c0 -74 -57 -132 -132 -132zM1146 2107v-147h-700v147h700z" />
    <glyph glyph-name="Omacrongrave" unicode="&#x1e50;" horiz-adv-x="1591" 
d="M796 1478c415 0 673 -291 673 -756c0 -464 -256 -757 -673 -757c-420 0 -674 292 -674 757c0 466 260 756 674 756zM796 1269c-273 0 -445 -212 -445 -547c0 -333 167 -548 445 -548c274 0 444 215 444 548c0 335 -171 547 -444 547zM446 1616v151h700v-151h-700z
M908 1891h-215l-225 241h242z" />
    <glyph glyph-name="Ocaron" unicode="&#x1d1;" horiz-adv-x="1591" 
d="M796 1478c415 0 673 -291 673 -756c0 -464 -256 -757 -673 -757c-420 0 -674 292 -674 757c0 466 260 756 674 756zM796 1269c-273 0 -445 -212 -445 -547c0 -333 167 -548 445 -548c274 0 444 215 444 548c0 335 -171 547 -444 547zM897 1582h-202l-295 309h225
l163 -178h16l163 178h225z" />
    <glyph glyph-name="Oslashacute" unicode="&#x1fe;" horiz-adv-x="1591" 
d="M1135 1891l-246 -309h-175l175 309h246zM1181 1049l-680 -776c76 -70 175 -109 295 -109c281 0 455 219 455 558c0 128 -25 239 -70 327zM410 395l679 777c-76 70 -175 108 -293 108c-280 0 -456 -216 -456 -558c0 -128 24 -239 70 -327zM1448 1355l-117 -134
c89 -127 138 -297 138 -499c0 -463 -256 -757 -673 -757c-177 0 -324 52 -436 147l-112 -129l-106 105l118 135c-90 127 -138 297 -138 499c0 466 259 757 674 757c175 0 322 -52 433 -147l112 128z" />
    <glyph glyph-name="Ohungarumlaut" unicode="&#x150;" horiz-adv-x="1591" 
d="M796 1478c415 0 673 -291 673 -756c0 -464 -256 -757 -673 -757c-420 0 -674 292 -674 757c0 466 260 756 674 756zM796 1269c-273 0 -445 -212 -445 -547c0 -333 167 -548 445 -548c274 0 444 215 444 548c0 335 -171 547 -444 547zM527 1582l120 309h213l-170 -309
h-163zM875 1582l164 309h230l-230 -309h-164z" />
    <glyph glyph-name="Obreve" unicode="&#x14e;" horiz-adv-x="1591" 
d="M796 1478c415 0 673 -291 673 -756c0 -464 -256 -757 -673 -757c-420 0 -674 292 -674 757c0 466 260 756 674 756zM796 1269c-273 0 -445 -212 -445 -547c0 -333 167 -548 445 -548c274 0 444 215 444 548c0 335 -171 547 -444 547zM427 1890h174
c0 -100 70 -167 195 -167s195 67 195 167h174c0 -185 -135 -313 -369 -313s-369 128 -369 313z" />
    <glyph glyph-name="Oinvertedbreve" unicode="&#x20e;" horiz-adv-x="1591" 
d="M796 1478c415 0 673 -291 673 -756c0 -464 -256 -757 -673 -757c-420 0 -674 292 -674 757c0 466 260 756 674 756zM796 1269c-273 0 -445 -212 -445 -547c0 -333 167 -548 445 -548c274 0 444 215 444 548c0 335 -171 547 -444 547zM1165 1577h-174
c0 101 -70 168 -195 168s-195 -67 -195 -168h-174c0 185 135 313 369 313s369 -128 369 -313z" />
    <glyph glyph-name="Ohookabove" unicode="&#x1ece;" horiz-adv-x="1591" 
d="M796 1478c415 0 673 -291 673 -756c0 -464 -256 -757 -673 -757c-420 0 -674 292 -674 757c0 466 260 756 674 756zM796 1269c-273 0 -445 -212 -445 -547c0 -333 167 -548 445 -548c274 0 444 215 444 548c0 335 -171 547 -444 547zM610 1800v135c32 13 86 22 139 22
c142 0 233 -74 233 -192c0 -100 -76 -189 -188 -229l-80 104c63 21 108 63 108 106s-42 75 -102 75c-44 0 -85 -8 -110 -21z" />
    <glyph glyph-name="Odieresismacron" unicode="&#x22a;" horiz-adv-x="1591" 
d="M796 1478c415 0 673 -291 673 -756c0 -464 -256 -757 -673 -757c-420 0 -674 292 -674 757c0 466 260 756 674 756zM796 1269c-273 0 -445 -212 -445 -547c0 -333 167 -548 445 -548c274 0 444 215 444 548c0 335 -171 547 -444 547zM582 1840c74 0 130 -57 130 -132
c0 -74 -56 -131 -130 -131c-73 0 -130 57 -130 131c0 75 57 132 130 132zM446 2107h700v-147h-700v147zM1010 1840c73 0 130 -57 130 -132c0 -74 -57 -131 -130 -131c-74 0 -130 57 -130 131c0 75 56 132 130 132z" />
    <glyph glyph-name="Otildemacron" unicode="&#x22c;" horiz-adv-x="1591" 
d="M796 1478c415 0 673 -291 673 -756c0 -464 -256 -757 -673 -757c-420 0 -674 292 -674 757c0 466 260 756 674 756zM796 1269c-273 0 -445 -212 -445 -547c0 -333 167 -548 445 -548c274 0 444 215 444 548c0 335 -171 547 -444 547zM941 1577c-167 0 -175 125 -279 125
c-55 0 -88 -37 -91 -111h-153c0 158 96 260 233 260c167 0 175 -125 279 -125c47 0 87 32 92 109h152c0 -151 -96 -258 -233 -258zM1146 2107v-151h-700v151h700z" />
    <glyph glyph-name="Odotaccent" unicode="&#x22e;" horiz-adv-x="1591" 
d="M796 1478c415 0 673 -291 673 -756c0 -464 -256 -757 -673 -757c-420 0 -674 292 -674 757c0 466 260 756 674 756zM796 1269c-273 0 -445 -212 -445 -547c0 -333 167 -548 445 -548c274 0 444 215 444 548c0 335 -171 547 -444 547zM796 1615c-75 0 -136 62 -136 140
s61 140 136 140s136 -62 136 -140s-61 -140 -136 -140z" />
    <glyph glyph-name="Ocircumflexdotbelow" unicode="&#x1ed8;" horiz-adv-x="1591" 
d="M796 1478c415 0 673 -291 673 -756c0 -464 -256 -757 -673 -757c-420 0 -674 292 -674 757c0 466 260 756 674 756zM796 1269c-273 0 -445 -212 -445 -547c0 -333 167 -548 445 -548c274 0 444 215 444 548c0 335 -171 547 -444 547zM695 1891h202l295 -309h-225
l-163 178h-16l-163 -178h-225zM796 -418c-75 0 -136 62 -136 140s61 140 136 140s136 -62 136 -140s-61 -140 -136 -140z" />
    <glyph glyph-name="Ocircumflexacute" unicode="&#x1ed0;" horiz-adv-x="1591" 
d="M796 1478c415 0 673 -291 673 -756c0 -464 -256 -757 -673 -757c-420 0 -674 292 -674 757c0 466 260 756 674 756zM796 1269c-273 0 -445 -212 -445 -547c0 -333 167 -548 445 -548c274 0 444 215 444 548c0 335 -171 547 -444 547zM681 1826h230l288 -249h-240
l-154 138h-18l-154 -138h-240zM1008 1867l207 265h236l-234 -265h-209z" />
    <glyph glyph-name="Otildedieresis" unicode="&#x1e4e;" horiz-adv-x="1591" 
d="M796 1478c415 0 673 -291 673 -756c0 -464 -256 -757 -673 -757c-420 0 -674 292 -674 757c0 466 260 756 674 756zM796 1269c-273 0 -445 -212 -445 -547c0 -333 167 -548 445 -548c274 0 444 215 444 548c0 335 -171 547 -444 547zM941 1570c-167 0 -175 125 -279 125
c-55 0 -88 -37 -91 -111h-153c0 158 96 260 233 260c167 0 175 -124 279 -124c47 0 87 31 92 109h152c0 -152 -96 -259 -233 -259zM588 2134c74 0 124 -46 124 -111s-50 -111 -124 -111s-125 46 -125 111s51 111 125 111zM1004 2134c74 0 125 -46 125 -111
s-51 -111 -125 -111s-124 46 -124 111s50 111 124 111z" />
    <glyph glyph-name="Omacron" unicode="&#x14c;" horiz-adv-x="1591" 
d="M796 1478c415 0 673 -291 673 -756c0 -464 -256 -757 -673 -757c-420 0 -674 292 -674 757c0 466 260 756 674 756zM796 1269c-273 0 -445 -212 -445 -547c0 -333 167 -548 445 -548c274 0 444 215 444 548c0 335 -171 547 -444 547zM1136 1829v-156h-680v156h680z" />
    <glyph glyph-name="Oogonek" unicode="&#x1ea;" horiz-adv-x="1591" 
d="M796 174c274 0 444 215 444 548c0 335 -171 547 -444 547s-445 -212 -445 -547c0 -333 167 -548 445 -548zM1178 -280v-149c-39 -13 -81 -20 -122 -20c-136 0 -250 68 -250 198c0 81 44 158 128 228c-43 -8 -90 -12 -138 -12c-420 0 -674 292 -674 757
c0 466 260 756 674 756c415 0 673 -291 673 -756c0 -263 -82 -471 -229 -602l2 1c-111 -109 -247 -204 -247 -314c0 -39 19 -97 108 -97c21 0 46 2 75 10z" />
    <glyph glyph-name="Oogonekmacron" unicode="&#x1ec;" horiz-adv-x="1591" 
d="M1136 1829v-156h-680v156h680zM796 174c274 0 444 215 444 548c0 335 -171 547 -444 547s-445 -212 -445 -547c0 -333 167 -548 445 -548zM1178 -280v-149c-39 -13 -81 -20 -122 -20c-136 0 -250 68 -250 198c0 81 44 158 128 228c-43 -8 -90 -12 -138 -12
c-420 0 -674 292 -674 757c0 466 260 756 674 756c415 0 673 -291 673 -756c0 -263 -82 -471 -229 -602l2 1c-111 -109 -247 -204 -247 -314c0 -39 19 -97 108 -97c21 0 46 2 75 10z" />
    <glyph glyph-name="Ohorn" unicode="&#x1a0;" horiz-adv-x="1625" 
d="M796 -35c-419 0 -674 292 -674 757c0 466 260 756 674 756c158 0 268 -44 422 -44c82 0 109 27 109 91v151h185v-211c0 -120 -83 -188 -191 -188h-60v-13c123 -88 207 -307 207 -542c0 -464 -254 -757 -672 -757zM796 174c274 0 443 215 443 548c0 335 -169 547 -443 547
c-272 0 -445 -212 -445 -547c0 -333 168 -548 445 -548z" />
    <glyph glyph-name="Ohorndotbelow" unicode="&#x1ee2;" horiz-adv-x="1625" 
d="M796 -35c-419 0 -674 292 -674 757c0 466 260 756 674 756c158 0 268 -44 422 -44c82 0 109 27 109 91v151h185v-211c0 -120 -83 -188 -191 -188h-60v-13c123 -88 207 -307 207 -542c0 -464 -254 -757 -672 -757zM796 174c274 0 443 215 443 548c0 335 -169 547 -443 547
c-272 0 -445 -212 -445 -547c0 -333 168 -548 445 -548zM796 -418c-75 0 -136 62 -136 140s61 140 136 140s136 -62 136 -140s-61 -140 -136 -140z" />
    <glyph glyph-name="Ohornhookabove" unicode="&#x1ede;" horiz-adv-x="1625" 
d="M796 -35c-419 0 -674 292 -674 757c0 466 260 756 674 756c158 0 268 -44 422 -44c82 0 109 27 109 91v151h185v-211c0 -120 -83 -188 -191 -188h-60v-13c123 -88 207 -307 207 -542c0 -464 -254 -757 -672 -757zM796 174c274 0 443 215 443 548c0 335 -169 547 -443 547
c-272 0 -445 -212 -445 -547c0 -333 168 -548 445 -548zM608 1800v135c32 13 86 22 139 22c142 0 233 -74 233 -192c0 -100 -76 -189 -188 -229l-80 104c63 21 108 63 108 106s-42 75 -102 75c-44 0 -85 -8 -110 -21z" />
    <glyph glyph-name="Ohorntilde" unicode="&#x1ee0;" horiz-adv-x="1625" 
d="M796 -35c-419 0 -674 292 -674 757c0 466 260 756 674 756c158 0 268 -44 422 -44c82 0 109 27 109 91v151h185v-211c0 -120 -83 -188 -191 -188h-60v-13c123 -88 207 -307 207 -542c0 -464 -254 -757 -672 -757zM796 174c274 0 443 215 443 548c0 335 -169 547 -443 547
c-272 0 -445 -212 -445 -547c0 -333 168 -548 445 -548zM926 1579c-161 0 -175 145 -263 145c-50 0 -76 -44 -76 -145h-157c0 190 88 301 230 301c162 0 179 -152 269 -152c54 0 76 50 76 152h156c0 -189 -88 -301 -235 -301z" />
    <glyph glyph-name="Ohorngrave" unicode="&#x1edc;" horiz-adv-x="1625" 
d="M796 -35c-419 0 -674 292 -674 757c0 466 260 756 674 756c158 0 268 -44 422 -44c82 0 109 27 109 91v151h185v-211c0 -120 -83 -188 -191 -188h-60v-13c123 -88 207 -307 207 -542c0 -464 -254 -757 -672 -757zM796 174c274 0 443 215 443 548c0 335 -169 547 -443 547
c-272 0 -445 -212 -445 -547c0 -333 168 -548 445 -548zM701 1582l-246 309h246l175 -309h-175z" />
    <glyph glyph-name="Ohornacute" unicode="&#x1eda;" horiz-adv-x="1625" 
d="M796 -35c-419 0 -674 292 -674 757c0 466 260 756 674 756c158 0 268 -44 422 -44c82 0 109 27 109 91v151h185v-211c0 -120 -83 -188 -191 -188h-60v-13c123 -88 207 -307 207 -542c0 -464 -254 -757 -672 -757zM796 174c274 0 443 215 443 548c0 335 -169 547 -443 547
c-272 0 -445 -212 -445 -547c0 -333 168 -548 445 -548zM887 1582h-175l175 309h246z" />
    <glyph glyph-name="Oogonek.mini" horiz-adv-x="1591" 
d="M796 174c274 0 444 215 444 548c0 335 -171 547 -444 547s-445 -212 -445 -547c0 -333 167 -548 445 -548zM1181 -263v-149c-39 -13 -81 -20 -123 -20c-135 0 -250 63 -250 193c0 79 42 150 124 215c-43 -7 -89 -11 -136 -11c-420 0 -674 292 -674 757
c0 466 260 756 674 756c415 0 673 -291 673 -756c0 -263 -82 -471 -229 -602l2 1c-114 -110 -245 -196 -245 -301c0 -40 20 -94 108 -94c22 0 48 3 76 11z" />
    <glyph glyph-name="Ocircumflexacute.mini" horiz-adv-x="1590" 
d="M796 1337c389 0 672 -260 672 -686s-281 -686 -672 -686c-392 0 -674 259 -674 686s288 686 674 686zM796 1127c-248 0 -445 -179 -445 -476c0 -296 192 -477 445 -477c250 0 443 181 443 477c0 297 -194 476 -443 476zM913 1680l290 -246h-244l-154 137h-18l-154 -137
h-244l290 246h234zM1009 1725l178 235h241l-206 -235h-213z" />
    <glyph glyph-name="O.mini" horiz-adv-x="1590" 
d="M796 1337c389 0 672 -260 672 -686s-281 -686 -672 -686c-392 0 -674 259 -674 686s288 686 674 686zM796 1127c-248 0 -445 -179 -445 -476c0 -296 192 -477 445 -477c250 0 443 181 443 477c0 297 -194 476 -443 476z" />
    <glyph glyph-name="Ocircumflexgrave.mini" horiz-adv-x="1590" 
d="M796 1337c389 0 672 -260 672 -686s-281 -686 -672 -686c-392 0 -674 259 -674 686s288 686 674 686zM796 1127c-248 0 -445 -179 -445 -476c0 -296 192 -477 445 -477c250 0 443 181 443 477c0 297 -194 476 -443 476zM913 1680l290 -246h-244l-154 137h-18l-154 -137
h-244l290 246h234zM1250 1725h-214l-206 235h241z" />
    <glyph glyph-name="Otildemacron.mini" horiz-adv-x="1590" 
d="M796 1337c389 0 672 -260 672 -686s-281 -686 -672 -686c-392 0 -674 259 -674 686s288 686 674 686zM796 1127c-248 0 -445 -179 -445 -476c0 -296 192 -477 445 -477c250 0 443 181 443 477c0 297 -194 476 -443 476zM1146 1798h-700v148h700v-148zM940 1435
c-166 0 -178 122 -279 122c-56 0 -87 -37 -90 -104h-152c0 146 93 249 233 249c166 0 178 -122 279 -122c48 0 86 31 91 104h151c0 -140 -93 -249 -233 -249z" />
    <glyph glyph-name="Omacronacute.mini" horiz-adv-x="1590" 
d="M796 1337c389 0 672 -260 672 -686s-281 -686 -672 -686c-392 0 -674 259 -674 686s288 686 674 686zM796 1127c-248 0 -445 -179 -445 -476c0 -296 192 -477 445 -477c250 0 443 181 443 477c0 297 -194 476 -443 476zM1146 1473h-700v149h700v-149zM679 1741l179 219
h238l-204 -219h-213z" />
    <glyph glyph-name="Omacrongrave.mini" horiz-adv-x="1590" 
d="M796 1337c389 0 672 -260 672 -686s-281 -686 -672 -686c-392 0 -674 259 -674 686s288 686 674 686zM796 1127c-248 0 -445 -179 -445 -476c0 -296 192 -477 445 -477c250 0 443 181 443 477c0 297 -194 476 -443 476zM1146 1473h-700v149h700v-149zM913 1741h-213
l-204 219h238z" />
    <glyph glyph-name="Otildedieresis.mini" horiz-adv-x="1590" 
d="M796 1337c389 0 672 -260 672 -686s-281 -686 -672 -686c-392 0 -674 259 -674 686s288 686 674 686zM796 1127c-248 0 -445 -179 -445 -476c0 -296 192 -477 445 -477c250 0 443 181 443 477c0 297 -194 476 -443 476zM945 1434c-166 0 -183 105 -284 105
c-56 0 -87 -29 -90 -89h-152c0 146 85 233 224 233c167 0 187 -105 288 -105c58 0 86 23 91 89h151c0 -141 -88 -233 -228 -233zM591 1741c-72 0 -123 45 -123 109c0 65 51 110 123 110c73 0 124 -45 124 -110c0 -64 -51 -109 -124 -109zM1001 1741c-73 0 -124 45 -124 109
c0 65 51 110 124 110c72 0 123 -45 123 -110c0 -64 -51 -109 -123 -109z" />
    <glyph glyph-name="Otildeacute.mini" horiz-adv-x="1590" 
d="M796 1337c389 0 672 -260 672 -686s-281 -686 -672 -686c-392 0 -674 259 -674 686s288 686 674 686zM796 1127c-248 0 -445 -179 -445 -476c0 -296 192 -477 445 -477c250 0 443 181 443 477c0 297 -194 476 -443 476zM741 1748l179 212h239l-205 -212h-213zM940 1435
c-166 0 -178 122 -279 122c-56 0 -87 -37 -90 -104h-152c0 146 93 249 233 249c166 0 178 -122 279 -122c48 0 86 31 91 104h151c0 -140 -93 -249 -233 -249z" />
    <glyph glyph-name="Odieresismacron.mini" horiz-adv-x="1590" 
d="M796 1337c389 0 672 -260 672 -686s-281 -686 -672 -686c-392 0 -674 259 -674 686s288 686 674 686zM796 1127c-248 0 -445 -179 -445 -476c0 -296 192 -477 445 -477c250 0 443 181 443 477c0 297 -194 476 -443 476zM446 1795v151h700v-151h-700zM588 1434
c-71 0 -126 54 -126 123c0 70 55 124 126 124s126 -54 126 -124c0 -69 -55 -123 -126 -123zM1004 1434c-71 0 -126 54 -126 123c0 70 55 124 126 124s126 -54 126 -124c0 -69 -55 -123 -126 -123z" />
    <glyph glyph-name="Odotaccentmacron.mini" horiz-adv-x="1590" 
d="M796 1337c389 0 672 -260 672 -686s-281 -686 -672 -686c-392 0 -674 259 -674 686s288 686 674 686zM796 1127c-248 0 -445 -179 -445 -476c0 -296 192 -477 445 -477c250 0 443 181 443 477c0 297 -194 476 -443 476zM796 1434c-74 0 -130 56 -130 129s56 128 130 128
s130 -55 130 -128s-56 -129 -130 -129zM1146 1798h-700v148h700v-148z" />
    <glyph glyph-name="Ocircumflexhookabove.mini" horiz-adv-x="1590" 
d="M796 1337c389 0 672 -260 672 -686s-281 -686 -672 -686c-392 0 -674 259 -674 686s288 686 674 686zM796 1127c-248 0 -445 -179 -445 -476c0 -296 192 -477 445 -477c250 0 443 181 443 477c0 297 -194 476 -443 476zM913 1680l290 -246h-244l-154 137h-18l-154 -137
h-244l290 246h234zM925 1827v115c25 9 80 18 138 18c120 0 202 -69 202 -176c0 -87 -58 -166 -138 -192l-99 83c50 17 80 57 80 97c0 41 -35 71 -87 71c-36 0 -75 -7 -96 -16z" />
    <glyph glyph-name="Ocircumflextilde.mini" horiz-adv-x="1590" 
d="M796 1337c389 0 672 -260 672 -686s-281 -686 -672 -686c-392 0 -674 259 -674 686s288 686 674 686zM796 1127c-248 0 -445 -179 -445 -476c0 -296 192 -477 445 -477c250 0 443 181 443 477c0 297 -194 476 -443 476zM915 1673l288 -239h-244l-154 135h-18l-154 -135
h-244l288 239h238zM950 1718c-163 0 -187 101 -288 101c-56 0 -88 -33 -91 -79h-151c0 130 82 220 220 220c167 0 194 -101 290 -101c58 0 86 26 91 92h151c0 -140 -82 -233 -222 -233z" />
    <glyph glyph-name="P" unicode="P" horiz-adv-x="1329" 
d="M181 1443h565c282 0 476 -195 476 -481c0 -282 -200 -476 -483 -476h-334v-486h-224v1443zM405 1245v-562h282c193 0 306 100 306 279c0 183 -109 283 -306 283h-282z" />
    <glyph glyph-name="Pdotaccent" unicode="&#x1e56;" horiz-adv-x="1329" 
d="M181 1443h565c282 0 476 -195 476 -481c0 -282 -200 -476 -483 -476h-334v-486h-224v1443zM405 1245v-562h282c193 0 306 100 306 279c0 183 -109 283 -306 283h-282zM587 1615c-75 0 -136 62 -136 140s61 140 136 140s136 -62 136 -140s-61 -140 -136 -140z" />
    <glyph glyph-name="Pacute" unicode="&#x1e54;" horiz-adv-x="1329" 
d="M181 1443h565c282 0 476 -195 476 -481c0 -282 -200 -476 -483 -476h-334v-486h-224v1443zM405 1245v-562h282c193 0 306 100 306 279c0 183 -109 283 -306 283h-282zM680 1582h-175l175 309h246z" />
    <glyph glyph-name="Q" unicode="Q" horiz-adv-x="1590" 
d="M796 -35c-416 0 -674 287 -674 756c0 467 260 757 674 757c413 0 672 -290 672 -757c0 -279 -90 -498 -250 -619l186 -255h-230l-121 159c-77 -27 -164 -41 -257 -41zM797 169c45 0 89 5 131 17l-191 257h232l118 -152c99 85 155 238 155 430c0 339 -173 553 -446 553
c-274 0 -447 -213 -447 -553s172 -552 448 -552z" />
    <glyph glyph-name="R" unicode="R" horiz-adv-x="1368" 
d="M405 1246v-505h322c173 0 273 92 273 253c0 157 -106 252 -279 252h-316zM405 550v-550h-224v1443h571c291 0 478 -173 478 -444c0 -194 -104 -352 -280 -412l324 -587h-259l-294 550v0h-316z" />
    <glyph glyph-name="Rcaron" unicode="&#x158;" horiz-adv-x="1368" 
d="M405 1246v-505h322c173 0 273 92 273 253c0 157 -106 252 -279 252h-316zM405 550v-550h-224v1443h571c291 0 478 -173 478 -444c0 -194 -104 -352 -280 -412l324 -587h-259l-294 550v0h-316zM725 1582h-202l-295 309h225l163 -178h16l163 178h225z" />
    <glyph glyph-name="Rlinebelow" unicode="&#x1e5e;" horiz-adv-x="1368" 
d="M405 1246v-505h322c173 0 273 92 273 253c0 157 -106 252 -279 252h-316zM405 550v-550h-224v1443h571c291 0 478 -173 478 -444c0 -194 -104 -352 -280 -412l324 -587h-259l-294 550v0h-316zM964 -200v-156h-680v156h680z" />
    <glyph glyph-name="Rdotbelowmacron" unicode="&#x1e5c;" horiz-adv-x="1368" 
d="M405 1246v-505h322c173 0 273 92 273 253c0 157 -106 252 -279 252h-316zM405 550v-550h-224v1443h571c291 0 478 -173 478 -444c0 -194 -104 -352 -280 -412l324 -587h-259l-294 550v0h-316zM624 -418c-75 0 -136 62 -136 140s61 140 136 140s136 -62 136 -140
s-61 -140 -136 -140zM964 1829v-156h-680v156h680z" />
    <glyph glyph-name="Rdblgrave" unicode="&#x210;" horiz-adv-x="1368" 
d="M405 1246v-505h322c173 0 273 92 273 253c0 157 -106 252 -279 252h-316zM405 550v-550h-224v1443h571c291 0 478 -173 478 -444c0 -194 -104 -352 -280 -412l324 -587h-259l-294 550v0h-316zM893 1582h-163l-170 309h213zM545 1582h-164l-230 309h230z" />
    <glyph glyph-name="Rinvertedbreve" unicode="&#x212;" horiz-adv-x="1368" 
d="M405 1246v-505h322c173 0 273 92 273 253c0 157 -106 252 -279 252h-316zM405 550v-550h-224v1443h571c291 0 478 -173 478 -444c0 -194 -104 -352 -280 -412l324 -587h-259l-294 550v0h-316zM993 1577h-174c0 101 -70 168 -195 168s-195 -67 -195 -168h-174
c0 185 135 313 369 313s369 -128 369 -313z" />
    <glyph glyph-name="Racute" unicode="&#x154;" horiz-adv-x="1368" 
d="M405 1246v-505h322c173 0 273 92 273 253c0 157 -106 252 -279 252h-316zM405 550v-550h-224v1443h571c291 0 478 -173 478 -444c0 -194 -104 -352 -280 -412l324 -587h-259l-294 550v0h-316zM717 1582h-175l175 309h246z" />
    <glyph glyph-name="Rdotbelow" unicode="&#x1e5a;" horiz-adv-x="1368" 
d="M405 1246v-505h322c173 0 273 92 273 253c0 157 -106 252 -279 252h-316zM405 550v-550h-224v1443h571c291 0 478 -173 478 -444c0 -194 -104 -352 -280 -412l324 -587h-259l-294 550v0h-316zM624 -418c-75 0 -136 62 -136 140s61 140 136 140s136 -62 136 -140
s-61 -140 -136 -140z" />
    <glyph glyph-name="Rdotaccent" unicode="&#x1e58;" horiz-adv-x="1368" 
d="M405 1246v-505h322c173 0 273 92 273 253c0 157 -106 252 -279 252h-316zM405 550v-550h-224v1443h571c291 0 478 -173 478 -444c0 -194 -104 -352 -280 -412l324 -587h-259l-294 550v0h-316zM624 1615c-75 0 -136 62 -136 140s61 140 136 140s136 -62 136 -140
s-61 -140 -136 -140z" />
    <glyph glyph-name="Rcommaaccent" unicode="&#x156;" horiz-adv-x="1368" 
d="M405 1246v-505h322c173 0 273 92 273 253c0 157 -106 252 -279 252h-316zM405 550v-550h-224v1443h571c291 0 478 -173 478 -444c0 -194 -104 -352 -280 -412l324 -587h-259l-294 550v0h-316zM586 -494h-158l87 372h218z" />
    <glyph glyph-name="Rcommaaccent.mini" horiz-adv-x="1368" 
d="M405 1246v-505h322c173 0 273 92 273 253c0 157 -106 252 -279 252h-316zM405 550v-550h-224v1443h571c291 0 478 -173 478 -444c0 -194 -104 -352 -280 -412l324 -587h-259l-294 550v0h-316zM605 -432h-180l87 291h220z" />
    <glyph glyph-name="S" unicode="S" horiz-adv-x="1333" 
d="M113 388h222c19 -137 153 -224 346 -224c180 0 312 93 312 221c0 110 -84 176 -275 221l-186 45c-261 61 -380 187 -380 399c0 257 210 428 525 428c293 0 507 -171 520 -414h-218c-21 133 -137 216 -305 216c-177 0 -295 -85 -295 -215c0 -103 76 -162 264 -206l159 -39
c296 -69 418 -189 418 -406c0 -276 -214 -449 -556 -449c-320 0 -535 165 -551 423z" />
    <glyph glyph-name="Scaron" unicode="&#x160;" horiz-adv-x="1333" 
d="M113 388h222c19 -137 153 -224 346 -224c180 0 312 93 312 221c0 110 -84 176 -275 221l-186 45c-261 61 -380 187 -380 399c0 257 210 428 525 428c293 0 507 -171 520 -414h-218c-21 133 -137 216 -305 216c-177 0 -295 -85 -295 -215c0 -103 76 -162 264 -206l159 -39
c296 -69 418 -189 418 -406c0 -276 -214 -449 -556 -449c-320 0 -535 165 -551 423zM778 1582h-202l-295 309h225l163 -178h16l163 178h225z" />
    <glyph glyph-name="Scedilla" unicode="&#x15e;" horiz-adv-x="1333" 
d="M643 859l159 -39c296 -69 418 -189 418 -406c0 -253 -180 -420 -474 -446l-55 -89c131 -3 217 -64 217 -169c0 -141 -122 -200 -267 -200c-49 0 -100 7 -146 18v125c16 -4 63 -13 112 -13c61 0 124 15 124 63c0 44 -48 57 -142 57h-63v103l63 105
c-278 24 -461 183 -476 420h222c19 -137 153 -224 346 -224c180 0 312 93 312 221c0 110 -84 176 -275 221l-186 45c-261 61 -380 187 -380 399c0 257 210 428 525 428c293 0 507 -171 520 -414h-218c-21 133 -137 216 -305 216c-177 0 -295 -85 -295 -215
c0 -103 76 -162 264 -206z" />
    <glyph glyph-name="Sdotaccent" unicode="&#x1e60;" horiz-adv-x="1333" 
d="M113 388h222c19 -137 153 -224 346 -224c180 0 312 93 312 221c0 110 -84 176 -275 221l-186 45c-261 61 -380 187 -380 399c0 257 210 428 525 428c293 0 507 -171 520 -414h-218c-21 133 -137 216 -305 216c-177 0 -295 -85 -295 -215c0 -103 76 -162 264 -206l159 -39
c296 -69 418 -189 418 -406c0 -276 -214 -449 -556 -449c-320 0 -535 165 -551 423zM677 1615c-75 0 -136 62 -136 140s61 140 136 140s136 -62 136 -140s-61 -140 -136 -140z" />
    <glyph glyph-name="Sdotbelow" unicode="&#x1e62;" horiz-adv-x="1333" 
d="M113 388h222c19 -137 153 -224 346 -224c180 0 312 93 312 221c0 110 -84 176 -275 221l-186 45c-261 61 -380 187 -380 399c0 257 210 428 525 428c293 0 507 -171 520 -414h-218c-21 133 -137 216 -305 216c-177 0 -295 -85 -295 -215c0 -103 76 -162 264 -206l159 -39
c296 -69 418 -189 418 -406c0 -276 -214 -449 -556 -449c-320 0 -535 165 -551 423zM664 -418c-75 0 -136 62 -136 140s61 140 136 140s136 -62 136 -140s-61 -140 -136 -140z" />
    <glyph glyph-name="Scommaaccent" unicode="&#x218;" horiz-adv-x="1333" 
d="M113 388h222c19 -137 153 -224 346 -224c180 0 312 93 312 221c0 110 -84 176 -275 221l-186 45c-261 61 -380 187 -380 399c0 257 210 428 525 428c293 0 507 -171 520 -414h-218c-21 133 -137 216 -305 216c-177 0 -295 -85 -295 -215c0 -103 76 -162 264 -206l159 -39
c296 -69 418 -189 418 -406c0 -276 -214 -449 -556 -449c-320 0 -535 165 -551 423zM626 -494h-158l87 372h218z" />
    <glyph glyph-name="Sdotbelowdotaccent" unicode="&#x1e68;" horiz-adv-x="1333" 
d="M113 388h222c19 -137 153 -224 346 -224c180 0 312 93 312 221c0 110 -84 176 -275 221l-186 45c-261 61 -380 187 -380 399c0 257 210 428 525 428c293 0 507 -171 520 -414h-218c-21 133 -137 216 -305 216c-177 0 -295 -85 -295 -215c0 -103 76 -162 264 -206l159 -39
c296 -69 418 -189 418 -406c0 -276 -214 -449 -556 -449c-320 0 -535 165 -551 423zM664 -418c-75 0 -136 62 -136 140s61 140 136 140s136 -62 136 -140s-61 -140 -136 -140zM677 1615c-75 0 -136 62 -136 140s61 140 136 140s136 -62 136 -140s-61 -140 -136 -140z" />
    <glyph glyph-name="Scarondotaccent" unicode="&#x1e66;" horiz-adv-x="1333" 
d="M113 388h222c19 -137 153 -224 346 -224c180 0 312 93 312 221c0 110 -84 176 -275 221l-186 45c-261 61 -380 187 -380 399c0 257 210 428 525 428c293 0 507 -171 520 -414h-218c-21 133 -137 216 -305 216c-177 0 -295 -85 -295 -215c0 -103 76 -162 264 -206l159 -39
c296 -69 418 -189 418 -406c0 -276 -214 -449 -556 -449c-320 0 -535 165 -551 423zM562 1577l-288 249h240l154 -139h18l154 139h240l-288 -249h-230zM677 1881c-75 0 -132 58 -132 132c0 75 57 132 132 132s132 -57 132 -132c0 -74 -57 -132 -132 -132z" />
    <glyph glyph-name="Scircumflex" unicode="&#x15c;" horiz-adv-x="1333" 
d="M113 388h222c19 -137 153 -224 346 -224c180 0 312 93 312 221c0 110 -84 176 -275 221l-186 45c-261 61 -380 187 -380 399c0 257 210 428 525 428c293 0 507 -171 520 -414h-218c-21 133 -137 216 -305 216c-177 0 -295 -85 -295 -215c0 -103 76 -162 264 -206l159 -39
c296 -69 418 -189 418 -406c0 -276 -214 -449 -556 -449c-320 0 -535 165 -551 423zM576 1891h202l295 -309h-225l-163 178h-16l-163 -178h-225z" />
    <glyph glyph-name="Sacutedotaccent" unicode="&#x1e64;" horiz-adv-x="1333" 
d="M113 388h222c19 -137 153 -224 346 -224c180 0 312 93 312 221c0 110 -84 176 -275 221l-186 45c-261 61 -380 187 -380 399c0 257 210 428 525 428c293 0 507 -171 520 -414h-218c-21 133 -137 216 -305 216c-177 0 -295 -85 -295 -215c0 -103 76 -162 264 -206l159 -39
c296 -69 418 -189 418 -406c0 -276 -214 -449 -556 -449c-320 0 -535 165 -551 423zM879 1582h-175l175 309h246zM482 1660c-75 0 -136 62 -136 140s61 140 136 140s136 -62 136 -140s-61 -140 -136 -140z" />
    <glyph glyph-name="Sacute" unicode="&#x15a;" horiz-adv-x="1333" 
d="M113 388h222c19 -137 153 -224 346 -224c180 0 312 93 312 221c0 110 -84 176 -275 221l-186 45c-261 61 -380 187 -380 399c0 257 210 428 525 428c293 0 507 -171 520 -414h-218c-21 133 -137 216 -305 216c-177 0 -295 -85 -295 -215c0 -103 76 -162 264 -206l159 -39
c296 -69 418 -189 418 -406c0 -276 -214 -449 -556 -449c-320 0 -535 165 -551 423zM770 1582h-175l175 309h246z" />
    <glyph glyph-name="germandbls.uc" unicode="&#x1e9e;" horiz-adv-x="2666" 
d="M113 388h222c19 -137 153 -224 346 -224c180 0 312 93 312 221c0 110 -84 176 -275 221l-186 45c-261 61 -380 187 -380 399c0 257 210 428 525 428c293 0 507 -171 520 -414h-218c-21 133 -137 216 -305 216c-177 0 -295 -85 -295 -215c0 -103 76 -162 264 -206l159 -39
c296 -69 418 -189 418 -406c0 -276 -214 -449 -556 -449c-320 0 -535 165 -551 423zM1446 388h222c19 -137 153 -224 346 -224c180 0 312 93 312 221c0 110 -84 176 -275 221l-186 45c-261 61 -380 187 -380 399c0 257 210 428 525 428c293 0 507 -171 520 -414h-218
c-21 133 -137 216 -305 216c-177 0 -295 -85 -295 -215c0 -103 76 -162 264 -206l159 -39c296 -69 418 -189 418 -406c0 -276 -214 -449 -556 -449c-320 0 -535 165 -551 423z" />
    <glyph glyph-name="Scommaaccent.mini" horiz-adv-x="1333" 
d="M113 388h222c19 -137 153 -224 346 -224c180 0 312 93 312 221c0 110 -84 176 -275 221l-186 45c-261 61 -380 187 -380 399c0 257 210 428 525 428c293 0 507 -171 520 -414h-218c-21 133 -137 216 -305 216c-177 0 -295 -85 -295 -215c0 -103 76 -162 264 -206l159 -39
c296 -69 418 -189 418 -406c0 -276 -214 -449 -556 -449c-320 0 -535 165 -551 423zM645 -432h-180l87 291h220z" />
    <glyph glyph-name="Scedilla.mini" horiz-adv-x="1333" 
d="M643 859l159 -39c296 -69 418 -189 418 -406c0 -252 -178 -418 -470 -445l-47 -71c121 -8 195 -63 195 -157c0 -108 -102 -173 -260 -173c-45 0 -94 5 -124 15v116c22 -4 63 -10 104 -10c61 0 108 11 108 51c0 38 -38 53 -114 53h-70v78l58 96c-284 21 -472 181 -487 421
h222c19 -137 153 -224 346 -224c180 0 312 93 312 221c0 110 -84 176 -275 221l-186 45c-261 61 -380 187 -380 399c0 257 210 428 525 428c293 0 507 -171 520 -414h-218c-21 133 -137 216 -305 216c-177 0 -295 -85 -295 -215c0 -103 76 -162 264 -206z" />
    <glyph glyph-name="S.mini" horiz-adv-x="1333" 
d="M113 375h222c19 -133 155 -218 349 -218s309 71 309 190c0 100 -62 145 -275 197l-169 40c-277 66 -397 177 -397 363c0 235 204 390 523 390c296 0 509 -164 522 -402h-218c-21 132 -136 210 -308 210c-180 0 -292 -66 -292 -179c0 -85 76 -139 280 -187l152 -36
c292 -69 409 -177 409 -369c0 -256 -205 -409 -552 -409c-321 0 -539 160 -555 410z" />
    <glyph glyph-name="Scarondotaccent.mini" horiz-adv-x="1333" 
d="M113 375h222c19 -133 155 -218 349 -218s309 71 309 190c0 100 -62 145 -275 197l-169 40c-277 66 -397 177 -397 363c0 235 204 390 523 390c296 0 509 -164 522 -402h-218c-21 132 -136 210 -308 210c-180 0 -292 -66 -292 -179c0 -85 76 -139 280 -187l152 -36
c292 -69 409 -177 409 -369c0 -256 -205 -409 -552 -409c-321 0 -539 160 -555 410zM677 1710c-71 0 -127 56 -127 125s56 125 127 125s127 -56 127 -125s-56 -125 -127 -125zM796 1434h-238l-288 241h244l154 -136h18l154 136h244z" />
    <glyph glyph-name="T" unicode="T" horiz-adv-x="1317" 
d="M771 0h-224v1239h-454v204h1131v-204h-453v-1239z" />
    <glyph glyph-name="Tcircumflexbelow" unicode="&#x1e70;" horiz-adv-x="1317" 
d="M771 0h-224v1239h-454v204h1131v-204h-453v-1239zM776 -122l247 -346h-213l-143 219h-16l-143 -219h-213l247 346h234z" />
    <glyph glyph-name="Tdotbelow" unicode="&#x1e6c;" horiz-adv-x="1317" 
d="M771 0h-224v1239h-454v204h1131v-204h-453v-1239zM659 -418c-75 0 -136 62 -136 140s61 140 136 140s136 -62 136 -140s-61 -140 -136 -140z" />
    <glyph glyph-name="Tcommaaccent" unicode="&#x21a;" horiz-adv-x="1317" 
d="M771 0h-224v1239h-454v204h1131v-204h-453v-1239zM621 -494h-158l87 372h218z" />
    <glyph glyph-name="Tdotaccent" unicode="&#x1e6a;" horiz-adv-x="1317" 
d="M771 0h-224v1239h-454v204h1131v-204h-453v-1239zM659 1615c-75 0 -136 62 -136 140s61 140 136 140s136 -62 136 -140s-61 -140 -136 -140z" />
    <glyph glyph-name="Tcedilla" unicode="&#x162;" horiz-adv-x="1317" 
d="M771 24v-24l-74 -121c130 -3 216 -64 216 -169c0 -141 -121 -200 -267 -200c-49 0 -99 7 -145 18v125c15 -4 63 -13 111 -13c62 0 125 15 125 63c0 44 -48 57 -142 57h-63v103l81 137h-66v1239h-454v204h1131v-204h-453v-1215z" />
    <glyph glyph-name="Tlinebelow" unicode="&#x1e6e;" horiz-adv-x="1317" 
d="M771 0h-224v1239h-454v204h1131v-204h-453v-1239zM999 -200v-156h-680v156h680z" />
    <glyph glyph-name="Tcaron" unicode="&#x164;" horiz-adv-x="1317" 
d="M771 0h-224v1239h-454v204h1131v-204h-453v-1239zM760 1582h-202l-295 309h225l163 -178h16l163 178h225z" />
    <glyph glyph-name="Tbar" unicode="&#x166;" horiz-adv-x="1317" 
d="M1224 1239h-453v-435h312v-191h-312v-613h-224v613h-312v191h312v435h-454v204h1131v-204z" />
    <glyph glyph-name="Tcommaaccent.mini" horiz-adv-x="1317" 
d="M771 0h-224v1239h-454v204h1131v-204h-453v-1239zM640 -432h-180l87 291h220z" />
    <glyph glyph-name="Tcedilla.mini" horiz-adv-x="1317" 
d="M771 34v-34l-69 -102c122 -8 195 -63 195 -157c0 -108 -102 -173 -259 -173c-45 0 -94 5 -124 15v116c21 -4 63 -10 104 -10c61 0 108 11 108 51c0 38 -38 53 -114 53h-70v78l78 129h-73v1239h-454v204h1131v-204h-453v-1205z" />
    <glyph glyph-name="U" unicode="U" horiz-adv-x="1527" 
d="M403 1443v-926c0 -202 131 -342 360 -342c230 0 361 140 361 342v926h224v-946c0 -313 -222 -532 -585 -532c-361 0 -584 219 -584 532v946h224z" />
    <glyph glyph-name="Ugrave" unicode="&#xd9;" horiz-adv-x="1527" 
d="M403 1443v-926c0 -202 131 -342 360 -342c230 0 361 140 361 342v926h224v-946c0 -313 -222 -532 -585 -532c-361 0 -584 219 -584 532v946h224zM670 1582l-246 309h246l175 -309h-175z" />
    <glyph glyph-name="Udblgrave" unicode="&#x214;" horiz-adv-x="1527" 
d="M403 1443v-926c0 -202 131 -342 360 -342c230 0 361 140 361 342v926h224v-946c0 -313 -222 -532 -585 -532c-361 0 -584 219 -584 532v946h224zM1032 1582h-163l-170 309h213zM684 1582h-164l-230 309h230z" />
    <glyph glyph-name="Uacute" unicode="&#xda;" horiz-adv-x="1527" 
d="M403 1443v-926c0 -202 131 -342 360 -342c230 0 361 140 361 342v926h224v-946c0 -313 -222 -532 -585 -532c-361 0 -584 219 -584 532v946h224zM856 1582h-175l175 309h246z" />
    <glyph glyph-name="Uhungarumlaut" unicode="&#x170;" horiz-adv-x="1527" 
d="M403 1443v-926c0 -202 131 -342 360 -342c230 0 361 140 361 342v926h224v-946c0 -313 -222 -532 -585 -532c-361 0 -584 219 -584 532v946h224zM494 1582l120 309h213l-170 -309h-163zM842 1582l164 309h230l-230 -309h-164z" />
    <glyph glyph-name="Ucircumflex" unicode="&#xdb;" horiz-adv-x="1527" 
d="M403 1443v-926c0 -202 131 -342 360 -342c230 0 361 140 361 342v926h224v-946c0 -313 -222 -532 -585 -532c-361 0 -584 219 -584 532v946h224zM662 1891h202l295 -309h-225l-163 178h-16l-163 -178h-225z" />
    <glyph glyph-name="Ucaron" unicode="&#x1d3;" horiz-adv-x="1527" 
d="M403 1443v-926c0 -202 131 -342 360 -342c230 0 361 140 361 342v926h224v-946c0 -313 -222 -532 -585 -532c-361 0 -584 219 -584 532v946h224zM864 1582h-202l-295 309h225l163 -178h16l163 178h225z" />
    <glyph glyph-name="Ucircumflexbelow" unicode="&#x1e76;" horiz-adv-x="1527" 
d="M403 1443v-926c0 -202 131 -342 360 -342c230 0 361 140 361 342v926h224v-946c0 -313 -222 -532 -585 -532c-361 0 -584 219 -584 532v946h224zM880 -122l247 -346h-213l-143 219h-16l-143 -219h-213l247 346h234z" />
    <glyph glyph-name="Udieresis" unicode="&#xdc;" horiz-adv-x="1527" 
d="M403 1443v-926c0 -202 131 -342 360 -342c230 0 361 140 361 342v926h224v-946c0 -313 -222 -532 -585 -532c-361 0 -584 219 -584 532v946h224zM538 1618c-73 0 -133 60 -133 136c0 75 60 136 133 136s132 -61 132 -136c0 -76 -59 -136 -132 -136zM988 1618
c-73 0 -132 60 -132 136c0 75 59 136 132 136c74 0 133 -61 133 -136c0 -76 -59 -136 -133 -136z" />
    <glyph glyph-name="Udieresisgrave" unicode="&#x1db;" horiz-adv-x="1527" 
d="M403 1443v-926c0 -202 131 -342 360 -342c230 0 361 140 361 342v926h224v-946c0 -313 -222 -532 -585 -532c-361 0 -584 219 -584 532v946h224zM877 1901h-199l-258 231h250zM549 1577c-75 0 -133 58 -133 134s58 135 133 135c76 0 134 -59 134 -135s-58 -134 -134 -134
zM977 1577c-76 0 -134 58 -134 134s58 135 134 135c75 0 133 -59 133 -135s-58 -134 -133 -134z" />
    <glyph glyph-name="Udieresisacute" unicode="&#x1d7;" horiz-adv-x="1527" 
d="M403 1443v-926c0 -202 131 -342 360 -342c230 0 361 140 361 342v926h224v-946c0 -313 -222 -532 -585 -532c-361 0 -584 219 -584 532v946h224zM663 1901l207 231h251l-258 -231h-200zM549 1577c-75 0 -133 58 -133 134s58 135 133 135c76 0 134 -59 134 -135
s-58 -134 -134 -134zM977 1577c-76 0 -134 58 -134 134s58 135 134 135c75 0 133 -59 133 -135s-58 -134 -133 -134z" />
    <glyph glyph-name="Udieresismacron" unicode="&#x1d5;" horiz-adv-x="1527" 
d="M403 1443v-926c0 -202 131 -342 360 -342c230 0 361 140 361 342v926h224v-946c0 -313 -222 -532 -585 -532c-361 0 -584 219 -584 532v946h224zM549 1840c74 0 130 -57 130 -132c0 -74 -56 -131 -130 -131c-73 0 -130 57 -130 131c0 75 57 132 130 132zM413 2107h700
v-147h-700v147zM977 1840c73 0 130 -57 130 -132c0 -74 -57 -131 -130 -131c-74 0 -130 57 -130 131c0 75 56 132 130 132z" />
    <glyph glyph-name="Udieresiscaron" unicode="&#x1d9;" horiz-adv-x="1527" 
d="M403 1443v-926c0 -202 131 -342 360 -342c230 0 361 140 361 342v926h224v-946c0 -313 -222 -532 -585 -532c-361 0 -584 219 -584 532v946h224zM652 1883l-289 262h237l154 -148h18l154 148h237l-289 -262h-222zM549 1828c74 0 130 -56 130 -129
c0 -72 -56 -129 -130 -129c-73 0 -129 57 -129 129c0 73 56 129 129 129zM977 1828c73 0 129 -56 129 -129c0 -72 -56 -129 -129 -129c-74 0 -130 57 -130 129c0 73 56 129 130 129z" />
    <glyph glyph-name="Udieresisbelow" unicode="&#x1e72;" horiz-adv-x="1527" 
d="M403 1443v-926c0 -202 131 -342 360 -342c230 0 361 140 361 342v926h224v-946c0 -313 -222 -532 -585 -532c-361 0 -584 219 -584 532v946h224zM538 -414c-73 0 -133 61 -133 136c0 76 60 136 133 136s132 -60 132 -136c0 -75 -59 -136 -132 -136zM988 -414
c-73 0 -132 61 -132 136c0 76 59 136 132 136c74 0 133 -60 133 -136c0 -75 -59 -136 -133 -136z" />
    <glyph glyph-name="Utildebelow" unicode="&#x1e74;" horiz-adv-x="1527" 
d="M403 1443v-926c0 -202 131 -342 360 -342c230 0 361 140 361 342v926h224v-946c0 -313 -222 -532 -585 -532c-361 0 -584 219 -584 532v946h224zM895 -428c-161 0 -175 145 -263 145c-50 0 -76 -44 -76 -145h-157c0 190 88 301 230 301c162 0 179 -151 269 -151
c54 0 76 50 76 151h156c0 -189 -88 -301 -235 -301z" />
    <glyph glyph-name="Uhookabove" unicode="&#x1ee6;" horiz-adv-x="1527" 
d="M403 1443v-926c0 -202 131 -342 360 -342c230 0 361 140 361 342v926h224v-946c0 -313 -222 -532 -585 -532c-361 0 -584 219 -584 532v946h224zM577 1800v135c32 13 86 22 139 22c142 0 233 -74 233 -192c0 -100 -76 -189 -188 -229l-80 104c63 21 108 63 108 106
s-42 75 -102 75c-44 0 -85 -8 -110 -21z" />
    <glyph glyph-name="Ubreve" unicode="&#x16c;" horiz-adv-x="1527" 
d="M403 1443v-926c0 -202 131 -342 360 -342c230 0 361 140 361 342v926h224v-946c0 -313 -222 -532 -585 -532c-361 0 -584 219 -584 532v946h224zM394 1890h174c0 -100 70 -167 195 -167s195 67 195 167h174c0 -185 -135 -313 -369 -313s-369 128 -369 313z" />
    <glyph glyph-name="Uinvertedbreve" unicode="&#x216;" horiz-adv-x="1527" 
d="M403 1443v-926c0 -202 131 -342 360 -342c230 0 361 140 361 342v926h224v-946c0 -313 -222 -532 -585 -532c-361 0 -584 219 -584 532v946h224zM1132 1577h-174c0 101 -70 168 -195 168s-195 -67 -195 -168h-174c0 185 135 313 369 313s369 -128 369 -313z" />
    <glyph glyph-name="Utildeacute" unicode="&#x1e78;" horiz-adv-x="1527" 
d="M403 1443v-926c0 -202 131 -342 360 -342c230 0 361 140 361 342v926h224v-946c0 -313 -222 -532 -585 -532c-361 0 -584 219 -584 532v946h224zM908 1577c-167 0 -175 125 -279 125c-55 0 -88 -37 -91 -111h-153c0 158 96 260 233 260c167 0 175 -125 279 -125
c47 0 87 32 92 109h152c0 -151 -96 -258 -233 -258zM712 1901l198 231h242l-227 -231h-213z" />
    <glyph glyph-name="Udotbelow" unicode="&#x1ee4;" horiz-adv-x="1527" 
d="M403 1443v-926c0 -202 131 -342 360 -342c230 0 361 140 361 342v926h224v-946c0 -313 -222 -532 -585 -532c-361 0 -584 219 -584 532v946h224zM763 -418c-75 0 -136 62 -136 140s61 140 136 140s136 -62 136 -140s-61 -140 -136 -140z" />
    <glyph glyph-name="Utilde" unicode="&#x168;" horiz-adv-x="1527" 
d="M403 1443v-926c0 -202 131 -342 360 -342c230 0 361 140 361 342v926h224v-946c0 -313 -222 -532 -585 -532c-361 0 -584 219 -584 532v946h224zM895 1579c-161 0 -175 145 -263 145c-50 0 -76 -44 -76 -145h-157c0 190 88 301 230 301c162 0 179 -152 269 -152
c54 0 76 50 76 152h156c0 -189 -88 -301 -235 -301z" />
    <glyph glyph-name="Umacron" unicode="&#x16a;" horiz-adv-x="1527" 
d="M403 1443v-926c0 -202 131 -342 360 -342c230 0 361 140 361 342v926h224v-946c0 -313 -222 -532 -585 -532c-361 0 -584 219 -584 532v946h224zM1103 1829v-156h-680v156h680z" />
    <glyph glyph-name="Umacrondieresis" unicode="&#x1e7a;" horiz-adv-x="1527" 
d="M403 1443v-926c0 -202 131 -342 360 -342c230 0 361 140 361 342v926h224v-946c0 -313 -222 -532 -585 -532c-361 0 -584 219 -584 532v946h224zM1113 1616h-700v151h700v-151zM554 1876c-72 0 -127 57 -127 129c0 73 55 129 127 129c73 0 127 -56 127 -129
c0 -72 -54 -129 -127 -129zM972 1876c-73 0 -127 57 -127 129c0 73 54 129 127 129c72 0 127 -56 127 -129c0 -72 -55 -129 -127 -129z" />
    <glyph glyph-name="Uring" unicode="&#x16e;" horiz-adv-x="1527" 
d="M403 1443v-926c0 -202 131 -342 360 -342c230 0 361 140 361 342v926h224v-946c0 -313 -222 -532 -585 -532c-361 0 -584 219 -584 532v946h224zM763 1544c-112 0 -203 87 -203 201c0 113 91 201 203 201s203 -88 203 -201c0 -114 -91 -201 -203 -201zM763 1647
c58 0 101 41 101 98s-43 98 -101 98s-101 -41 -101 -98s43 -98 101 -98z" />
    <glyph glyph-name="Uogonek" unicode="&#x172;" horiz-adv-x="1527" 
d="M1124 1443h224v-946c0 -153 -53 -283 -149 -376h1c-110 -109 -247 -204 -247 -314c0 -39 19 -97 109 -97c20 0 45 2 75 10v-149c-39 -13 -81 -20 -123 -20c-135 0 -250 68 -250 198c0 80 43 157 126 226c-40 -7 -82 -10 -127 -10c-361 0 -584 219 -584 532v946h224v-926
c0 -202 131 -342 360 -342c230 0 361 140 361 342v926z" />
    <glyph glyph-name="Uhorn" unicode="&#x1af;" horiz-adv-x="1683" 
d="M763 -35c-352 0 -584 210 -584 532v946h224v-926c0 -210 140 -342 360 -342c221 0 361 132 361 342v926h229c60 0 87 28 87 83v170h185v-213c0 -131 -86 -199 -211 -199h-66v-787c0 -322 -232 -532 -585 -532z" />
    <glyph glyph-name="Uhorngrave" unicode="&#x1eea;" horiz-adv-x="1683" 
d="M763 -35c-352 0 -584 210 -584 532v946h224v-926c0 -210 140 -342 360 -342c221 0 361 132 361 342v926h229c60 0 87 28 87 83v170h185v-213c0 -131 -86 -199 -211 -199h-66v-787c0 -322 -232 -532 -585 -532zM670 1582l-246 309h246l175 -309h-175z" />
    <glyph glyph-name="Uhornacute" unicode="&#x1ee8;" horiz-adv-x="1683" 
d="M763 -35c-352 0 -584 210 -584 532v946h224v-926c0 -210 140 -342 360 -342c221 0 361 132 361 342v926h229c60 0 87 28 87 83v170h185v-213c0 -131 -86 -199 -211 -199h-66v-787c0 -322 -232 -532 -585 -532zM856 1582h-175l175 309h246z" />
    <glyph glyph-name="Uhorndotbelow" unicode="&#x1ef0;" horiz-adv-x="1683" 
d="M763 -35c-352 0 -584 210 -584 532v946h224v-926c0 -210 140 -342 360 -342c221 0 361 132 361 342v926h229c60 0 87 28 87 83v170h185v-213c0 -131 -86 -199 -211 -199h-66v-787c0 -322 -232 -532 -585 -532zM763 -418c-75 0 -136 62 -136 140s61 140 136 140
s136 -62 136 -140s-61 -140 -136 -140z" />
    <glyph glyph-name="Uhornhookabove" unicode="&#x1eec;" horiz-adv-x="1683" 
d="M763 -35c-352 0 -584 210 -584 532v946h224v-926c0 -210 140 -342 360 -342c221 0 361 132 361 342v926h229c60 0 87 28 87 83v170h185v-213c0 -131 -86 -199 -211 -199h-66v-787c0 -322 -232 -532 -585 -532zM577 1800v135c32 13 86 22 139 22c142 0 233 -74 233 -192
c0 -100 -76 -189 -188 -229l-80 104c63 21 108 63 108 106s-42 75 -102 75c-44 0 -85 -8 -110 -21z" />
    <glyph glyph-name="Uhorntilde" unicode="&#x1eee;" horiz-adv-x="1683" 
d="M763 -35c-352 0 -584 210 -584 532v946h224v-926c0 -210 140 -342 360 -342c221 0 361 132 361 342v926h229c60 0 87 28 87 83v170h185v-213c0 -131 -86 -199 -211 -199h-66v-787c0 -322 -232 -532 -585 -532zM895 1579c-161 0 -175 145 -263 145c-50 0 -76 -44 -76 -145
h-157c0 190 88 301 230 301c162 0 179 -152 269 -152c54 0 76 50 76 152h156c0 -189 -88 -301 -235 -301z" />
    <glyph glyph-name="Uogonek.mini" horiz-adv-x="1527" 
d="M1124 1443h224v-946c0 -153 -53 -283 -149 -376h1c-114 -110 -245 -196 -245 -301c0 -40 21 -94 108 -94c23 0 48 3 76 11v-149c-39 -13 -81 -20 -122 -20c-136 0 -251 63 -251 193c0 78 41 148 122 213c-40 -6 -81 -9 -125 -9c-361 0 -584 219 -584 532v946h224v-926
c0 -202 131 -342 360 -342c230 0 361 140 361 342v926z" />
    <glyph glyph-name="U.mini" horiz-adv-x="1527" 
d="M403 1301v-784c0 -202 131 -342 360 -342c230 0 361 140 361 342v784h224v-804c0 -313 -222 -532 -585 -532c-361 0 -584 219 -584 532v804h224z" />
    <glyph glyph-name="Udieresismacron.mini" horiz-adv-x="1527" 
d="M403 1301v-784c0 -202 131 -342 360 -342c230 0 361 140 361 342v784h224v-804c0 -313 -222 -532 -585 -532c-361 0 -584 219 -584 532v804h224zM413 1785v151h700v-151h-700zM555 1424c-71 0 -126 54 -126 123c0 70 55 124 126 124s126 -54 126 -124
c0 -69 -55 -123 -126 -123zM971 1424c-71 0 -126 54 -126 123c0 70 55 124 126 124s126 -54 126 -124c0 -69 -55 -123 -126 -123z" />
    <glyph glyph-name="Udieresiscaron.mini" horiz-adv-x="1527" 
d="M403 1301v-784c0 -202 131 -342 360 -342c230 0 361 140 361 342v784h224v-804c0 -313 -222 -532 -585 -532c-361 0 -584 219 -584 532v804h224zM555 1424c-71 0 -126 54 -126 123c0 70 55 124 126 124s126 -54 126 -124c0 -69 -55 -123 -126 -123zM971 1424
c-71 0 -126 54 -126 123c0 70 55 124 126 124s126 -54 126 -124c0 -69 -55 -123 -126 -123zM885 1725h-244l-287 225h256l144 -121h18l144 121h256z" />
    <glyph glyph-name="Udieresisacute.mini" horiz-adv-x="1527" 
d="M403 1301v-784c0 -202 131 -342 360 -342c230 0 361 140 361 342v784h224v-804c0 -313 -222 -532 -585 -532c-361 0 -584 219 -584 532v804h224zM555 1424c-73 0 -129 55 -129 126c0 72 56 127 129 127s129 -55 129 -127c0 -71 -56 -126 -129 -126zM971 1424
c-73 0 -129 55 -129 126c0 72 56 127 129 127s129 -55 129 -127c0 -71 -56 -126 -129 -126zM646 1735l179 215h238l-204 -215h-213z" />
    <glyph glyph-name="Udieresisgrave.mini" horiz-adv-x="1527" 
d="M403 1301v-784c0 -202 131 -342 360 -342c230 0 361 140 361 342v784h224v-804c0 -313 -222 -532 -585 -532c-361 0 -584 219 -584 532v804h224zM555 1424c-73 0 -129 55 -129 126c0 72 56 127 129 127s129 -55 129 -127c0 -71 -56 -126 -129 -126zM971 1424
c-73 0 -129 55 -129 126c0 72 56 127 129 127s129 -55 129 -127c0 -71 -56 -126 -129 -126zM880 1735h-213l-204 215h238z" />
    <glyph glyph-name="Utildeacute.mini" horiz-adv-x="1527" 
d="M403 1301v-784c0 -202 131 -342 360 -342c230 0 361 140 361 342v784h224v-804c0 -313 -222 -532 -585 -532c-361 0 -584 219 -584 532v804h224zM708 1738l179 212h239l-205 -212h-213zM907 1425c-166 0 -178 122 -279 122c-56 0 -87 -37 -90 -104h-152
c0 146 93 249 233 249c166 0 178 -122 279 -122c48 0 86 31 91 104h151c0 -140 -93 -249 -233 -249z" />
    <glyph glyph-name="Umacrondieresis.mini" horiz-adv-x="1527" 
d="M403 1301v-784c0 -202 131 -342 360 -342c230 0 361 140 361 342v784h224v-804c0 -313 -222 -532 -585 -532c-361 0 -584 219 -584 532v804h224zM413 1440v149h700v-149h-700zM555 1704c-71 0 -126 53 -126 123s55 123 126 123s126 -53 126 -123s-55 -123 -126 -123z
M971 1704c-71 0 -126 53 -126 123s55 123 126 123s126 -53 126 -123s-55 -123 -126 -123z" />
    <glyph glyph-name="V" unicode="V" horiz-adv-x="1415" 
d="M832 0h-246l-516 1443h244l389 -1163h17l387 1163h238z" />
    <glyph glyph-name="Vtilde" unicode="&#x1e7c;" horiz-adv-x="1415" 
d="M832 0h-246l-516 1443h244l389 -1163h17l387 1163h238zM841 1579c-161 0 -175 145 -263 145c-50 0 -76 -44 -76 -145h-157c0 190 88 301 230 301c162 0 179 -152 269 -152c54 0 76 50 76 152h156c0 -189 -88 -301 -235 -301z" />
    <glyph glyph-name="Vdotbelow" unicode="&#x1e7e;" horiz-adv-x="1415" 
d="M832 0h-246l-516 1443h244l389 -1163h17l387 1163h238zM709 -418c-75 0 -136 62 -136 140s61 140 136 140s136 -62 136 -140s-61 -140 -136 -140z" />
    <glyph glyph-name="W" unicode="W" horiz-adv-x="2013" 
d="M999 1059l-309 -1059h-212l-389 1443h233l265 -1105h14l301 1105h208l303 -1105h14l264 1105h233l-390 -1443h-211l-310 1059h-14z" />
    <glyph glyph-name="Wgrave" unicode="&#x1e80;" horiz-adv-x="2013" 
d="M999 1059l-309 -1059h-212l-389 1443h233l265 -1105h14l301 1105h208l303 -1105h14l264 1105h233l-390 -1443h-211l-310 1059h-14zM913 1582l-246 309h246l175 -309h-175z" />
    <glyph glyph-name="Wacute" unicode="&#x1e82;" horiz-adv-x="2013" 
d="M999 1059l-309 -1059h-212l-389 1443h233l265 -1105h14l301 1105h208l303 -1105h14l264 1105h233l-390 -1443h-211l-310 1059h-14zM1099 1582h-175l175 309h246z" />
    <glyph glyph-name="Wdotaccent" unicode="&#x1e86;" horiz-adv-x="2013" 
d="M999 1059l-309 -1059h-212l-389 1443h233l265 -1105h14l301 1105h208l303 -1105h14l264 1105h233l-390 -1443h-211l-310 1059h-14zM1006 1615c-75 0 -136 62 -136 140s61 140 136 140s136 -62 136 -140s-61 -140 -136 -140z" />
    <glyph glyph-name="Wdotbelow" unicode="&#x1e88;" horiz-adv-x="2013" 
d="M999 1059l-309 -1059h-212l-389 1443h233l265 -1105h14l301 1105h208l303 -1105h14l264 1105h233l-390 -1443h-211l-310 1059h-14zM1006 -418c-75 0 -136 62 -136 140s61 140 136 140s136 -62 136 -140s-61 -140 -136 -140z" />
    <glyph glyph-name="Wdieresis" unicode="&#x1e84;" horiz-adv-x="2013" 
d="M999 1059l-309 -1059h-212l-389 1443h233l265 -1105h14l301 1105h208l303 -1105h14l264 1105h233l-390 -1443h-211l-310 1059h-14zM781 1618c-73 0 -133 60 -133 136c0 75 60 136 133 136s132 -61 132 -136c0 -76 -59 -136 -132 -136zM1231 1618c-73 0 -132 60 -132 136
c0 75 59 136 132 136c74 0 133 -61 133 -136c0 -76 -59 -136 -133 -136z" />
    <glyph glyph-name="Wcircumflex" unicode="&#x174;" horiz-adv-x="2013" 
d="M999 1059l-309 -1059h-212l-389 1443h233l265 -1105h14l301 1105h208l303 -1105h14l264 1105h233l-390 -1443h-211l-310 1059h-14zM905 1891h202l295 -309h-225l-163 178h-16l-163 -178h-225z" />
    <glyph glyph-name="X" unicode="X" horiz-adv-x="1427" 
d="M89 0l482 726v0l-477 717h267l351 -544h17l357 544h252l-490 -723v0l481 -720h-262l-354 534h-17l-359 -534h-248z" />
    <glyph glyph-name="Xdotaccent" unicode="&#x1e8a;" horiz-adv-x="1427" 
d="M89 0l482 726v0l-477 717h267l351 -544h17l357 544h252l-490 -723v0l481 -720h-262l-354 534h-17l-359 -534h-248zM716 1615c-75 0 -136 62 -136 140s61 140 136 140s136 -62 136 -140s-61 -140 -136 -140z" />
    <glyph glyph-name="Xdieresis" unicode="&#x1e8c;" horiz-adv-x="1427" 
d="M89 0l482 726v0l-477 717h267l351 -544h17l357 544h252l-490 -723v0l481 -720h-262l-354 534h-17l-359 -534h-248zM491 1618c-73 0 -133 60 -133 136c0 75 60 136 133 136s132 -61 132 -136c0 -76 -59 -136 -132 -136zM941 1618c-73 0 -132 60 -132 136
c0 75 59 136 132 136c74 0 133 -61 133 -136c0 -76 -59 -136 -133 -136z" />
    <glyph glyph-name="Y" unicode="Y" horiz-adv-x="1383" 
d="M803 0h-224v582l-508 861h249l363 -625h17l363 625h249l-509 -861v-582z" />
    <glyph glyph-name="Ygrave" unicode="&#x1ef2;" horiz-adv-x="1383" 
d="M803 0h-224v582l-508 861h249l363 -625h17l363 625h249l-509 -861v-582zM598 1582l-246 309h246l175 -309h-175z" />
    <glyph glyph-name="Yacute" unicode="&#xdd;" horiz-adv-x="1383" 
d="M803 0h-224v582l-508 861h249l363 -625h17l363 625h249l-509 -861v-582zM784 1582h-175l175 309h246z" />
    <glyph glyph-name="Ydotaccent" unicode="&#x1e8e;" horiz-adv-x="1383" 
d="M803 0h-224v582l-508 861h249l363 -625h17l363 625h249l-509 -861v-582zM691 1615c-75 0 -136 62 -136 140s61 140 136 140s136 -62 136 -140s-61 -140 -136 -140z" />
    <glyph glyph-name="Ydotbelow" unicode="&#x1ef4;" horiz-adv-x="1383" 
d="M803 0h-224v582l-508 861h249l363 -625h17l363 625h249l-509 -861v-582zM691 -418c-75 0 -136 62 -136 140s61 140 136 140s136 -62 136 -140s-61 -140 -136 -140z" />
    <glyph glyph-name="Ydieresis" unicode="&#x178;" horiz-adv-x="1383" 
d="M803 0h-224v582l-508 861h249l363 -625h17l363 625h249l-509 -861v-582zM466 1618c-73 0 -133 60 -133 136c0 75 60 136 133 136s132 -61 132 -136c0 -76 -59 -136 -132 -136zM916 1618c-73 0 -132 60 -132 136c0 75 59 136 132 136c74 0 133 -61 133 -136
c0 -76 -59 -136 -133 -136z" />
    <glyph glyph-name="Ytilde" unicode="&#x1ef8;" horiz-adv-x="1383" 
d="M803 0h-224v582l-508 861h249l363 -625h17l363 625h249l-509 -861v-582zM823 1579c-161 0 -175 145 -263 145c-50 0 -76 -44 -76 -145h-157c0 190 88 301 230 301c162 0 179 -152 269 -152c54 0 76 50 76 152h156c0 -189 -88 -301 -235 -301z" />
    <glyph glyph-name="Ycircumflex" unicode="&#x176;" horiz-adv-x="1383" 
d="M803 0h-224v582l-508 861h249l363 -625h17l363 625h249l-509 -861v-582zM590 1891h202l295 -309h-225l-163 178h-16l-163 -178h-225z" />
    <glyph glyph-name="Ymacron" unicode="&#x232;" horiz-adv-x="1383" 
d="M803 0h-224v582l-508 861h249l363 -625h17l363 625h249l-509 -861v-582zM1031 1829v-156h-680v156h680z" />
    <glyph glyph-name="Yhookabove" unicode="&#x1ef6;" horiz-adv-x="1383" 
d="M803 0h-224v582l-508 861h249l363 -625h17l363 625h249l-509 -861v-582zM505 1800v135c32 13 86 22 139 22c142 0 233 -74 233 -192c0 -100 -76 -189 -188 -229l-80 104c63 21 108 63 108 106s-42 75 -102 75c-44 0 -85 -8 -110 -21z" />
    <glyph glyph-name="Z" unicode="Z" horiz-adv-x="1365" 
d="M141 0v161l784 1061v17h-760v204h1041v-161l-780 -1061v-17h799v-204h-1084z" />
    <glyph glyph-name="Zacute" unicode="&#x179;" horiz-adv-x="1365" 
d="M141 0v161l784 1061v17h-760v204h1041v-161l-780 -1061v-17h799v-204h-1084zM776 1582h-175l175 309h246z" />
    <glyph glyph-name="Zcaron" unicode="&#x17d;" horiz-adv-x="1365" 
d="M141 0v161l784 1061v17h-760v204h1041v-161l-780 -1061v-17h799v-204h-1084zM784 1582h-202l-295 309h225l163 -178h16l163 178h225z" />
    <glyph glyph-name="Zcircumflex" unicode="&#x1e90;" horiz-adv-x="1365" 
d="M141 0v161l784 1061v17h-760v204h1041v-161l-780 -1061v-17h799v-204h-1084zM582 1891h202l295 -309h-225l-163 178h-16l-163 -178h-225z" />
    <glyph glyph-name="Zlinebelow" unicode="&#x1e94;" horiz-adv-x="1365" 
d="M141 0v161l784 1061v17h-760v204h1041v-161l-780 -1061v-17h799v-204h-1084zM1023 -200v-156h-680v156h680z" />
    <glyph glyph-name="Zdotbelow" unicode="&#x1e92;" horiz-adv-x="1365" 
d="M141 0v161l784 1061v17h-760v204h1041v-161l-780 -1061v-17h799v-204h-1084zM683 -418c-75 0 -136 62 -136 140s61 140 136 140s136 -62 136 -140s-61 -140 -136 -140z" />
    <glyph glyph-name="Zdotaccent" unicode="&#x17b;" horiz-adv-x="1365" 
d="M141 0v161l784 1061v17h-760v204h1041v-161l-780 -1061v-17h799v-204h-1084zM683 1615c-75 0 -136 62 -136 140s61 140 136 140s136 -62 136 -140s-61 -140 -136 -140z" />
    <glyph glyph-name="AE" unicode="&#xc6;" horiz-adv-x="1999" 
d="M847 1253l-288 -647h428v647h-140zM987 0v417h-504l-189 -417h-224l631 1443h1156v-204h-655v-415h618v-195h-618v-425h655v-204h-870z" />
    <glyph glyph-name="AEmacron" unicode="&#x1e2;" horiz-adv-x="1999" 
d="M847 1253l-288 -647h428v647h-140zM987 0v417h-504l-189 -417h-224l631 1443h1156v-204h-655v-415h618v-195h-618v-425h655v-204h-870zM1617 1829v-156h-680v156h680z" />
    <glyph glyph-name="AEacute" unicode="&#x1fc;" horiz-adv-x="1999" 
d="M847 1253l-288 -647h428v647h-140zM987 0v417h-504l-189 -417h-224l631 1443h1156v-204h-655v-415h618v-195h-618v-425h655v-204h-870zM1370 1582h-175l175 309h246z" />
    <glyph glyph-name="OE" unicode="&#x152;" horiz-adv-x="2317" 
d="M805 1269c-279 0 -454 -210 -454 -547c0 -338 173 -548 454 -548c269 0 435 210 435 548s-166 547 -435 547zM1273 0v241h-17c-83 -166 -276 -276 -482 -276c-404 0 -652 287 -652 757c0 468 249 756 652 756c203 0 400 -109 482 -267h17v232h902v-204h-707v-408h670
v-194h-670v-433h707v-204h-902z" />
    <glyph glyph-name="Eth" unicode="&#xd0;" horiz-adv-x="1503" 
d="M405 204h272c302 0 476 188 476 519c0 326 -177 516 -476 516h-272v-405h290v-191h-290v-439zM181 1443h521c428 0 679 -263 679 -717c0 -461 -249 -726 -679 -726h-521v643h-146v191h146v609z" />
    <glyph glyph-name="Thorn" unicode="&#xde;" horiz-adv-x="1315" 
d="M181 1443h224v-251h350c238 0 441 -161 441 -436c0 -273 -206 -436 -448 -436h-343v-320h-224v1443zM405 993v-476h287c161 0 275 80 275 239s-114 237 -275 237h-287z" />
    <glyph glyph-name="Alphagreek" unicode="&#x391;" horiz-adv-x="1423" 
d="M1115 0l-132 383h-550l-133 -383h-230l521 1443h241l521 -1443h-238zM700 1181l-210 -610h436l-209 610h-17z" />
    <glyph glyph-name="Betagreek" unicode="&#x392;" horiz-adv-x="1373" 
d="M774 0h-593v1443h580c271 0 434 -138 434 -360c0 -151 -111 -286 -253 -310v-17c195 -20 325 -159 325 -347c0 -254 -185 -409 -493 -409zM405 1253v-421h266c198 0 301 73 301 210c0 133 -97 211 -263 211h-304zM405 190h324c202 0 309 82 309 235
c0 151 -111 230 -322 230h-311v-465z" />
    <glyph glyph-name="Gammagreek" unicode="&#x393;" horiz-adv-x="1171" 
d="M405 0h-224v1443h881v-204h-657v-1239z" />
    <glyph glyph-name="Deltagreek" unicode="&#x2206;" horiz-adv-x="1434" 
d="M1328 0h-1221v149l489 1294h242l490 -1294v-149zM351 221v-17h724v17l-353 970h-16z" />
    <glyph glyph-name="Deltagreek" unicode="&#x394;" horiz-adv-x="1434" 
d="M1328 0h-1221v149l489 1294h242l490 -1294v-149zM351 221v-17h724v17l-353 970h-16z" />
    <glyph glyph-name="Epsilongreek" unicode="&#x395;" horiz-adv-x="1239" 
d="M1097 204v-204h-916v1443h916v-204h-692v-408h655v-194h-655v-433h692z" />
    <glyph glyph-name="Zetagreek" unicode="&#x396;" horiz-adv-x="1365" 
d="M141 0v161l784 1061v17h-760v204h1041v-161l-780 -1061v-17h799v-204h-1084z" />
    <glyph glyph-name="Etagreek" unicode="&#x397;" horiz-adv-x="1550" 
d="M1369 0h-223v633h-741v-633h-224v1443h224v-606h741v606h223v-1443z" />
    <glyph glyph-name="Thetagreek" unicode="&#x398;" horiz-adv-x="1625" 
d="M1098 617h-572v202h572v-202zM814 1478c425 0 689 -273 689 -756c0 -480 -264 -757 -689 -757c-428 0 -692 276 -692 757c0 484 268 756 692 756zM814 1271c-280 0 -462 -196 -462 -549c0 -351 177 -550 462 -550c281 0 459 199 459 550c0 353 -179 549 -459 549z" />
    <glyph glyph-name="Iotagreek" unicode="&#x399;" horiz-adv-x="585" 
d="M405 0h-224v1443h224v-1443z" />
    <glyph glyph-name="Iotagreek.1" horiz-adv-x="1022" 
d="M125 0v195h274v1053h-274v195h772v-195h-274v-1053h274v-195h-772z" />
    <glyph glyph-name="Kappagreek" unicode="&#x39a;" horiz-adv-x="1386" 
d="M405 0h-224v1443h224v-676h16l597 676h265l-558 -627l606 -816h-280l-484 655l-162 -181v-474z" />
    <glyph glyph-name="Lambdagreek" unicode="&#x39b;" horiz-adv-x="1406" 
d="M1084 0l-375 1169h-17l-379 -1169h-232l501 1443h242l501 -1443h-241z" />
    <glyph glyph-name="Mugreek" unicode="&#x39c;" horiz-adv-x="1822" 
d="M1641 0h-208v1042h-14l-423 -1008h-170l-423 1008h-14v-1042h-208v1443h262l459 -1104h17l460 1104h262v-1443z" />
    <glyph glyph-name="Nugreek" unicode="&#x39d;" horiz-adv-x="1539" 
d="M399 0h-218v1443h202l741 -1025h16v1025h218v-1443h-202l-741 1025h-16v-1025z" />
    <glyph glyph-name="Xigreek" unicode="&#x39e;" horiz-adv-x="1354" 
d="M142 1443h1069v-210h-1069v210zM1124 631h-895v201h895v-201zM142 210h1069v-210h-1069v210z" />
    <glyph glyph-name="Omicrongreek" unicode="&#x39f;" horiz-adv-x="1591" 
d="M796 1478c415 0 673 -291 673 -756c0 -464 -256 -757 -673 -757c-420 0 -674 292 -674 757c0 466 260 756 674 756zM796 1269c-273 0 -445 -212 -445 -547c0 -333 167 -548 445 -548c274 0 444 215 444 548c0 335 -171 547 -444 547z" />
    <glyph glyph-name="Pigreek" unicode="&#x3a0;" horiz-adv-x="1530" 
d="M1349 0h-223v1239h-721v-1239h-224v1443h1168v-1443z" />
    <glyph glyph-name="Rhogreek" unicode="&#x3a1;" horiz-adv-x="1329" 
d="M181 1443h565c282 0 476 -195 476 -481c0 -282 -200 -476 -483 -476h-334v-486h-224v1443zM405 1245v-562h282c193 0 306 100 306 279c0 183 -109 283 -306 283h-282z" />
    <glyph glyph-name="Sigmagreek" unicode="&#x3a3;" horiz-adv-x="1345" 
d="M424 221v-17h781v-204h-1064v158l404 566l-386 535v184h1027v-204h-740v-17l334 -469v-34z" />
    <glyph glyph-name="Taugreek" unicode="&#x3a4;" horiz-adv-x="1317" 
d="M771 0h-224v1239h-454v204h1131v-204h-453v-1239z" />
    <glyph glyph-name="Upsilongreek" unicode="&#x3a5;" horiz-adv-x="1383" 
d="M803 0h-224v582l-508 861h249l363 -625h17l363 625h249l-509 -861v-582z" />
    <glyph glyph-name="Phigreek" unicode="&#x3a6;" horiz-adv-x="1770" 
d="M1433 716c0 280 -176 438 -441 452v-904c265 15 441 172 441 452zM336 716c0 -280 177 -437 441 -452v904c-264 -14 -441 -172 -441 -452zM992 -81h-215v147c-396 19 -665 267 -665 650s269 631 665 650v149h215v-149c396 -19 666 -267 666 -650s-270 -631 -666 -650
v-147z" />
    <glyph glyph-name="Chigreek" unicode="&#x3a7;" horiz-adv-x="1427" 
d="M89 0l482 726v0l-477 717h267l351 -544h17l357 544h252l-490 -723v0l481 -720h-262l-354 534h-17l-359 -534h-248z" />
    <glyph glyph-name="Psigreek" unicode="&#x3a8;" horiz-adv-x="1713" 
d="M966 0h-219v325c-354 3 -586 229 -586 575v543h219v-541c0 -233 130 -364 367 -373v914h219v-914c237 9 367 140 367 373v541h219v-543c0 -346 -231 -573 -586 -575v-325z" />
    <glyph glyph-name="Omegagreek" unicode="&#x2126;" horiz-adv-x="1603" 
d="M1248 790c0 296 -170 479 -447 479c-276 0 -446 -183 -446 -479c0 -239 101 -410 317 -538v-252h-544v199h300v17c-189 116 -300 335 -300 587c0 402 272 675 673 675c402 0 674 -273 674 -675c0 -252 -111 -471 -300 -587v-17h300v-199h-544v252
c216 128 317 299 317 538z" />
    <glyph glyph-name="Omegagreek" unicode="&#x3a9;" horiz-adv-x="1603" 
d="M1248 790c0 296 -170 479 -447 479c-276 0 -446 -183 -446 -479c0 -239 101 -410 317 -538v-252h-544v199h300v17c-189 116 -300 335 -300 587c0 402 272 675 673 675c402 0 674 -273 674 -675c0 -252 -111 -471 -300 -587v-17h300v-199h-544v252
c216 128 317 299 317 538z" />
    <glyph glyph-name="Alphatonosgreek" unicode="&#x386;" horiz-adv-x="1435" 
d="M1127 0l-132 383h-550l-133 -383h-230l521 1443h241l521 -1443h-238zM712 1181l-210 -610h436l-209 610h-17zM265 1097h-167l89 346h215z" />
    <glyph glyph-name="Epsilontonosgreek" unicode="&#x388;" horiz-adv-x="1627" 
d="M258 1097h-167l89 346h215zM1484 204v-204h-916v1443h916v-204h-692v-408h655v-194h-655v-433h692z" />
    <glyph glyph-name="Etatonosgreek" unicode="&#x389;" horiz-adv-x="1938" 
d="M258 1097h-167l89 346h215zM1756 0h-223v633h-741v-633h-224v1443h224v-606h741v606h223v-1443z" />
    <glyph glyph-name="Iotatonosgreek" unicode="&#x38a;" horiz-adv-x="973" 
d="M258 1097h-167l89 346h215zM792 0h-224v1443h224v-1443z" />
    <glyph glyph-name="Iotadieresisgreek" unicode="&#x3aa;" horiz-adv-x="585" 
d="M405 0h-224v1443h224v-1443zM68 1618c-73 0 -133 60 -133 136c0 75 60 136 133 136s132 -61 132 -136c0 -76 -59 -136 -132 -136zM518 1618c-73 0 -132 60 -132 136c0 75 59 136 132 136c74 0 133 -61 133 -136c0 -76 -59 -136 -133 -136z" />
    <glyph glyph-name="Iotatonosgreek.1" horiz-adv-x="1439" 
d="M258 1097h-167l89 346h215zM542 0v195h274v1053h-274v195h772v-195h-274v-1053h274v-195h-772z" />
    <glyph glyph-name="Iotadieresisgreek.1" horiz-adv-x="1022" 
d="M125 0v195h274v1053h-274v195h772v-195h-274v-1053h274v-195h-772zM286 1618c-73 0 -133 60 -133 136c0 75 60 136 133 136s132 -61 132 -136c0 -76 -59 -136 -132 -136zM736 1618c-73 0 -132 60 -132 136c0 75 59 136 132 136c74 0 133 -61 133 -136
c0 -76 -59 -136 -133 -136z" />
    <glyph glyph-name="Omicrontonosgreek" unicode="&#x38c;" horiz-adv-x="1850" 
d="M258 1097h-167l89 346h215zM1055 1478c415 0 673 -291 673 -756c0 -464 -256 -757 -673 -757c-420 0 -674 292 -674 757c0 466 260 756 674 756zM1055 1269c-273 0 -445 -212 -445 -547c0 -333 167 -548 445 -548c274 0 444 215 444 548c0 335 -171 547 -444 547z" />
    <glyph glyph-name="Upsilontonosgreek" unicode="&#x38e;" horiz-adv-x="1777" 
d="M258 1097h-167l89 346h215zM1198 0h-224v582l-508 861h249l363 -625h17l363 625h249l-509 -861v-582z" />
    <glyph glyph-name="Upsilondieresisgreek" unicode="&#x3ab;" horiz-adv-x="1383" 
d="M803 0h-224v582l-508 861h249l363 -625h17l363 625h249l-509 -861v-582zM466 1618c-73 0 -133 60 -133 136c0 75 60 136 133 136s132 -61 132 -136c0 -76 -59 -136 -132 -136zM916 1618c-73 0 -132 60 -132 136c0 75 59 136 132 136c74 0 133 -61 133 -136
c0 -76 -59 -136 -133 -136z" />
    <glyph glyph-name="Omegatonosgreek" unicode="&#x38f;" horiz-adv-x="1869" 
d="M258 1097h-167l89 346h215zM1514 790c0 296 -170 479 -447 479c-276 0 -446 -183 -446 -479c0 -239 101 -410 317 -538v-252h-544v199h300v17c-189 116 -300 335 -300 587c0 402 272 675 673 675c402 0 674 -273 674 -675c0 -252 -111 -471 -300 -587v-17h300v-199h-544
v252c216 128 317 299 317 538z" />
    <glyph glyph-name="Acyrillic" unicode="&#x410;" horiz-adv-x="1443" 
d="M1125 0l-132 383h-550l-133 -383h-230l521 1443h241l521 -1443h-238zM710 1181l-210 -610h436l-209 610h-17z" />
    <glyph glyph-name="uni04D0" unicode="&#x4d0;" horiz-adv-x="1443" 
d="M1125 0l-132 383h-550l-133 -383h-230l521 1443h241l521 -1443h-238zM710 1181l-210 -610h436l-209 610h-17zM366 1891h179c1 -103 76 -169 177 -169c102 0 176 66 177 169h179c0 -191 -142 -308 -356 -308s-356 117 -356 308z" />
    <glyph glyph-name="uni04D2" unicode="&#x4d2;" horiz-adv-x="1443" 
d="M1125 0l-132 383h-550l-133 -383h-230l521 1443h241l521 -1443h-238zM710 1181l-210 -610h436l-209 610h-17zM497 1618c-73 0 -133 60 -133 136c0 75 60 136 133 136s132 -61 132 -136c0 -76 -59 -136 -132 -136zM947 1618c-73 0 -132 60 -132 136c0 75 59 136 132 136
c74 0 133 -61 133 -136c0 -76 -59 -136 -133 -136z" />
    <glyph glyph-name="uniF50E" horiz-adv-x="1443" 
d="M1125 0l-132 383h-550l-133 -383h-230l521 1443h241l521 -1443h-238zM710 1181l-210 -610h436l-209 610h-17zM1062 1829v-156h-680v156h680z" />
    <glyph glyph-name="uniF460" horiz-adv-x="1443" 
d="M1125 0l-132 383h-550l-133 -383h-230l521 1443h241l521 -1443h-238zM710 1181l-210 -610h436l-209 610h-17zM815 1582h-175l175 309h246z" />
    <glyph glyph-name="Becyrillic" unicode="&#x411;" horiz-adv-x="1334" 
d="M1215 443c0 -263 -195 -443 -475 -443h-549v1443h884v-204h-660v-355h320c282 0 480 -179 480 -441zM415 200h268c193 0 303 86 303 244s-111 245 -304 245h-267v-489z" />
    <glyph glyph-name="Vecyrillic" unicode="&#x412;" horiz-adv-x="1393" 
d="M784 0h-593v1443h580c271 0 434 -138 434 -360c0 -151 -111 -286 -253 -310v-17c195 -20 325 -159 325 -347c0 -254 -185 -409 -493 -409zM415 1253v-421h266c198 0 301 73 301 210c0 133 -97 211 -263 211h-304zM415 190h324c202 0 309 82 309 235
c0 151 -111 230 -322 230h-311v-465z" />
    <glyph glyph-name="Gecyrillic" unicode="&#x413;" horiz-adv-x="1183" 
d="M415 0h-224v1443h882v-205h-658v-1238z" />
    <glyph glyph-name="Gjecyrillic" unicode="&#x403;" horiz-adv-x="1183" 
d="M415 0h-224v1443h882v-205h-658v-1238zM725 1582h-175l175 309h246z" />
    <glyph glyph-name="Geupturncyrillic" unicode="&#x490;" horiz-adv-x="1183" 
d="M416 1238v-1238h-225v1443h677v285h205v-490h-657z" />
    <glyph glyph-name="uni04F6" unicode="&#x4f6;" horiz-adv-x="1183" 
d="M1073 1238h-658v-1034h181v-489h-206v285h-199v204v1239h882v-205z" />
    <glyph glyph-name="uni0492" unicode="&#x492;" horiz-adv-x="1183" 
d="M1073 1238h-658v-432h502v-191h-502v-615h-224v615h-112v191h112v637h882v-205z" />
    <glyph glyph-name="uniF53C" horiz-adv-x="1211" 
d="M415 0h-224v1443h901v-204h-677v-443h620v-198h-620v-598z" />
    <glyph glyph-name="uni04FA" unicode="&#x4fa;" horiz-adv-x="1183" 
d="M1073 1238h-658v-432h520v-191h-520v-615v-43c0 -232 -116 -337 -362 -337c-7 0 -43 1 -47 2v184c2 0 27 -1 30 -1c115 0 155 43 155 150v45v615h-112v191h112v637h882v-205z" />
    </font>
</defs>
</svg>
